<?xml version="1.0" standalone="no"?>
<!DOCTYPE svg PUBLIC "-//W3C//DTD SVG 20010904//EN"
 "http://www.w3.org/TR/2001/REC-SVG-20010904/DTD/svg10.dtd">
<svg version="1.0" xmlns="http://www.w3.org/2000/svg"
 width="1280.000000pt" height="720.000000pt" viewBox="0 0 1280.000000 720.000000"
 preserveAspectRatio="xMidYMid meet">
<metadata>
Created by potrace 1.16, written by Peter Selinger 2001-2019
</metadata>
<g transform="translate(0.000000,720.000000) scale(0.100000,-0.100000)"
fill="#000000" stroke="none">
<path d="M4840 3698 c-3 -3 -140 -8 -305 -12 -165 -3 -372 -11 -460 -16 -88
-5 -245 -14 -350 -20 -104 -6 -230 -15 -280 -20 -49 -5 -124 -12 -165 -15
-222 -18 -510 -48 -650 -69 -52 -8 -138 -20 -190 -26 -52 -7 -124 -18 -160
-25 -36 -7 -94 -19 -130 -26 -112 -21 -218 -58 -235 -82 -19 -28 -19 -86 1
-136 12 -30 26 -45 58 -61 63 -30 118 -25 278 24 186 58 280 80 512 121 504
90 1217 163 1901 195 863 41 1844 31 3310 -35 862 -39 1511 -59 1709 -53 121
3 140 6 152 22 41 56 -48 67 -711 91 -225 9 -430 18 -455 20 -25 3 -144 10
-265 15 -121 5 -301 14 -400 20 -99 5 -274 14 -390 20 -115 6 -300 15 -410 20
-589 30 -2347 65 -2365 48z"/>
</g>
</svg>
