<?xml version="1.0" standalone="no"?>
<!DOCTYPE svg PUBLIC "-//W3C//DTD SVG 20010904//EN"
 "http://www.w3.org/TR/2001/REC-SVG-20010904/DTD/svg10.dtd">
<svg version="1.0" xmlns="http://www.w3.org/2000/svg"
 width="1280.000000pt" height="720.000000pt" viewBox="0 0 1280.000000 720.000000"
 preserveAspectRatio="xMidYMid meet">
<metadata>
Created by potrace 1.16, written by Peter Selinger 2001-2019
</metadata>
<g transform="translate(0.000000,720.000000) scale(0.100000,-0.100000)"
fill="#000000" stroke="none">
<path d="M4380 3684 c-36 -2 -171 -8 -300 -14 -262 -12 -470 -25 -635 -40
-162 -15 -398 -39 -495 -50 -47 -6 -123 -14 -170 -20 -47 -5 -130 -16 -185
-25 -55 -9 -131 -21 -170 -26 -183 -28 -391 -76 -444 -103 -39 -20 -58 -47
-66 -87 -6 -32 -3 -41 23 -70 29 -32 34 -34 94 -32 35 0 108 13 163 28 188 51
519 110 885 159 168 23 296 37 730 81 154 16 346 30 630 46 195 11 311 23 372
40 40 10 40 11 35 51 -3 22 -10 45 -16 51 -10 10 -317 18 -451 11z"/>
</g>
</svg>
