<?xml version="1.0" standalone="no"?>
<!DOCTYPE svg PUBLIC "-//W3C//DTD SVG 20010904//EN"
 "http://www.w3.org/TR/2001/REC-SVG-20010904/DTD/svg10.dtd">
<svg version="1.0" xmlns="http://www.w3.org/2000/svg"
 width="1280.000000pt" height="720.000000pt" viewBox="0 0 1280.000000 720.000000"
 preserveAspectRatio="xMidYMid meet">
<metadata>
Created by potrace 1.16, written by Peter Selinger 2001-2019
</metadata>
<g transform="translate(0.000000,720.000000) scale(0.100000,-0.100000)"
fill="#000000" stroke="none">
<path d="M4303 5860 c-182 -26 -374 -119 -516 -250 -128 -117 -243 -308 -288
-476 -30 -110 -37 -322 -15 -432 52 -255 206 -469 447 -620 115 -73 268 -139
509 -220 281 -96 422 -151 510 -199 270 -150 391 -311 419 -554 22 -195 -35
-381 -155 -509 -122 -129 -265 -188 -479 -197 -490 -21 -820 189 -1039 659
-70 150 -142 389 -189 627 -7 36 -17 66 -23 68 -22 7 -25 -120 -18 -744 l7
-633 24 0 c19 0 28 10 44 47 55 129 147 177 274 142 22 -6 99 -34 170 -61 228
-89 389 -125 597 -135 156 -7 277 6 407 44 327 94 589 341 698 658 48 141 56
198 57 410 l1 200 46 95 c55 111 118 182 232 259 81 55 109 85 100 108 -8 21
-70 12 -136 -21 -91 -45 -228 -188 -281 -293 -14 -29 -28 -53 -31 -53 -2 0
-23 32 -45 71 -118 201 -319 363 -595 480 -60 25 -236 90 -390 144 -392 136
-504 194 -642 331 -147 147 -211 356 -172 570 16 89 80 211 146 278 70 71 135
108 248 142 80 23 107 26 235 26 102 0 167 -5 220 -17 271 -63 485 -261 657
-610 61 -122 76 -158 135 -324 36 -102 53 -121 63 -69 3 18 5 256 3 528 -3
492 -3 495 -24 498 -16 2 -25 -7 -39 -38 -58 -128 -193 -161 -359 -89 -302
131 -407 159 -611 164 -77 2 -168 0 -202 -5z"/>
</g>
</svg>
