<?xml version="1.0" standalone="no"?>
<!DOCTYPE svg PUBLIC "-//W3C//DTD SVG 20010904//EN"
 "http://www.w3.org/TR/2001/REC-SVG-20010904/DTD/svg10.dtd">
<svg version="1.0" xmlns="http://www.w3.org/2000/svg"
 width="1280.000000pt" height="720.000000pt" viewBox="0 0 1280.000000 720.000000"
 preserveAspectRatio="xMidYMid meet">
<metadata>
Created by potrace 1.16, written by Peter Selinger 2001-2019
</metadata>
<g transform="translate(0.000000,720.000000) scale(0.100000,-0.100000)"
fill="#000000" stroke="none">
<path d="M4308 5860 c-370 -44 -704 -343 -810 -728 -18 -63 -22 -106 -22 -242
-1 -183 6 -226 61 -359 95 -232 273 -403 563 -540 82 -38 406 -155 610 -221
14 -4 68 -27 120 -50 374 -165 544 -380 543 -685 0 -182 -58 -337 -163 -443
-133 -132 -300 -192 -538 -192 -108 0 -266 23 -352 51 -409 135 -675 531 -805
1200 -10 48 -21 92 -25 99 -26 42 -29 -17 -25 -503 2 -276 4 -584 5 -684 l0
-183 24 0 c20 0 30 12 58 67 44 89 88 123 164 130 64 5 113 -8 316 -86 477
-183 940 -157 1267 72 183 128 325 320 394 532 46 141 60 251 53 420 -7 143
-6 154 18 231 14 44 43 107 64 140 37 56 143 164 163 164 5 0 9 -334 9 -836
l0 -835 1043 4 c1037 3 1042 3 1142 26 263 59 460 155 647 315 262 224 436
584 493 1016 49 369 19 746 -84 1059 -79 241 -186 417 -356 587 -202 202 -390
305 -703 383 -260 66 -263 66 -1267 66 l-910 0 -5 -847 -5 -846 -76 -60 c-97
-76 -149 -138 -200 -234 -22 -43 -42 -78 -44 -78 -2 0 -16 25 -32 56 -15 31
-56 92 -91 135 -175 219 -405 349 -897 509 -334 108 -510 198 -639 323 -81 80
-131 158 -167 263 -32 92 -35 288 -5 374 45 134 129 245 230 304 215 126 551
125 802 -2 226 -114 424 -390 571 -797 57 -158 68 -179 82 -156 5 7 8 245 7
529 -1 515 -1 517 -22 520 -16 2 -25 -7 -39 -38 -24 -54 -84 -106 -136 -120
-82 -22 -148 -5 -384 98 -199 87 -418 118 -647 92z m3218 -70 c246 -20 429
-72 583 -165 226 -136 393 -370 487 -680 127 -418 147 -1139 43 -1585 -70
-305 -168 -506 -328 -673 -94 -98 -194 -165 -307 -206 -83 -30 -282 -71 -345
-71 l-29 0 0 1218 0 1219 -97 10 c-73 7 -113 17 -155 38 -167 82 -292 256
-333 463 -19 93 -25 -31 -27 -548 l-3 -565 -250 -7 c-224 -5 -312 -13 -425
-34 -24 -5 -32 -3 -25 4 10 10 211 58 270 64 l30 3 3 763 2 762 389 0 c213 0
446 -5 517 -10z m-38 -1450 c0 -219 -12 -507 -17 -405 -1 38 -20 89 -21 56 0
-9 -7 -6 -21 10 -17 20 -22 21 -30 9 -7 -10 -12 -11 -15 -4 -3 7 -23 9 -54 6
-41 -4 -50 -2 -50 12 0 26 -34 18 -47 -11 -7 -15 -14 -47 -15 -72 -1 -26 -5
51 -8 169 -3 118 -3 271 -1 340 l3 125 104 0 c94 0 104 2 104 18 0 11 9 21 19
24 12 3 22 18 27 41 l8 37 7 -55 c4 -30 7 -165 7 -300z m-468 -1025 l0 -885
-57 0 c-32 -1 -121 -2 -198 -3 l-140 -2 -3 875 c-1 481 0 881 3 888 3 9 53 12
200 12 l195 0 0 -885z"/>
<path d="M2375 1756 c-41 -18 -65 -57 -65 -106 0 -58 36 -91 128 -120 60 -19
73 -27 79 -48 13 -52 -53 -67 -138 -31 l-49 21 -19 -23 c-14 -18 -16 -27 -8
-37 37 -46 169 -66 231 -37 42 20 76 67 76 103 0 59 -42 95 -140 123 -52 15
-80 35 -80 59 0 42 62 53 126 23 36 -17 36 -17 55 6 27 33 24 39 -27 61 -52
23 -125 25 -169 6z"/>
<path d="M3089 1580 c-1 -104 -2 -196 -3 -202 -1 -9 13 -13 39 -13 l40 0 3 78
3 77 100 0 100 0 -3 33 -3 32 -95 5 -95 5 0 50 0 50 108 0 107 0 0 38 0 37
-150 0 -150 0 -1 -190z"/>
<path d="M3565 1747 c-8 -13 -31 -64 -51 -113 -20 -49 -51 -122 -69 -161 -47
-101 -47 -105 -3 -110 37 -3 39 -2 61 44 l22 48 65 3 c92 4 108 -2 126 -48 15
-38 18 -40 59 -40 l44 0 -39 93 c-136 327 -123 302 -163 305 -29 3 -39 -2 -52
-21z"/>
<path d="M3988 1750 c-147 -78 -149 -305 -4 -371 73 -33 185 -20 238 28 24 22
23 37 -4 52 -19 9 -30 8 -63 -9 -21 -11 -52 -20 -68 -20 -65 0 -127 62 -127
128 0 111 95 173 191 123 l42 -22 23 22 c23 21 23 23 7 42 -45 48 -167 63
-235 27z"/>
<path d="M4312 1733 l3 -38 57 -3 57 -3 3 -157 3 -156 35 -7 c19 -4 37 -6 39
-4 2 3 6 76 9 165 3 107 9 160 16 161 6 0 31 1 56 2 44 2 45 2 48 40 l3 37
-166 0 -166 0 3 -37z"/>
<path d="M4830 1759 c-31 -13 -87 -66 -105 -99 -36 -70 -23 -183 28 -239 55
-59 174 -79 252 -41 78 37 112 83 121 165 6 46 3 63 -15 98 -31 60 -52 82 -99
106 -45 23 -137 28 -182 10z m133 -73 c48 -20 69 -50 75 -104 13 -141 -141
-206 -227 -96 -14 18 -21 41 -21 71 0 107 82 168 173 129z"/>
<path d="M5245 1758 c-3 -7 -4 -99 -3 -203 l3 -190 35 0 35 1 3 62 3 62 42 0
c40 0 44 -3 82 -59 41 -60 62 -73 109 -64 l25 5 -40 58 c-21 31 -39 61 -39 65
0 4 16 25 35 46 29 32 35 47 35 84 0 58 -13 85 -57 115 -33 22 -49 25 -150 29
-89 2 -114 0 -118 -11z m225 -88 c28 -28 25 -64 -7 -90 -21 -17 -38 -20 -82
-18 l-56 3 -3 63 -3 62 66 0 c52 0 69 -4 85 -20z"/>
<path d="M5870 1570 l0 -200 108 0 c149 1 208 30 247 122 41 101 -7 211 -114
259 -33 15 -66 19 -142 19 l-99 0 0 -200z m225 108 c58 -26 76 -134 31 -192
-29 -38 -96 -62 -145 -51 l-31 7 0 118 c0 103 2 120 18 130 18 11 91 5 127
-12z"/>
<path d="M6444 1693 c-53 -117 -61 -136 -69 -163 -4 -14 -18 -45 -30 -70 -12
-25 -26 -55 -29 -67 -7 -21 -4 -23 34 -23 39 0 42 2 60 45 l19 45 83 0 83 0
18 -44 c15 -37 24 -45 53 -50 19 -4 38 -5 43 -2 8 6 -35 117 -121 314 -40 91
-41 92 -75 92 -33 0 -35 -3 -69 -77z"/>
<path d="M6817 1763 c-4 -3 -7 -93 -7 -199 0 -207 0 -207 53 -197 l27 5 0 119
c0 67 4 119 9 119 5 0 47 -48 93 -107 108 -141 109 -141 147 -135 l31 4 -2
197 -3 196 -35 0 -35 0 -3 -123 c-1 -68 -7 -122 -11 -120 -12 4 -103 116 -156
191 -34 47 -45 56 -71 57 -17 0 -34 -3 -37 -7z"/>
<path d="M7404 1756 c-120 -53 -161 -226 -77 -326 72 -87 229 -96 301 -18 l22
25 -20 18 c-20 18 -22 18 -66 -3 -53 -26 -84 -28 -128 -7 -76 36 -93 146 -33
211 42 46 98 56 155 26 l40 -21 22 24 c27 29 20 41 -34 66 -48 22 -137 24
-182 5z"/>
<path d="M7750 1570 l0 -200 155 0 155 0 0 30 c0 29 -1 30 -47 30 -27 0 -79 3
-116 7 l-68 6 3 41 3 41 95 5 95 5 0 30 0 30 -92 3 c-88 3 -93 4 -99 27 -14
56 -8 60 108 63 102 3 106 3 112 27 13 52 6 55 -155 55 l-149 0 0 -200z"/>
<path d="M8471 1763 c-36 -7 -116 -93 -124 -132 -11 -53 -8 -119 7 -154 48
-115 226 -156 322 -73 l37 32 -28 18 c-27 18 -29 18 -65 -3 -119 -67 -239 45
-186 173 30 73 114 98 185 55 l34 -21 25 25 c29 29 24 40 -28 67 -38 19 -115
25 -179 13z"/>
<path d="M8814 1757 c-2 -7 -3 -98 -2 -202 l3 -190 35 1 35 0 5 60 5 59 41 3
c40 3 42 2 80 -57 38 -59 41 -61 82 -61 23 0 42 2 42 5 0 2 -16 29 -35 59 -41
64 -42 72 -15 86 31 17 63 87 56 124 -12 60 -41 94 -97 110 -66 20 -227 22
-235 3z m229 -85 c10 -9 17 -29 17 -48 0 -48 -32 -66 -107 -62 l-58 3 -3 54
c-5 82 -2 84 71 76 34 -4 70 -14 80 -23z"/>
<path d="M9260 1570 l0 -200 149 0 c159 0 166 2 154 50 -6 21 -10 22 -112 19
l-106 -4 0 45 0 45 90 5 90 5 3 33 3 32 -96 0 -96 0 3 46 3 47 108 -2 107 -2
0 40 0 41 -150 0 -150 0 0 -200z"/>
<path d="M9643 1748 c3 -13 31 -95 62 -183 31 -88 59 -168 62 -177 4 -13 16
-18 42 -18 40 0 39 -2 97 168 16 45 32 82 36 82 4 0 10 -10 13 -22 4 -13 23
-69 42 -125 32 -94 37 -102 65 -108 16 -4 34 -3 39 2 8 8 139 384 139 399 0 3
-18 4 -41 2 l-40 -3 -39 -118 c-53 -162 -50 -155 -59 -137 -5 8 -25 64 -45
125 -43 125 -50 137 -84 133 -21 -3 -29 -16 -59 -103 -20 -55 -38 -112 -40
-127 -10 -54 -28 -26 -68 100 l-41 127 -43 3 c-41 3 -43 2 -38 -20z"/>
</g>
</svg>
