<?xml version="1.0" standalone="no"?>
<!DOCTYPE svg PUBLIC "-//W3C//DTD SVG 20010904//EN"
 "http://www.w3.org/TR/2001/REC-SVG-20010904/DTD/svg10.dtd">
<svg version="1.0" xmlns="http://www.w3.org/2000/svg"
 width="1280.000000pt" height="720.000000pt" viewBox="0 0 1280.000000 720.000000"
 preserveAspectRatio="xMidYMid meet">
<metadata>
Created by potrace 1.16, written by Peter Selinger 2001-2019
</metadata>
<g transform="translate(0.000000,720.000000) scale(0.100000,-0.100000)"
fill="#000000" stroke="none">
<path d="M4308 5860 c-370 -44 -704 -343 -810 -728 -18 -63 -22 -106 -22 -242
-1 -183 6 -226 61 -359 95 -232 273 -403 563 -540 82 -38 406 -155 610 -221
14 -4 68 -27 120 -50 374 -165 544 -380 543 -685 0 -182 -58 -337 -163 -443
-133 -132 -300 -192 -538 -192 -108 0 -266 23 -352 51 -409 135 -675 531 -805
1200 -10 48 -21 92 -25 99 -26 42 -29 -17 -25 -503 2 -276 4 -584 5 -684 l0
-183 24 0 c20 0 30 12 58 67 44 89 88 123 164 130 64 5 113 -8 316 -86 477
-183 940 -157 1267 72 87 61 193 167 253 252 144 204 206 430 193 705 -6 138
-5 149 19 226 14 44 43 107 64 140 37 56 143 164 163 164 5 0 9 -334 9 -835
l0 -835 593 1 c325 1 657 4 737 8 84 4 150 3 158 -2 7 -6 133 -7 305 -4 246 5
308 9 392 27 373 79 669 271 864 558 186 274 283 616 298 1052 12 344 -62 730
-187 979 -87 174 -149 261 -275 387 -202 202 -390 305 -703 383 -260 66 -263
66 -1267 66 l-910 0 -5 -847 -5 -846 -76 -60 c-97 -76 -149 -138 -200 -234
-22 -43 -42 -78 -44 -78 -2 0 -16 25 -32 56 -15 31 -56 92 -91 135 -175 219
-405 349 -897 509 -334 108 -510 198 -639 323 -81 80 -131 158 -167 263 -32
92 -35 288 -5 374 45 134 130 246 232 305 213 125 550 123 800 -3 226 -114
424 -390 571 -797 57 -158 68 -179 82 -156 5 7 8 245 7 529 -1 515 -1 517 -22
520 -16 2 -25 -7 -39 -38 -24 -54 -84 -106 -136 -120 -82 -22 -148 -5 -384 98
-199 87 -418 118 -647 92z m3218 -70 c246 -20 429 -72 583 -165 226 -136 393
-370 487 -680 127 -418 147 -1139 43 -1585 -70 -305 -168 -506 -328 -673 -94
-98 -194 -165 -307 -206 -83 -30 -282 -71 -345 -71 l-29 0 0 1220 0 1220 -32
0 c-18 0 -50 3 -70 6 l-38 7 -2 -821 c-2 -451 -6 -823 -10 -827 -4 -4 -14 0
-23 9 -9 9 -21 16 -26 16 -5 0 -9 14 -9 30 0 22 -5 30 -18 30 -10 0 -22 3 -25
7 -4 3 -21 8 -37 10 -17 1 -42 14 -56 28 -39 39 -53 31 -64 -35 -13 -72 -22
432 -19 1065 l3 652 -31 39 c-58 73 -107 186 -128 292 -19 93 -25 -31 -27
-548 l-3 -565 -250 -7 c-224 -5 -312 -13 -425 -34 -24 -5 -32 -3 -25 4 10 10
211 58 270 64 l30 3 3 763 2 762 389 0 c213 0 446 -5 517 -10z m-506 -2475 l0
-885 -27 0 c-16 -1 -104 -2 -198 -3 l-170 -2 -3 875 c-1 481 0 881 3 888 3 9
53 12 200 12 l195 0 0 -885z"/>
<path d="M4050 1770 c-81 -11 -126 -46 -162 -128 -37 -83 -9 -186 66 -246 36
-29 43 -31 126 -31 74 0 93 3 116 21 46 34 53 52 26 73 -23 17 -25 16 -73 -7
-60 -30 -105 -24 -147 18 -52 52 -52 138 0 190 41 41 86 48 143 20 l46 -22 25
23 c13 12 24 26 24 30 0 13 -72 52 -109 58 -20 4 -56 4 -81 1z"/>
<path d="M4869 1770 c-161 -29 -226 -245 -106 -357 47 -44 86 -56 166 -51 59
3 77 9 113 35 128 93 114 286 -27 355 -37 19 -99 26 -146 18z m121 -98 c103
-77 34 -260 -89 -237 -50 10 -69 22 -91 58 -74 120 68 261 180 179z"/>
<path d="M7470 1770 c-132 -12 -212 -126 -186 -265 8 -43 68 -113 113 -132 73
-30 195 -11 239 38 17 19 17 21 -8 46 l-26 25 -29 -22 c-88 -65 -202 -7 -203
103 0 107 89 163 185 117 l47 -23 21 22 c26 25 17 46 -29 71 -40 23 -61 26
-124 20z"/>
<path d="M2353 1744 c-20 -15 -37 -40 -43 -64 -19 -70 18 -121 110 -146 70
-20 100 -39 100 -64 0 -43 -61 -51 -140 -18 l-52 22 -19 -25 c-10 -13 -19 -26
-19 -29 0 -3 17 -16 37 -29 45 -29 155 -41 203 -21 48 20 80 65 80 112 0 55
-37 90 -125 117 -97 30 -115 50 -78 86 19 20 83 14 120 -10 20 -14 24 -13 43
7 11 12 19 29 18 38 -5 26 -68 49 -138 49 -55 1 -70 -3 -97 -25z"/>
<path d="M3087 1756 c-3 -8 -5 -99 -4 -203 l2 -188 40 0 40 0 5 75 5 75 98 3
97 3 0 34 0 34 -97 3 -98 3 -3 47 -3 47 113 3 113 3 3 38 3 37 -154 0 c-125 0
-156 -3 -160 -14z"/>
<path d="M3545 1713 c-15 -32 -38 -87 -52 -123 -14 -36 -41 -98 -59 -138 -19
-41 -34 -78 -34 -83 0 -6 19 -9 43 -7 39 3 43 6 61 46 l19 42 87 0 87 0 19
-42 c16 -37 24 -43 53 -46 50 -5 55 8 27 69 -14 30 -52 117 -84 194 l-58 140
-42 3 -42 3 -25 -58z"/>
<path d="M4305 1760 c-4 -6 -4 -24 0 -40 6 -29 8 -30 66 -30 l59 0 2 -162 3
-163 40 0 40 0 3 163 2 162 60 0 60 0 0 40 0 40 -164 0 c-102 0 -167 -4 -171
-10z"/>
<path d="M5240 1565 l0 -205 40 0 39 0 3 63 3 62 36 3 c35 3 39 0 83 -62 44
-62 49 -66 86 -66 21 0 41 4 44 8 3 5 -13 33 -34 63 -22 30 -40 58 -40 62 0 5
16 23 35 41 33 31 35 38 35 94 0 110 -52 142 -229 142 l-101 0 0 -205z m230
105 c25 -25 25 -51 1 -81 -16 -20 -28 -24 -83 -24 l-63 0 -3 49 c-5 72 -1 76
68 76 47 0 64 -4 80 -20z"/>
<path d="M5872 1568 l3 -203 55 -3 c192 -12 293 48 307 182 7 66 -8 113 -50
156 -53 55 -98 70 -215 70 l-102 0 2 -202z m217 108 c39 -21 61 -58 61 -106 0
-55 -22 -94 -64 -114 -41 -19 -122 -22 -128 -3 -4 12 -4 70 0 180 l2 57 50 0
c28 0 64 -7 79 -14z"/>
<path d="M6429 1668 c-23 -57 -60 -143 -81 -193 -21 -49 -38 -96 -38 -102 0
-14 57 -18 76 -5 6 4 17 24 25 45 l13 37 87 0 87 0 18 -45 c16 -42 19 -45 55
-45 21 0 40 4 43 8 5 8 -124 326 -154 383 -8 14 -21 19 -49 19 l-39 0 -43
-102z"/>
<path d="M6810 1565 l0 -205 40 0 40 0 0 126 c0 72 4 124 9 122 5 -1 53 -58
106 -125 90 -115 99 -123 131 -123 l34 0 0 205 0 205 -40 0 -40 0 0 -125 c0
-69 -3 -125 -7 -125 -8 1 -93 107 -163 202 -31 42 -39 48 -72 48 l-38 0 0
-205z"/>
<path d="M7750 1565 l0 -206 153 3 152 3 0 35 0 35 -107 3 -108 3 0 44 0 45
95 0 95 0 0 35 0 35 -90 0 c-80 0 -90 2 -100 21 -7 11 -9 32 -6 45 6 22 10 23
114 26 l107 3 0 35 0 35 -152 3 -153 3 0 -206z"/>
<path d="M8433 1744 c-104 -68 -131 -213 -57 -310 67 -89 239 -101 312 -21
l23 25 -26 20 -27 21 -27 -20 c-69 -51 -159 -28 -193 49 -58 130 76 245 191
163 l28 -20 22 30 c19 26 20 33 9 46 -23 28 -75 43 -146 43 -57 0 -75 -4 -109
-26z"/>
<path d="M8810 1565 l0 -205 40 0 39 0 3 63 3 62 41 3 c40 3 42 1 69 -45 43
-75 53 -83 102 -83 23 0 43 2 43 5 0 4 -18 33 -40 66 -22 33 -40 63 -40 65 0
3 13 17 30 30 40 34 57 92 42 142 -24 78 -78 102 -228 102 l-104 0 0 -205z
m232 108 c18 -16 24 -58 10 -80 -19 -30 -126 -45 -150 -21 -13 13 -17 100 -5
111 14 15 126 7 145 -10z"/>
<path d="M9262 1568 l3 -203 150 0 150 0 0 35 0 35 -110 5 -110 5 0 40 0 40
92 3 c89 3 91 3 98 29 3 14 2 30 -2 34 -4 4 -49 9 -98 11 l-90 3 -3 43 -3 42
110 0 111 0 0 40 0 40 -150 0 -150 0 2 -202z"/>
<path d="M9640 1758 c0 -7 23 -78 51 -158 28 -80 55 -161 61 -180 14 -48 26
-60 59 -60 34 0 39 9 86 143 19 56 38 105 41 109 4 4 23 -39 41 -95 48 -144
56 -157 90 -157 16 0 33 6 38 13 10 12 133 372 133 389 0 5 -19 8 -42 6 l-43
-3 -39 -125 c-21 -69 -41 -127 -42 -129 -8 -9 -17 12 -58 131 l-42 123 -35 0
-34 0 -32 -95 c-18 -52 -37 -110 -44 -128 -6 -18 -14 -31 -17 -28 -3 4 -24 61
-46 129 l-41 122 -42 3 c-30 2 -43 -1 -43 -10z"/>
</g>
</svg>
