<?xml version="1.0" standalone="no"?>
<!DOCTYPE svg PUBLIC "-//W3C//DTD SVG 20010904//EN"
 "http://www.w3.org/TR/2001/REC-SVG-20010904/DTD/svg10.dtd">
<svg version="1.0" xmlns="http://www.w3.org/2000/svg"
 width="1280.000000pt" height="720.000000pt" viewBox="0 0 1280.000000 720.000000"
 preserveAspectRatio="xMidYMid meet">
<metadata>
Created by potrace 1.16, written by Peter Selinger 2001-2019
</metadata>
<g transform="translate(0.000000,720.000000) scale(0.100000,-0.100000)"
fill="#000000" stroke="none">
<path d="M4296 5859 c-243 -32 -496 -191 -649 -410 -114 -162 -166 -322 -174
-530 -6 -160 10 -258 63 -387 41 -99 62 -134 142 -232 147 -182 348 -298 762
-438 288 -98 351 -122 457 -174 352 -170 510 -416 472 -731 -14 -120 -40 -200
-87 -273 -97 -150 -255 -246 -447 -274 -154 -22 -377 -4 -515 41 -396 130
-658 508 -791 1141 -31 145 -42 179 -54 166 -7 -6 -10 -441 -7 -965 l2 -413
24 0 c21 0 30 11 56 64 54 114 127 151 248 127 31 -6 119 -36 195 -66 570
-225 1087 -168 1426 159 129 125 204 238 261 395 55 149 64 216 65 441 1 224
5 246 68 360 33 58 154 190 175 190 9 0 12 -188 12 -835 l0 -835 981 0 c629 0
1016 4 1077 11 127 14 301 59 409 105 481 206 775 630 860 1244 21 154 24 519
4 660 -59 433 -207 758 -458 1001 -105 102 -171 152 -279 211 -144 80 -266
125 -454 168 -250 57 -346 62 -1295 58 l-840 -3 -5 -846 -5 -846 -55 -43
c-120 -93 -193 -179 -238 -282 -11 -27 -23 -48 -26 -48 -2 0 -17 25 -33 56
-40 81 -146 208 -233 282 -156 131 -320 212 -695 342 -271 93 -404 145 -485
188 -87 46 -201 133 -256 196 -57 65 -119 185 -139 267 -19 82 -19 218 0 294
35 139 133 277 242 341 111 65 305 102 463 89 227 -19 399 -101 551 -262 151
-161 265 -364 365 -652 48 -134 59 -155 74 -132 5 8 7 245 6 530 -2 509 -3
516 -22 519 -16 2 -25 -7 -39 -38 -35 -77 -116 -130 -200 -130 -48 0 -133 25
-215 63 -180 84 -280 116 -433 136 -91 13 -232 12 -331 0z m3369 -83 c279 -46
465 -133 625 -295 206 -207 331 -505 384 -913 31 -236 46 -671 24 -693 -2 -2
-76 22 -164 54 -287 105 -570 187 -818 235 -43 9 -80 16 -82 16 -2 0 -4 151
-4 335 l0 335 -22 0 c-13 0 -45 3 -73 6 l-50 6 4 -568 c2 -313 0 -674 -4 -801
-7 -219 -8 -233 -26 -233 -13 0 -19 7 -19 24 0 19 -7 25 -34 30 -22 4 -37 14
-41 26 -4 11 -15 20 -25 20 -10 0 -25 7 -34 15 -28 28 -74 15 -88 -25 -17 -51
-25 1447 -8 1555 4 28 8 45 9 40 2 -15 61 -39 71 -29 5 5 -18 38 -55 77 -101
107 -165 229 -189 361 -20 105 -26 -17 -28 -544 l-3 -565 -245 -6 c-220 -6
-321 -14 -430 -35 -23 -4 -32 -3 -25 3 12 12 165 50 245 61 l55 7 3 764 2 763
473 -5 c374 -3 493 -8 572 -21z m-647 -2461 l-3 -886 -195 0 -195 0 -3 886 -2
885 200 0 200 0 -2 -885z m837 780 c238 -50 600 -158 818 -244 33 -13 33 -22
12 -206 -54 -461 -182 -775 -401 -986 -104 -99 -211 -162 -344 -200 -62 -18
-245 -49 -289 -49 l-21 0 0 866 0 866 28 -6 c15 -3 104 -21 197 -41z"/>
</g>
</svg>
