<?xml version="1.0" standalone="no"?>
<!DOCTYPE svg PUBLIC "-//W3C//DTD SVG 20010904//EN"
 "http://www.w3.org/TR/2001/REC-SVG-20010904/DTD/svg10.dtd">
<svg version="1.0" xmlns="http://www.w3.org/2000/svg"
 width="1280.000000pt" height="720.000000pt" viewBox="0 0 1280.000000 720.000000"
 preserveAspectRatio="xMidYMid meet">
<metadata>
Created by potrace 1.16, written by Peter Selinger 2001-2019
</metadata>
<g transform="translate(0.000000,720.000000) scale(0.100000,-0.100000)"
fill="#000000" stroke="none">
<path d="M4301 5859 c-177 -23 -378 -121 -520 -253 -124 -116 -238 -308 -282
-472 -30 -112 -37 -323 -15 -431 52 -256 205 -470 447 -622 114 -71 270 -138
511 -220 295 -100 376 -131 484 -187 213 -108 346 -241 408 -405 75 -199 41
-460 -82 -629 -66 -91 -209 -182 -337 -215 -88 -23 -274 -30 -391 -15 -286 36
-498 156 -668 380 -155 203 -270 500 -349 899 -14 74 -32 90 -38 34 -5 -43 -5
-363 -1 -945 l2 -398 25 0 c21 0 29 10 53 63 51 111 132 154 247 129 28 -5
116 -35 196 -66 265 -103 493 -144 734 -133 444 21 813 289 959 697 49 135 59
201 61 405 2 198 6 219 54 313 26 52 92 127 147 169 23 18 45 33 48 33 3 0 6
-362 6 -805 l0 -805 813 2 812 3 3 868 c2 748 4 867 17 867 64 0 556 -116 770
-181 139 -43 426 -151 573 -216 68 -30 126 -52 128 -50 10 10 -273 142 -471
220 -337 132 -674 241 -905 291 l-105 23 -3 321 -2 322 -33 0 c-118 1 -268 63
-362 152 -96 89 -164 215 -189 351 -20 108 -26 -8 -26 -514 l0 -539 -198 0
-199 0 -9 688 c-5 378 -9 720 -8 760 l0 72 -298 0 -298 0 -2 -192 c-1 -106 -3
-245 -4 -308 -1 -63 -3 -354 -3 -646 l-1 -531 -55 -37 c-82 -57 -185 -171
-228 -253 -34 -65 -57 -91 -57 -64 0 21 -76 137 -132 203 -166 193 -357 300
-813 458 -464 160 -566 211 -712 356 -57 57 -80 90 -116 165 -52 107 -67 170
-67 273 0 108 17 182 62 274 88 179 241 277 475 303 168 19 345 -7 480 -70
197 -93 362 -275 501 -556 61 -124 78 -165 134 -324 36 -102 54 -122 62 -69 3
18 5 256 3 528 -2 493 -2 495 -23 498 -16 2 -25 -7 -39 -38 -57 -127 -192
-161 -359 -89 -261 113 -338 138 -489 158 -89 12 -232 12 -326 0z m2714 -2551
l0 -877 -195 -3 -195 -3 0 875 0 875 60 6 c33 3 121 5 195 5 l135 -1 0 -877z"/>
</g>
</svg>
