<?xml version="1.0" standalone="no"?>
<!DOCTYPE svg PUBLIC "-//W3C//DTD SVG 20010904//EN"
 "http://www.w3.org/TR/2001/REC-SVG-20010904/DTD/svg10.dtd">
<svg version="1.0" xmlns="http://www.w3.org/2000/svg"
 width="1280.000000pt" height="720.000000pt" viewBox="0 0 1280.000000 720.000000"
 preserveAspectRatio="xMidYMid meet">
<metadata>
Created by potrace 1.16, written by Peter Selinger 2001-2019
</metadata>
<g transform="translate(0.000000,720.000000) scale(0.100000,-0.100000)"
fill="#000000" stroke="none">
<path d="M4301 5859 c-178 -23 -377 -120 -520 -253 -123 -116 -239 -309 -282
-471 -30 -115 -37 -323 -14 -436 51 -255 204 -466 446 -617 114 -72 267 -138
514 -222 361 -123 488 -178 629 -273 120 -81 226 -213 265 -330 83 -248 18
-536 -155 -690 -118 -105 -255 -155 -449 -164 -481 -21 -816 187 -1030 640
-79 169 -158 425 -198 644 -7 36 -18 68 -24 71 -15 4 -18 -150 -15 -658 1
-162 2 -391 2 -507 l0 -213 24 0 c21 0 30 11 56 64 54 114 127 151 248 127 31
-6 118 -35 192 -64 583 -231 1107 -168 1449 174 111 110 191 238 245 389 49
135 59 208 60 430 2 229 8 260 80 379 34 56 146 171 167 171 5 0 9 -319 9
-835 l0 -835 598 1 c328 0 606 4 617 9 17 7 17 9 3 9 -17 1 -18 77 -18 1318 0
1284 -1 1317 -19 1337 -49 53 -116 202 -136 304 -20 97 -25 -24 -25 -547 l0
-568 -262 -6 c-160 -4 -296 -13 -348 -22 -98 -17 -111 -18 -90 -6 23 14 136
42 220 55 l75 11 3 764 2 763 473 -5 c377 -4 493 -8 575 -21 196 -32 354 -90
483 -176 131 -89 274 -259 359 -430 70 -140 135 -379 164 -605 79 -613 15
-1225 -165 -1587 -67 -136 -107 -196 -190 -283 -167 -176 -332 -250 -626 -280
l-63 -7 0 1221 0 1221 -45 2 c-25 1 -55 2 -67 2 l-21 1 -4 -1210 c-1 -665 -5
-1222 -8 -1237 l-4 -28 240 0 c276 0 388 10 546 50 546 138 910 550 1037 1172
21 103 46 368 46 490 0 314 -70 652 -184 894 -131 274 -331 494 -571 626 -220
121 -474 190 -795 218 -92 8 -399 10 -965 8 l-830 -3 -5 -847 -5 -846 -65 -50
c-93 -70 -160 -148 -209 -241 -23 -45 -44 -81 -46 -81 -2 0 -20 30 -39 68 -70
133 -222 284 -382 383 -125 76 -248 128 -599 249 -406 141 -512 196 -650 335
-72 72 -131 168 -161 262 -24 77 -30 246 -10 323 36 145 131 280 242 345 197
115 533 122 761 16 197 -93 364 -277 501 -557 60 -120 73 -152 134 -323 34
-97 52 -119 61 -79 3 13 4 250 3 528 -2 498 -3 505 -22 508 -16 2 -25 -7 -39
-38 -35 -77 -117 -130 -200 -130 -55 1 -118 21 -264 85 -254 111 -468 146
-710 114z m2717 -2545 l-3 -886 -195 1 -195 0 -3 886 -2 885 200 0 200 0 -2
-886z"/>
<path d="M2425 1775 c-5 -2 -22 -6 -36 -9 -33 -7 -66 -36 -79 -70 -30 -80 9
-136 119 -169 80 -24 104 -45 82 -71 -18 -22 -86 -20 -138 3 l-41 19 -21 -22
c-30 -32 -27 -42 22 -71 36 -20 57 -25 116 -25 82 0 123 16 145 58 44 86 10
149 -99 182 -87 25 -95 31 -95 61 0 23 5 29 23 31 40 2 70 -3 101 -19 29 -15
31 -15 53 13 13 16 23 32 23 36 0 23 -142 66 -175 53z"/>
<path d="M4017 1767 c-88 -29 -147 -109 -147 -202 0 -98 57 -175 147 -201 65
-19 121 -13 178 19 45 26 55 50 29 78 -22 24 -30 24 -61 -1 -18 -14 -41 -20
-75 -20 -43 0 -54 4 -84 34 -58 58 -45 174 23 205 40 19 107 13 138 -10 l27
-22 26 27 c21 21 25 30 16 44 -27 45 -146 72 -217 49z"/>
<path d="M4841 1765 c-51 -16 -95 -55 -123 -109 -31 -60 -23 -157 17 -213 44
-62 91 -84 173 -84 79 0 106 8 151 46 96 82 95 241 -4 322 -37 31 -102 54
-147 52 -13 0 -43 -6 -67 -14z m150 -96 c91 -64 39 -229 -73 -229 -126 0 -173
150 -72 229 36 28 106 28 145 0z"/>
<path d="M3084 1757 c-2 -7 -3 -98 -2 -202 l3 -190 42 -3 42 -3 3 78 3 78 98
3 98 3 -3 37 -3 37 -98 3 -98 3 3 42 3 42 113 3 112 3 0 39 0 40 -155 0 c-117
0 -157 -3 -161 -13z"/>
<path d="M3556 1743 c-7 -16 -34 -77 -59 -138 -25 -60 -57 -135 -71 -165 -36
-77 -35 -82 21 -78 44 3 47 5 62 46 l15 42 83 0 83 0 22 -45 c21 -43 24 -45
65 -45 24 0 43 4 43 8 0 8 -44 117 -126 309 l-39 93 -42 0 c-36 0 -45 -4 -57
-27z"/>
<path d="M4304 1756 c-3 -8 -4 -25 -2 -38 3 -20 10 -24 63 -28 l60 -5 3 -163
3 -163 42 3 42 3 3 163 2 162 60 0 c55 0 60 2 66 25 13 53 8 55 -171 55 -134
0 -167 -3 -171 -14z"/>
<path d="M5234 1757 c-2 -7 -3 -98 -2 -202 l3 -190 39 -3 c48 -4 56 6 56 76
l0 52 33 0 c30 0 39 -7 80 -65 46 -63 48 -65 92 -65 25 0 45 4 45 9 0 5 -19
37 -42 71 l-42 61 31 25 c80 62 61 191 -33 230 -45 19 -252 20 -260 1z m231
-81 c21 -15 25 -67 7 -89 -16 -19 -120 -31 -138 -16 -14 12 -20 100 -7 112 12
13 119 7 138 -7z"/>
<path d="M5870 1566 l0 -206 93 0 c146 0 214 29 255 110 34 69 31 145 -10 206
-48 72 -88 88 -225 92 l-113 4 0 -206z m220 109 c55 -28 77 -113 45 -174 -19
-37 -74 -63 -128 -59 l-42 3 -3 123 -3 122 51 0 c28 0 64 -7 80 -15z"/>
<path d="M6475 1762 c-12 -8 -165 -371 -165 -390 0 -7 16 -12 40 -12 37 0 40
3 59 45 l20 45 84 0 84 0 19 -42 c18 -40 22 -43 62 -46 23 -2 42 0 42 4 0 10
-128 320 -151 367 -17 31 -24 37 -52 37 -17 0 -37 -4 -42 -8z"/>
<path d="M6817 1763 c-4 -3 -7 -96 -7 -205 l0 -199 38 3 37 3 3 118 c2 84 6
117 15 117 7 0 54 -54 106 -120 87 -111 96 -120 128 -120 l33 0 -2 203 -3 202
-35 0 -35 0 -3 -117 c-1 -65 -7 -118 -11 -118 -11 0 -47 42 -121 140 -30 40
-61 79 -68 86 -14 14 -63 19 -75 7z"/>
<path d="M7401 1755 c-97 -43 -147 -172 -106 -273 34 -81 101 -122 197 -122
106 0 179 59 130 103 -18 16 -20 16 -47 -5 -22 -17 -41 -22 -84 -22 -50 1 -58
5 -88 37 -27 31 -33 45 -33 83 0 63 24 109 67 129 40 19 99 15 137 -10 21 -14
25 -14 46 3 30 25 22 46 -29 72 -48 24 -139 26 -190 5z"/>
<path d="M7878 1763 l-128 -4 0 -194 0 -194 33 -6 c17 -3 86 -5 152 -3 l120 3
0 35 0 35 -107 3 c-104 3 -108 3 -114 27 -14 55 -6 60 94 63 88 3 92 4 98 27
10 39 -2 45 -96 45 -86 0 -90 1 -96 24 -14 57 -8 61 111 66 l110 5 3 29 c4 30
-11 47 -38 44 -8 -1 -72 -4 -142 -5z"/>
<path d="M8467 1756 c-138 -51 -172 -245 -60 -347 55 -51 154 -64 230 -30 54
25 69 52 42 76 -19 18 -21 18 -58 -3 -69 -39 -136 -25 -178 37 -42 62 -22 166
38 196 38 20 104 19 140 -2 56 -33 90 21 38 59 -35 26 -139 34 -192 14z"/>
<path d="M8810 1565 l0 -195 40 0 39 0 3 63 3 62 41 3 c41 3 42 2 82 -62 38
-61 44 -66 77 -66 19 0 35 3 35 7 0 4 -16 34 -36 66 l-36 58 39 33 c36 32 38
37 38 94 0 104 -45 132 -215 132 l-110 0 0 -195z m228 119 c16 -11 22 -25 22
-54 0 -53 -26 -70 -107 -70 l-63 0 0 63 c0 35 3 67 7 70 13 14 118 7 141 -9z"/>
<path d="M9269 1723 c-4 -162 -3 -321 3 -335 7 -16 23 -18 148 -18 l140 0 0
31 0 30 -106 -2 c-59 -1 -110 3 -115 8 -6 6 -9 30 -7 54 l3 44 93 3 c90 3 92
3 92 27 0 25 -2 25 -82 25 -46 0 -89 4 -96 9 -9 5 -12 24 -10 52 l3 44 113 3
113 3 -3 27 -3 27 -142 3 -143 3 -1 -38z"/>
<path d="M9660 1741 c0 -16 11 -58 27 -101 3 -8 24 -69 47 -135 40 -117 42
-120 72 -123 36 -3 33 -7 88 153 19 55 40 100 46 100 14 0 32 -48 84 -220 10
-31 18 -41 38 -43 33 -4 42 9 67 95 16 54 19 78 11 92 -13 25 -13 61 0 61 6 0
10 9 10 19 0 13 5 18 18 14 13 -3 22 6 35 35 22 50 23 80 2 62 -10 -9 -15 -9
-15 -1 0 21 -21 11 -31 -16 -23 -57 -48 -161 -46 -186 1 -14 -1 -25 -5 -24 -4
1 -15 -9 -24 -21 -10 -14 -20 -20 -25 -15 -8 8 -99 257 -99 270 0 2 -9 -1 -20
-7 -11 -6 -20 -17 -20 -25 0 -7 -4 -15 -8 -17 -8 -3 -62 -123 -62 -137 0 -5
-7 -26 -16 -47 -15 -36 -17 -37 -30 -20 -7 11 -20 42 -29 70 -58 186 -58 186
-87 186 -21 0 -28 -5 -28 -19z"/>
</g>
</svg>
