<?xml version="1.0" standalone="no"?>
<!DOCTYPE svg PUBLIC "-//W3C//DTD SVG 20010904//EN"
 "http://www.w3.org/TR/2001/REC-SVG-20010904/DTD/svg10.dtd">
<svg version="1.0" xmlns="http://www.w3.org/2000/svg"
 width="1280.000000pt" height="720.000000pt" viewBox="0 0 1280.000000 720.000000"
 preserveAspectRatio="xMidYMid meet">
<metadata>
Created by potrace 1.16, written by Peter Selinger 2001-2019
</metadata>
<g transform="translate(0.000000,720.000000) scale(0.100000,-0.100000)"
fill="#000000" stroke="none">
<path d="M4301 5859 c-178 -23 -377 -120 -520 -253 -123 -116 -239 -309 -282
-471 -30 -115 -37 -323 -14 -436 18 -89 69 -224 109 -287 41 -65 142 -185 188
-223 156 -129 335 -218 658 -327 528 -178 709 -283 841 -485 157 -242 112
-624 -97 -810 -118 -105 -255 -155 -449 -164 -481 -21 -816 187 -1030 640 -79
169 -158 425 -198 644 -7 36 -18 68 -24 71 -15 4 -18 -150 -15 -658 1 -162 2
-391 2 -507 l0 -213 24 0 c21 0 30 11 56 64 54 114 127 151 248 127 31 -6 120
-36 197 -66 578 -229 1103 -165 1444 176 111 110 191 238 245 389 51 141 59
199 61 425 1 234 8 267 80 385 33 55 145 170 166 170 5 0 9 -319 9 -835 l0
-835 598 1 c328 0 606 4 617 9 17 7 17 9 3 9 -17 1 -18 77 -18 1318 0 1284 -1
1317 -19 1337 -49 53 -116 202 -136 304 -20 97 -25 -24 -25 -547 l0 -568 -257
-6 c-165 -4 -292 -11 -352 -22 -52 -8 -96 -13 -98 -11 -10 10 188 58 277 68
l25 3 3 763 2 764 473 -5 c379 -3 492 -8 575 -21 197 -32 355 -90 483 -176
131 -89 274 -259 359 -430 232 -463 265 -1461 67 -2035 -95 -274 -266 -497
-468 -608 -101 -55 -247 -95 -416 -112 l-63 -7 0 1221 0 1221 -40 2 c-22 1
-52 2 -66 2 l-26 1 -4 -1215 c-3 -668 -7 -1226 -10 -1239 l-5 -24 303 6 c331
6 407 16 591 78 503 168 849 609 941 1199 76 488 23 964 -148 1326 -98 205
-237 383 -403 516 -174 138 -437 247 -718 297 -217 38 -345 42 -1210 39 l-830
-3 -5 -847 -5 -846 -50 -38 c-114 -85 -183 -165 -237 -276 -15 -32 -30 -58
-32 -58 -2 0 -22 33 -44 73 -77 139 -217 280 -377 377 -126 77 -246 127 -600
250 -406 141 -512 196 -650 335 -72 72 -131 168 -161 262 -24 77 -30 246 -10
323 36 145 131 280 242 345 164 96 446 120 660 54 134 -41 220 -94 329 -204
170 -170 287 -371 391 -674 43 -124 57 -151 71 -137 5 4 8 242 7 529 0 516 0
522 -20 525 -16 2 -25 -7 -39 -38 -35 -77 -117 -130 -200 -130 -55 1 -118 21
-264 85 -254 111 -468 146 -710 114z m2717 -2545 l-3 -886 -195 1 -195 0 -3
886 -2 885 200 0 200 0 -2 -886z"/>
<path d="M2425 1776 c-5 -3 -22 -7 -36 -10 -33 -7 -66 -36 -79 -70 -30 -80 9
-136 119 -169 80 -24 104 -45 82 -71 -18 -22 -86 -20 -138 3 l-41 19 -21 -22
c-30 -32 -27 -42 22 -71 36 -20 57 -25 116 -25 82 0 123 16 145 58 44 86 10
149 -99 182 -87 25 -95 31 -95 61 0 23 5 29 23 31 40 2 70 -3 101 -19 29 -15
31 -15 53 13 13 16 23 32 23 36 0 23 -141 67 -175 54z"/>
<path d="M4017 1767 c-88 -29 -147 -109 -147 -202 0 -98 57 -175 147 -201 65
-19 121 -13 178 19 45 26 55 50 29 78 -22 24 -30 24 -61 -1 -18 -14 -41 -20
-75 -20 -43 0 -54 4 -84 34 -58 58 -45 174 23 205 40 19 107 13 138 -10 l27
-22 26 27 c21 21 25 30 16 44 -27 45 -146 72 -217 49z"/>
<path d="M4841 1765 c-51 -16 -95 -55 -123 -109 -31 -60 -23 -157 17 -213 44
-62 94 -86 174 -86 75 1 104 10 150 48 46 39 71 94 71 158 0 153 -138 249
-289 202z m153 -100 c36 -33 49 -72 41 -122 -12 -85 -111 -130 -186 -86 -107
63 -55 233 71 233 36 0 53 -6 74 -25z"/>
<path d="M7433 1771 c-58 -15 -117 -64 -139 -117 -8 -18 -14 -60 -14 -92 0
-80 31 -137 94 -177 80 -49 204 -38 259 23 15 16 16 25 8 40 -16 30 -38 33
-74 12 -36 -23 -100 -26 -137 -7 -90 45 -69 210 29 237 41 11 56 8 108 -18 31
-16 33 -15 57 7 31 29 24 46 -26 72 -45 23 -118 32 -165 20z"/>
<path d="M8480 1768 c-54 -15 -100 -56 -126 -112 -42 -90 -27 -177 41 -242 68
-66 166 -78 257 -33 53 27 63 51 34 78 -27 26 -30 26 -64 2 -71 -52 -172 -13
-192 72 -11 49 4 103 37 133 32 30 110 33 154 7 32 -19 53 -13 73 21 16 25
-30 61 -94 75 -59 13 -73 13 -120 -1z"/>
<path d="M3084 1757 c-2 -7 -3 -98 -2 -202 l3 -190 42 -3 42 -3 3 78 3 78 98
3 98 3 -3 37 -3 37 -98 3 -98 3 3 42 3 42 113 3 112 3 0 39 0 40 -155 0 c-117
0 -157 -3 -161 -13z"/>
<path d="M3556 1743 c-7 -16 -34 -77 -59 -138 -25 -60 -57 -135 -71 -165 -36
-77 -35 -82 21 -78 44 3 47 5 62 46 l15 42 83 0 83 0 22 -45 c21 -43 24 -45
65 -45 24 0 43 4 43 8 0 8 -44 117 -126 309 l-39 93 -42 0 c-36 0 -45 -4 -57
-27z"/>
<path d="M4304 1756 c-3 -8 -4 -25 -2 -38 3 -20 10 -24 63 -28 l60 -5 3 -163
3 -163 42 3 42 3 3 163 2 162 60 0 c55 0 60 2 66 25 13 53 8 55 -171 55 -134
0 -167 -3 -171 -14z"/>
<path d="M5234 1757 c-2 -7 -3 -98 -2 -202 l3 -190 45 0 45 0 5 60 c5 58 6 60
36 63 26 3 35 -3 59 -40 53 -79 65 -88 112 -88 24 0 43 4 43 9 0 5 -19 37 -41
70 l-42 60 31 26 c78 66 60 192 -34 231 -45 19 -252 20 -260 1z m232 -92 c18
-19 23 -31 19 -48 -11 -36 -27 -45 -88 -50 -69 -6 -80 7 -71 77 l7 46 54 0
c44 0 58 -4 79 -25z"/>
<path d="M5870 1564 l0 -206 119 3 c114 4 121 5 163 34 67 48 89 95 86 182 -3
62 -7 76 -34 110 -52 65 -101 83 -226 83 l-108 0 0 -206z m208 115 c46 -16 76
-69 69 -125 -8 -73 -73 -121 -152 -112 l-30 3 -3 123 -3 122 44 0 c24 0 58 -5
75 -11z"/>
<path d="M6463 1753 c-3 -10 -17 -43 -31 -73 -66 -149 -129 -309 -124 -314 3
-3 23 -6 44 -6 36 0 40 3 58 45 l19 45 81 0 81 0 20 -45 c19 -44 21 -45 66
-45 38 0 45 3 41 18 -3 9 -40 101 -83 205 l-77 187 -44 0 c-33 0 -46 -4 -51
-17z"/>
<path d="M6809 1768 c0 -4 -1 -382 0 -396 1 -9 14 -12 44 -10 l42 3 3 118 c1
64 6 117 10 117 4 0 18 -17 32 -37 14 -21 56 -75 94 -121 65 -79 70 -83 105
-80 35 3 36 4 36 46 -1 23 -2 114 -3 202 l-2 160 -40 0 c-31 0 -40 -4 -40 -17
-2 -94 -9 -215 -13 -219 -2 -3 -46 50 -97 116 -90 117 -93 120 -131 120 -22 0
-39 -1 -40 -2z"/>
<path d="M7750 1565 l0 -205 155 0 155 0 0 40 0 40 -110 0 -110 0 0 45 0 45
95 0 95 0 0 35 0 34 -92 3 -93 3 -3 43 -3 42 111 0 111 0 -3 38 -3 37 -152 3
-153 3 0 -206z"/>
<path d="M8810 1749 c0 -13 -1 -105 -2 -204 l-3 -180 45 0 45 0 1 50 c1 78 0
77 41 73 33 -3 42 -10 78 -63 40 -58 43 -60 88 -63 26 -2 47 0 47 4 0 4 -19
36 -41 71 l-41 63 26 21 c56 44 72 118 36 176 -35 58 -61 68 -197 72 l-123 3
0 -23z m230 -79 c27 -27 26 -66 -4 -85 -17 -11 -42 -15 -83 -13 -52 3 -58 5
-61 27 -2 13 -1 39 3 57 l6 34 59 0 c47 0 64 -4 80 -20z"/>
<path d="M9262 1568 l3 -203 150 0 150 0 0 35 0 35 -110 5 -110 5 0 40 0 40
93 3 92 3 0 34 0 34 -92 3 -93 3 0 40 0 40 108 3 107 3 0 39 0 40 -150 0 -150
0 2 -202z"/>
<path d="M9645 1743 c10 -41 114 -346 124 -363 4 -8 22 -16 39 -18 37 -4 40 1
87 139 19 56 37 104 40 108 10 9 20 -14 55 -122 18 -56 37 -108 43 -114 5 -7
22 -13 38 -13 15 0 31 6 36 13 16 26 132 380 127 388 -8 13 -72 11 -80 -2 -4
-6 -19 -53 -34 -103 -34 -111 -49 -150 -55 -144 -3 3 -24 61 -48 129 l-43 124
-34 0 -35 0 -41 -123 c-23 -67 -45 -124 -49 -125 -5 -1 -26 54 -49 123 l-41
125 -44 3 c-43 3 -43 3 -36 -25z"/>
</g>
</svg>
