<?xml version="1.0" standalone="no"?>
<!DOCTYPE svg PUBLIC "-//W3C//DTD SVG 20010904//EN"
 "http://www.w3.org/TR/2001/REC-SVG-20010904/DTD/svg10.dtd">
<svg version="1.0" xmlns="http://www.w3.org/2000/svg"
 width="1280.000000pt" height="720.000000pt" viewBox="0 0 1280.000000 720.000000"
 preserveAspectRatio="xMidYMid meet">
<metadata>
Created by potrace 1.16, written by Peter Selinger 2001-2019
</metadata>
<g transform="translate(0.000000,720.000000) scale(0.100000,-0.100000)"
fill="#000000" stroke="none">
<path d="M4301 5859 c-177 -23 -378 -121 -520 -253 -124 -116 -238 -308 -282
-472 -30 -112 -37 -323 -15 -431 52 -256 205 -470 447 -622 114 -71 270 -138
511 -220 295 -100 376 -131 484 -187 277 -141 415 -316 443 -560 23 -213 -40
-405 -175 -534 -122 -116 -251 -166 -455 -177 -325 -17 -587 76 -788 279 -207
208 -351 536 -444 1007 -14 74 -32 90 -38 34 -5 -43 -5 -363 -1 -945 l2 -398
25 0 c21 0 29 10 53 63 51 111 132 154 247 129 28 -5 116 -35 196 -66 267
-104 491 -144 734 -133 443 20 813 289 959 697 49 135 59 201 61 405 2 198 6
219 54 313 40 78 166 202 205 202 9 0 16 3 16 8 0 14 173 83 215 85 11 0 22 4
25 7 8 11 161 48 225 55 33 4 85 13 115 22 39 11 107 16 235 17 l180 1 0 -877
0 -877 -195 -3 -195 -3 -7 735 c-4 404 -10 754 -13 778 l-6 42 -80 0 c-64 0
-79 -3 -79 -15 0 -8 -4 -15 -10 -15 -5 0 -10 -4 -10 -10 0 -5 -8 -19 -17 -30
-14 -16 -29 -20 -73 -19 -79 1 -124 19 -128 52 -3 24 -7 26 -70 29 -37 2 -73
2 -79 0 -8 -3 -14 -26 -15 -61 l-1 -56 -6 65 c-13 134 -22 -221 -24 -880 l-2
-655 810 0 810 0 3 868 c1 477 5 867 10 867 4 0 57 -9 117 -21 217 -41 675
-163 840 -225 39 -14 114 -41 168 -60 53 -19 154 -59 223 -89 124 -54 178 -68
92 -24 -346 179 -700 320 -1053 419 -60 17 -132 37 -160 45 -27 8 -90 23 -140
33 l-90 19 -3 316 -2 317 -33 0 c-118 1 -268 63 -362 152 -96 90 -164 215
-189 352 -19 104 -26 -15 -28 -514 l-3 -534 -255 -2 c-140 -1 -266 -4 -280 -7
-14 -3 -61 -11 -105 -17 -44 -7 -96 -18 -115 -25 -19 -7 -53 -18 -75 -24 -22
-7 -55 -19 -73 -28 -18 -8 -45 -16 -60 -17 -14 -2 -28 -8 -30 -15 -2 -6 -37
-36 -77 -66 -101 -76 -183 -167 -228 -253 -21 -40 -40 -72 -42 -72 -2 0 -23
32 -45 71 -86 147 -220 276 -390 377 -120 71 -260 130 -525 222 -463 160 -566
211 -711 355 -116 115 -184 277 -184 435 0 112 16 185 62 278 108 220 341 329
653 306 353 -26 600 -219 803 -629 60 -121 73 -154 134 -324 36 -102 54 -122
62 -69 3 18 5 256 3 528 -2 493 -2 495 -23 498 -16 2 -25 -7 -39 -38 -57 -127
-192 -161 -359 -89 -261 113 -338 138 -489 158 -89 12 -232 12 -326 0z"/>
</g>
</svg>
