<?xml version="1.0" standalone="no"?>
<!DOCTYPE svg PUBLIC "-//W3C//DTD SVG 20010904//EN"
 "http://www.w3.org/TR/2001/REC-SVG-20010904/DTD/svg10.dtd">
<svg version="1.0" xmlns="http://www.w3.org/2000/svg"
 width="1280.000000pt" height="720.000000pt" viewBox="0 0 1280.000000 720.000000"
 preserveAspectRatio="xMidYMid meet">
<metadata>
Created by potrace 1.16, written by Peter Selinger 2001-2019
</metadata>
<g transform="translate(0.000000,720.000000) scale(0.100000,-0.100000)"
fill="#000000" stroke="none">
<path d="M4296 5859 c-243 -32 -496 -191 -649 -410 -114 -162 -166 -322 -174
-530 -6 -160 10 -258 63 -387 41 -99 62 -134 142 -232 147 -182 348 -298 762
-438 288 -98 351 -122 457 -174 352 -170 512 -419 473 -735 -26 -209 -116
-355 -282 -456 -100 -60 -201 -87 -353 -94 -405 -18 -700 123 -915 438 -124
181 -227 446 -294 758 -30 144 -48 188 -57 144 -4 -19 -4 -240 -1 -950 l2
-413 24 0 c21 0 30 11 56 64 75 158 169 171 443 62 576 -230 1098 -168 1441
171 148 146 245 323 293 541 13 59 18 126 18 282 1 194 2 208 26 270 14 36 42
90 62 121 38 58 138 159 156 159 8 0 11 -254 11 -835 l0 -835 601 2 602 3 -4
565 c-2 311 -4 907 -4 1325 l0 760 -26 35 c-58 77 -103 182 -124 288 -20 97
-25 -24 -25 -547 l0 -568 -262 -7 c-241 -6 -296 -10 -413 -31 -26 -5 -37 -4
-30 2 12 12 165 50 245 61 l55 7 3 764 2 763 473 -5 c509 -5 579 -10 762 -63
180 -52 311 -128 435 -253 205 -207 331 -505 384 -911 32 -246 47 -673 24
-696 -4 -3 -46 10 -95 29 -240 95 -689 226 -883 258 -41 7 -79 15 -84 20 -4 4
-7 153 -7 332 1 179 -2 327 -6 330 -4 3 -34 7 -65 8 l-58 4 -5 -1220 c-3 -671
-8 -1228 -11 -1237 -5 -17 11 -18 236 -18 277 0 389 10 547 50 430 109 759
397 933 820 104 252 159 595 146 920 -17 449 -124 793 -337 1081 -65 87 -228
243 -315 301 -204 135 -449 221 -757 266 -109 15 -219 17 -1027 17 l-905 0 -3
-847 -2 -846 -51 -37 c-113 -81 -202 -185 -247 -287 -12 -27 -23 -48 -26 -48
-3 0 -21 30 -41 68 -74 141 -218 283 -393 390 -113 68 -250 125 -557 232 -294
103 -367 132 -455 178 -87 46 -201 133 -256 196 -59 68 -122 190 -139 274 -19
88 -19 213 0 287 35 139 133 277 242 341 154 90 413 116 623 63 264 -68 470
-263 638 -605 60 -120 73 -152 134 -323 35 -99 53 -121 62 -74 3 15 4 253 2
528 -2 493 -2 500 -22 503 -16 2 -25 -7 -39 -38 -35 -77 -116 -130 -200 -130
-48 0 -133 25 -215 63 -180 84 -280 116 -433 136 -91 13 -232 12 -331 0z
m2719 -2542 l0 -888 -195 0 -195 0 -3 885 -2 885 132 4 c73 2 162 3 198 3 l65
-1 0 -888z m832 782 c203 -45 535 -141 728 -211 l120 -44 -2 -84 c-5 -187 -59
-468 -124 -642 -111 -301 -289 -514 -519 -620 -31 -14 -94 -35 -140 -46 -88
-22 -267 -48 -275 -40 -3 3 -8 1641 -5 1721 0 12 21 9 217 -34z"/>
</g>
</svg>
