<?xml version="1.0" standalone="no"?>
<!DOCTYPE svg PUBLIC "-//W3C//DTD SVG 20010904//EN"
 "http://www.w3.org/TR/2001/REC-SVG-20010904/DTD/svg10.dtd">
<svg version="1.0" xmlns="http://www.w3.org/2000/svg"
 width="1280.000000pt" height="720.000000pt" viewBox="0 0 1280.000000 720.000000"
 preserveAspectRatio="xMidYMid meet">
<metadata>
Created by potrace 1.16, written by Peter Selinger 2001-2019
</metadata>
<g transform="translate(0.000000,720.000000) scale(0.100000,-0.100000)"
fill="#000000" stroke="none">
<path d="M11349 3778 c-9 -7 -19 -25 -23 -39 -18 -80 -216 -132 -666 -175
-341 -33 -1313 -25 -2045 15 -110 6 -290 16 -400 21 -110 6 -283 15 -385 20
-1166 62 -1653 75 -2580 74 -752 -1 -1265 -21 -1720 -65 -52 -5 -153 -14 -225
-19 -71 -6 -182 -17 -245 -25 -63 -8 -137 -16 -165 -19 -211 -23 -327 -40
-560 -81 -229 -40 -367 -77 -396 -106 -13 -13 -19 -30 -17 -47 3 -27 3 -27 83
-25 52 1 71 -1 54 -6 -65 -21 -102 -46 -115 -78 -8 -18 -19 -33 -24 -33 -6 0
-10 -4 -10 -9 0 -20 161 -18 243 3 84 20 230 52 357 76 58 11 128 25 155 30
405 78 1268 177 1845 210 96 5 245 14 330 20 722 46 1853 35 3200 -30 198 -10
344 -16 970 -41 289 -12 1138 -18 1395 -10 179 5 486 35 628 60 246 44 377
114 377 201 0 21 -9 46 -23 63 -19 24 -24 26 -38 15z"/>
</g>
</svg>
