<?xml version="1.0" standalone="no"?>
<!DOCTYPE svg PUBLIC "-//W3C//DTD SVG 20010904//EN"
 "http://www.w3.org/TR/2001/REC-SVG-20010904/DTD/svg10.dtd">
<svg version="1.0" xmlns="http://www.w3.org/2000/svg"
 width="1280.000000pt" height="720.000000pt" viewBox="0 0 1280.000000 720.000000"
 preserveAspectRatio="xMidYMid meet">
<metadata>
Created by potrace 1.16, written by Peter Selinger 2001-2019
</metadata>
<g transform="translate(0.000000,720.000000) scale(0.100000,-0.100000)"
fill="#000000" stroke="none">
<path d="M9261 4196 c2 -2 74 -11 159 -20 809 -88 1365 -199 1684 -335 61 -27
156 -88 156 -101 0 -16 -100 -57 -203 -84 -107 -28 -353 -61 -610 -82 -113 -9
-381 -17 -707 -21 -605 -7 -871 1 -1980 57 -190 10 -427 19 -955 40 -143 6
-604 9 -1025 8 -735 -2 -739 -5 -22 -17 47 0 82 -5 82 -11 0 -6 -42 -10 -105
-10 -57 0 -182 -4 -277 -10 -95 -5 -321 -17 -503 -25 -994 -47 -2079 -158
-2850 -291 -49 -9 -103 -18 -120 -21 -16 -2 -77 -18 -135 -35 -58 -16 -123
-34 -145 -39 -72 -18 -338 -98 -410 -123 -159 -56 -193 -69 -267 -108 -43 -23
-78 -42 -78 -43 0 -2 46 7 103 20 56 12 174 39 262 58 88 20 210 43 270 52 61
9 191 29 290 45 99 16 286 45 415 65 129 19 278 42 330 50 105 16 496 70 575
79 761 86 1270 132 1910 171 534 33 1890 47 2445 25 135 -5 355 -14 490 -20
1660 -68 2287 -71 2835 -15 187 19 272 37 407 87 59 21 128 75 144 113 69 165
-84 266 -571 375 -341 76 -697 125 -1109 155 -189 14 -495 21 -485 11z"/>
</g>
</svg>
