<?xml version="1.0" standalone="no"?>
<!DOCTYPE svg PUBLIC "-//W3C//DTD SVG 20010904//EN"
 "http://www.w3.org/TR/2001/REC-SVG-20010904/DTD/svg10.dtd">
<svg version="1.0" xmlns="http://www.w3.org/2000/svg"
 width="1280.000000pt" height="720.000000pt" viewBox="0 0 1280.000000 720.000000"
 preserveAspectRatio="xMidYMid meet">
<metadata>
Created by potrace 1.16, written by Peter Selinger 2001-2019
</metadata>
<g transform="translate(0.000000,720.000000) scale(0.100000,-0.100000)"
fill="#000000" stroke="none">
<path d="M4308 5860 c-370 -44 -704 -343 -810 -728 -18 -63 -22 -106 -22 -242
-1 -183 6 -226 61 -359 95 -232 273 -403 563 -540 82 -38 406 -155 610 -221
14 -4 68 -27 120 -50 374 -165 544 -380 543 -685 0 -182 -58 -337 -163 -443
-133 -132 -300 -192 -538 -192 -108 0 -266 23 -352 51 -409 135 -675 531 -805
1200 -10 48 -21 92 -25 99 -26 42 -29 -17 -25 -503 2 -276 4 -584 5 -684 l0
-183 24 0 c20 0 30 12 58 67 44 89 88 123 164 130 64 5 113 -8 316 -86 334
-128 676 -155 955 -75 334 95 599 350 706 679 46 141 60 251 53 420 -7 143 -6
154 18 231 14 44 43 107 64 140 37 56 143 164 163 164 5 0 9 -334 9 -836 l0
-835 1043 4 c1038 3 1042 3 1142 26 575 129 941 493 1094 1084 37 141 71 426
71 590 0 238 -41 510 -109 716 -79 241 -186 417 -356 587 -202 202 -390 305
-703 383 -260 66 -263 66 -1267 66 l-910 0 -5 -847 -5 -846 -76 -60 c-97 -76
-149 -138 -200 -234 -22 -43 -42 -78 -44 -78 -2 0 -16 25 -32 56 -15 31 -56
92 -91 135 -175 219 -405 349 -897 509 -334 108 -510 198 -639 323 -81 80
-131 158 -167 263 -32 92 -35 288 -5 374 45 134 129 245 230 304 215 126 551
125 802 -2 226 -114 424 -390 571 -797 57 -158 68 -179 82 -156 5 8 8 246 7
530 -1 514 -1 516 -22 519 -16 2 -25 -7 -39 -38 -24 -54 -84 -106 -136 -120
-82 -22 -148 -5 -384 98 -199 87 -418 118 -647 92z m3227 -71 c396 -34 663
-164 847 -412 134 -182 208 -360 263 -636 83 -416 81 -1009 -6 -1381 -50 -215
-119 -390 -210 -530 -58 -88 -219 -246 -299 -293 -36 -21 -107 -51 -158 -67
-85 -28 -257 -60 -317 -60 l-25 0 0 1220 0 1220 -34 0 c-53 0 -172 27 -215 50
-179 91 -294 248 -336 458 -19 93 -25 -31 -27 -548 l-3 -565 -250 -7 c-224 -5
-312 -13 -425 -34 -24 -5 -32 -3 -25 4 10 10 211 58 270 64 l30 3 3 763 2 762
398 0 c218 0 451 -5 517 -11z m-515 -2474 l0 -885 -57 0 c-32 -1 -121 -2 -198
-3 l-140 -2 -3 875 c-1 481 0 881 3 888 3 9 53 12 200 12 l195 0 0 -885z"/>
</g>
</svg>
