<?xml version="1.0" standalone="no"?>
<!DOCTYPE svg PUBLIC "-//W3C//DTD SVG 20010904//EN"
 "http://www.w3.org/TR/2001/REC-SVG-20010904/DTD/svg10.dtd">
<svg version="1.0" xmlns="http://www.w3.org/2000/svg"
 width="1280.000000pt" height="720.000000pt" viewBox="0 0 1280.000000 720.000000"
 preserveAspectRatio="xMidYMid meet">
<metadata>
Created by potrace 1.16, written by Peter Selinger 2001-2019
</metadata>
<g transform="translate(0.000000,720.000000) scale(0.100000,-0.100000)"
fill="#000000" stroke="none">
<path d="M10914 3955 c11 -8 24 -15 30 -15 18 0 290 -109 324 -130 29 -18 72
-73 72 -92 0 -4 -13 -22 -30 -41 -24 -28 -50 -40 -157 -75 -142 -45 -199 -57
-353 -72 -58 -6 -143 -16 -190 -22 -122 -15 -926 -22 -1175 -9 -115 6 -354 17
-530 25 -176 9 -448 22 -605 31 -561 31 -712 36 -1220 41 -323 4 -612 2 -775
-6 -293 -12 -551 -13 -575 0 -9 5 -43 6 -75 4 -33 -3 -166 -9 -295 -14 -140
-5 -261 -15 -300 -23 -36 -9 -166 -20 -290 -27 -296 -15 -925 -57 -1037 -70
-48 -5 -149 -14 -223 -20 -131 -11 -354 -33 -435 -44 -36 -5 -155 -19 -418
-47 -49 -5 -148 -18 -220 -29 -73 -11 -189 -27 -258 -35 -69 -8 -188 -26 -265
-40 -76 -13 -206 -36 -289 -51 -168 -29 -492 -108 -632 -154 -231 -75 -353
-173 -353 -285 0 -101 102 -175 296 -214 151 -31 468 -62 824 -81 173 -10 444
-12 425 -4 -5 2 -68 12 -140 23 -71 11 -204 31 -295 45 -91 14 -212 33 -270
42 -330 50 -618 127 -634 169 -15 41 258 146 581 224 170 42 650 134 918 176
127 20 241 39 255 41 14 2 79 11 145 19 66 9 149 19 185 24 299 41 420 56 516
65 47 5 174 20 379 45 44 6 143 15 220 21 77 6 176 15 220 20 44 5 143 13 220
19 77 6 223 18 325 27 102 9 257 16 345 16 247 0 578 18 590 33 7 9 50 15 120
18 836 39 1902 38 2810 -3 584 -26 901 -35 1250 -35 618 0 813 16 1180 96 22
5 56 12 75 15 44 8 125 53 168 94 26 25 32 39 32 72 0 36 -6 47 -44 82 -47 44
-164 112 -206 119 -14 3 -43 8 -65 12 -22 4 -52 14 -67 21 -15 8 -44 14 -65
14 -36 -1 -37 -2 -19 -15z"/>
<path d="M5396 3068 c-3 -7 -7 -49 -10 -93 -3 -44 -11 -96 -17 -115 -66 -195
-157 -310 -306 -386 -102 -51 -71 -61 40 -13 95 41 252 147 315 212 75 77 160
196 199 280 21 45 30 87 18 87 -12 0 -43 -34 -39 -42 3 -5 -34 -7 -83 -6 l-88
3 -3 43 c-3 40 -18 57 -26 30z"/>
</g>
</svg>
