<?xml version="1.0" standalone="no"?>
<!DOCTYPE svg PUBLIC "-//W3C//DTD SVG 20010904//EN"
 "http://www.w3.org/TR/2001/REC-SVG-20010904/DTD/svg10.dtd">
<svg version="1.0" xmlns="http://www.w3.org/2000/svg"
 width="1280.000000pt" height="720.000000pt" viewBox="0 0 1280.000000 720.000000"
 preserveAspectRatio="xMidYMid meet">
<metadata>
Created by potrace 1.16, written by Peter Selinger 2001-2019
</metadata>
<g transform="translate(0.000000,720.000000) scale(0.100000,-0.100000)"
fill="#000000" stroke="none">
<path d="M4301 5859 c-310 -40 -595 -256 -741 -560 -59 -125 -81 -221 -87
-380 -6 -160 10 -258 63 -387 41 -99 62 -134 142 -232 147 -182 348 -298 762
-438 288 -98 351 -122 457 -174 352 -170 510 -416 472 -731 -14 -120 -40 -200
-87 -273 -97 -150 -255 -246 -447 -274 -154 -22 -377 -4 -515 41 -396 130
-658 508 -791 1141 -31 145 -42 179 -54 166 -7 -6 -10 -441 -7 -965 l2 -413
24 0 c21 0 30 11 56 64 54 114 127 151 248 127 31 -6 118 -35 192 -64 573
-227 1090 -170 1429 157 129 125 204 238 261 395 55 149 64 216 65 441 1 224
5 246 68 360 33 58 154 190 175 190 9 0 12 -188 12 -835 l0 -835 980 0 c634 0
1015 4 1077 11 128 14 301 59 410 105 481 206 775 631 860 1244 21 156 24 500
5 650 -56 436 -205 765 -459 1011 -105 102 -171 152 -279 211 -189 104 -390
167 -657 205 -109 16 -218 18 -1027 18 l-905 0 -3 -847 -2 -846 -52 -37 c-115
-83 -199 -181 -246 -287 -11 -27 -23 -48 -26 -48 -2 0 -17 25 -33 56 -40 81
-146 208 -233 282 -156 131 -320 212 -695 342 -399 137 -494 180 -623 278 -94
71 -153 139 -202 233 -56 108 -73 190 -67 319 10 198 90 345 241 446 148 98
417 129 636 73 153 -39 275 -113 391 -236 151 -161 265 -364 365 -652 47 -134
59 -155 73 -132 5 8 8 246 8 530 -2 514 -2 516 -23 519 -16 2 -25 -7 -39 -38
-35 -77 -116 -130 -200 -130 -48 0 -133 25 -215 63 -180 84 -280 116 -433 136
-89 12 -232 12 -326 0z m3364 -83 c279 -46 465 -133 625 -295 206 -207 331
-505 384 -913 31 -236 46 -671 24 -693 -2 -2 -76 22 -164 54 -287 105 -570
187 -818 235 -43 9 -80 16 -82 16 -2 0 -4 151 -4 335 l0 335 -37 0 c-221 1
-440 169 -517 397 -13 37 -26 85 -30 107 -20 105 -26 -17 -28 -544 l-3 -565
-245 -6 c-220 -6 -321 -14 -430 -35 -23 -4 -32 -3 -25 3 12 12 165 50 245 61
l55 7 3 764 2 763 473 -5 c374 -3 493 -8 572 -21z m-647 -2461 l-3 -886 -195
0 -195 0 -3 886 -2 885 200 0 200 0 -2 -885z m837 780 c238 -50 600 -158 818
-244 33 -13 33 -22 12 -206 -54 -461 -182 -775 -401 -986 -104 -99 -211 -162
-344 -200 -62 -18 -245 -49 -289 -49 l-21 0 0 866 0 866 28 -6 c15 -3 104 -21
197 -41z"/>
</g>
</svg>
