<?xml version="1.0" standalone="no"?>
<!DOCTYPE svg PUBLIC "-//W3C//DTD SVG 20010904//EN"
 "http://www.w3.org/TR/2001/REC-SVG-20010904/DTD/svg10.dtd">
<svg version="1.0" xmlns="http://www.w3.org/2000/svg"
 width="1280.000000pt" height="720.000000pt" viewBox="0 0 1280.000000 720.000000"
 preserveAspectRatio="xMidYMid meet">
<metadata>
Created by potrace 1.16, written by Peter Selinger 2001-2019
</metadata>
<g transform="translate(0.000000,720.000000) scale(0.100000,-0.100000)"
fill="#000000" stroke="none">
<path d="M4301 5859 c-177 -23 -378 -121 -520 -253 -124 -116 -238 -308 -282
-472 -30 -113 -37 -323 -14 -435 50 -249 203 -463 435 -610 146 -93 224 -126
566 -243 349 -118 457 -167 608 -275 204 -145 308 -379 275 -620 -23 -167 -65
-258 -168 -362 -124 -124 -250 -175 -462 -186 -250 -13 -472 42 -656 164 -133
88 -288 284 -382 484 -74 158 -150 408 -192 629 -12 69 -25 93 -37 73 -7 -11
-8 -266 -4 -975 l2 -398 25 0 c21 0 29 10 53 63 51 111 132 154 248 129 28 -5
115 -35 195 -66 512 -199 970 -179 1307 57 177 123 313 302 386 505 49 137 59
204 61 402 1 102 5 199 10 215 19 73 81 172 153 243 40 39 77 72 82 72 6 0 10
-295 10 -810 l0 -810 813 2 812 3 3 878 c1 482 5 877 7 877 15 0 313 -64 395
-85 147 -37 415 -119 546 -168 l119 -44 -2 -94 c-2 -132 -37 -357 -79 -501
-62 -217 -95 -291 -200 -455 -19 -29 -34 -57 -34 -63 0 -5 -4 -10 -9 -10 -5 0
-27 -18 -49 -40 l-40 -40 38 0 c21 0 43 -7 50 -15 7 -8 16 -15 21 -15 5 0 19
-10 30 -21 19 -19 20 -26 11 -55 -11 -37 4 -48 28 -19 7 8 21 15 32 15 29 0
217 102 226 123 2 4 8 7 14 7 31 0 209 174 296 290 108 143 217 393 266 610
48 210 65 592 37 825 -54 442 -203 770 -463 1021 -112 108 -193 167 -313 227
-228 114 -434 168 -745 197 -86 8 -389 10 -965 8 l-840 -3 -5 -847 c-3 -465
-7 -848 -10 -850 -3 -2 -28 -21 -57 -42 -78 -55 -175 -166 -217 -246 -20 -38
-40 -70 -44 -70 -4 0 -16 19 -27 42 -45 94 -151 220 -259 306 -152 121 -316
200 -686 327 -380 131 -480 175 -608 273 -101 76 -156 142 -207 247 -50 103
-65 166 -65 269 0 108 17 182 62 274 107 219 343 330 653 306 230 -17 402 -98
556 -261 153 -163 272 -378 375 -678 38 -108 50 -128 64 -105 5 8 8 236 7 530
-2 513 -2 515 -23 518 -16 2 -25 -7 -39 -38 -57 -127 -192 -161 -359 -89 -208
90 -260 110 -332 128 -153 39 -331 50 -483 30z m3366 -82 c383 -64 612 -216
801 -531 123 -205 204 -532 232 -934 13 -196 13 -442 0 -442 -5 0 -40 12 -77
26 -312 119 -661 221 -935 274 l-58 11 0 335 0 334 -32 0 c-119 1 -268 63
-363 152 -96 89 -164 215 -189 351 -20 109 -26 -10 -26 -533 0 -351 -4 -561
-10 -565 -5 -3 -96 -3 -202 1 l-193 7 3 769 2 770 478 -5 c364 -3 499 -8 569
-20z m-652 -2465 l0 -883 -195 0 -195 0 0 878 0 878 35 6 c19 4 107 6 195 5
l160 -1 0 -883z"/>
</g>
</svg>
