<?xml version="1.0" standalone="no"?>
<!DOCTYPE svg PUBLIC "-//W3C//DTD SVG 20010904//EN"
 "http://www.w3.org/TR/2001/REC-SVG-20010904/DTD/svg10.dtd">
<svg version="1.0" xmlns="http://www.w3.org/2000/svg"
 width="1280.000000pt" height="720.000000pt" viewBox="0 0 1280.000000 720.000000"
 preserveAspectRatio="xMidYMid meet">
<metadata>
Created by potrace 1.16, written by Peter Selinger 2001-2019
</metadata>
<g transform="translate(0.000000,720.000000) scale(0.100000,-0.100000)"
fill="#000000" stroke="none">
<path d="M4267 5850 c-185 -33 -371 -136 -514 -283 -175 -181 -268 -390 -280
-632 -13 -272 67 -489 251 -682 156 -164 337 -263 716 -392 385 -130 501 -181
634 -276 64 -45 75 -58 58 -69 -10 -6 -114 -13 -357 -26 -110 -5 -245 -14
-300 -20 -55 -5 -185 -14 -290 -20 -104 -6 -257 -18 -340 -26 -82 -8 -222 -18
-310 -24 -151 -9 -312 -26 -345 -35 -8 -2 -118 -14 -245 -25 -126 -12 -270
-28 -320 -36 -49 -7 -171 -23 -270 -34 -99 -11 -254 -34 -345 -51 -91 -17
-183 -32 -205 -35 -22 -2 -62 -9 -90 -14 -27 -5 -93 -17 -145 -25 -52 -9 -115
-20 -140 -26 -25 -5 -62 -12 -83 -16 -21 -3 -40 -10 -43 -14 -3 -5 -14 -9 -25
-9 -26 0 -220 -47 -289 -71 -78 -26 -189 -74 -203 -88 -6 -6 -15 -11 -20 -11
-17 0 -86 -61 -106 -94 -28 -44 -28 -120 -1 -163 33 -55 140 -99 300 -122 227
-34 618 -61 1060 -74 l145 -5 -70 14 c-38 8 -113 21 -165 30 -52 8 -122 19
-155 24 -33 6 -154 23 -270 40 -186 26 -357 57 -412 74 -10 3 -31 8 -48 10
-113 20 -238 70 -243 98 -2 11 12 27 40 44 96 62 169 87 533 190 77 22 286 64
317 64 15 0 30 5 33 10 3 6 20 10 36 10 17 0 38 4 48 9 19 11 181 41 246 47
35 3 142 19 200 29 11 2 49 10 85 18 81 17 178 33 295 47 151 18 246 31 335
45 176 29 288 44 375 50 50 3 116 10 148 16 77 13 298 37 547 58 143 12 284
26 415 41 44 5 125 12 180 15 55 4 203 15 329 26 l230 19 23 -22 c39 -37 92
-123 120 -195 20 -54 26 -92 31 -184 6 -153 -8 -231 -63 -345 -35 -73 -57
-103 -112 -155 -38 -35 -96 -79 -131 -97 -34 -18 -62 -40 -62 -48 0 -17 -4
-18 61 5 184 63 372 206 491 375 124 176 184 359 195 591 5 111 3 128 -22 215
-109 383 -385 619 -937 804 -412 138 -562 201 -679 286 -136 98 -231 228 -273
372 -19 66 -22 230 -5 310 32 155 152 309 291 372 122 56 192 69 378 69 122 0
158 2 140 10 -32 13 -310 18 -373 7z"/>
</g>
</svg>
