<?xml version="1.0" standalone="no"?>
<!DOCTYPE svg PUBLIC "-//W3C//DTD SVG 20010904//EN"
 "http://www.w3.org/TR/2001/REC-SVG-20010904/DTD/svg10.dtd">
<svg version="1.0" xmlns="http://www.w3.org/2000/svg"
 width="1280.000000pt" height="720.000000pt" viewBox="0 0 1280.000000 720.000000"
 preserveAspectRatio="xMidYMid meet">
<metadata>
Created by potrace 1.16, written by Peter Selinger 2001-2019
</metadata>
<g transform="translate(0.000000,720.000000) scale(0.100000,-0.100000)"
fill="#000000" stroke="none">
<path d="M4301 5860 c-181 -25 -379 -122 -520 -254 -123 -116 -238 -307 -282
-472 -30 -110 -37 -322 -15 -432 52 -255 206 -469 447 -621 114 -71 270 -138
511 -220 295 -100 376 -131 484 -187 219 -112 357 -251 413 -421 78 -232 22
-509 -132 -661 -126 -124 -262 -180 -463 -189 -493 -24 -828 187 -1048 659
-70 149 -147 405 -187 618 -12 69 -25 93 -37 73 -7 -11 -8 -264 -4 -980 l2
-393 25 0 c21 0 29 9 51 57 31 70 57 100 109 124 75 35 132 25 353 -62 493
-193 961 -169 1297 69 175 123 313 307 382 507 47 136 56 200 58 400 2 143 6
200 18 231 84 225 276 361 611 433 206 45 586 67 676 41 19 -6 105 -15 190
-21 85 -5 184 -14 220 -19 36 -5 81 -11 100 -13 19 -3 67 -8 105 -11 96 -8
310 -56 643 -146 62 -16 124 -30 138 -30 23 0 25 2 13 16 -35 43 -385 158
-694 229 -60 14 -118 29 -128 33 -17 7 -18 28 -17 320 l1 312 -45 0 c-141 0
-293 77 -393 199 -54 66 -107 175 -130 266 -9 36 -19 65 -23 65 -4 0 -5 -241
-2 -535 3 -311 1 -535 -4 -535 -5 0 -108 -2 -229 -5 -300 -5 -485 -34 -659
-101 -178 -69 -343 -207 -419 -352 -21 -39 -40 -72 -42 -72 -2 0 -23 32 -45
71 -86 147 -220 276 -390 377 -120 71 -258 129 -525 222 -468 162 -566 211
-712 356 -147 147 -211 356 -172 570 16 89 80 211 146 278 70 71 135 108 248
142 80 24 106 27 240 26 166 0 255 -17 372 -71 197 -93 362 -276 500 -556 61
-122 76 -158 135 -324 36 -102 54 -122 62 -69 4 18 5 256 4 528 -3 493 -3 495
-24 498 -16 2 -25 -7 -39 -38 -57 -127 -192 -161 -359 -89 -315 136 -396 158
-606 164 -80 2 -174 0 -209 -5z"/>
</g>
</svg>
