<?xml version="1.0" standalone="no"?>
<!DOCTYPE svg PUBLIC "-//W3C//DTD SVG 20010904//EN"
 "http://www.w3.org/TR/2001/REC-SVG-20010904/DTD/svg10.dtd">
<svg version="1.0" xmlns="http://www.w3.org/2000/svg"
 width="1280.000000pt" height="720.000000pt" viewBox="0 0 1280.000000 720.000000"
 preserveAspectRatio="xMidYMid meet">
<metadata>
Created by potrace 1.16, written by Peter Selinger 2001-2019
</metadata>
<g transform="translate(0.000000,720.000000) scale(0.100000,-0.100000)"
fill="#000000" stroke="none">
<path d="M4308 5860 c-370 -44 -704 -343 -810 -728 -18 -63 -22 -106 -22 -242
-1 -183 6 -226 61 -359 95 -232 273 -403 563 -540 82 -38 406 -155 610 -221
14 -4 68 -27 120 -50 374 -165 544 -380 543 -685 0 -182 -58 -337 -163 -443
-133 -132 -300 -192 -538 -192 -108 0 -266 23 -352 51 -409 135 -675 531 -805
1200 -10 48 -21 92 -25 99 -26 42 -29 -17 -25 -503 2 -276 4 -584 5 -684 l0
-183 24 0 c20 0 30 12 58 67 44 89 88 123 164 130 64 5 113 -8 316 -86 334
-128 676 -155 955 -75 334 95 599 350 706 679 46 141 60 251 53 420 -7 143 -6
154 18 231 14 44 43 107 64 140 37 56 143 164 163 164 5 0 9 -334 9 -835 l0
-835 968 0 c594 0 1009 4 1077 10 412 40 783 253 1004 578 152 225 243 490
281 820 24 212 25 364 5 555 -38 344 -112 570 -271 827 -71 116 -261 312 -372
384 -159 103 -313 168 -517 216 -275 66 -258 65 -1260 65 l-910 0 -5 -847 -5
-846 -76 -60 c-97 -76 -149 -138 -200 -234 -22 -43 -42 -78 -44 -78 -2 0 -16
25 -32 56 -15 31 -56 92 -91 135 -175 219 -405 349 -897 509 -334 108 -510
198 -639 323 -81 80 -131 158 -167 263 -32 92 -35 288 -5 374 45 134 129 245
230 304 215 126 551 125 802 -2 226 -114 424 -390 571 -797 57 -158 68 -179
82 -156 5 8 8 246 7 530 -1 514 -1 516 -22 519 -16 2 -25 -7 -39 -38 -24 -54
-84 -106 -136 -120 -82 -22 -148 -5 -384 98 -199 87 -418 118 -647 92z m3227
-71 c396 -34 663 -164 847 -412 134 -182 208 -360 263 -636 83 -416 81 -1009
-6 -1381 -50 -215 -119 -390 -210 -530 -58 -88 -219 -246 -299 -293 -36 -21
-107 -51 -158 -67 -85 -28 -257 -60 -317 -60 l-25 0 0 1220 0 1220 -37 0 c-21
0 -66 7 -100 15 -217 51 -384 222 -440 450 -9 36 -20 65 -24 65 -5 0 -9 -253
-9 -561 0 -309 -2 -565 -5 -569 -2 -4 -120 -10 -262 -14 -236 -6 -290 -10
-408 -31 -27 -5 -37 -4 -30 3 10 10 211 58 270 64 l30 3 3 763 2 762 398 0
c218 0 451 -5 517 -11z m-515 -2474 l0 -885 -57 0 c-32 -1 -121 -2 -198 -3
l-140 -2 -3 875 c-1 481 0 881 3 888 3 9 53 12 200 12 l195 0 0 -885z"/>
<path d="M5490 1632 c-19 -2 -49 -14 -67 -28 -25 -19 -32 -33 -38 -73 -11 -84
17 -141 79 -157 22 -5 28 -4 24 7 -3 8 -14 15 -26 17 -33 5 -52 40 -52 95 0
64 21 103 65 117 44 15 67 7 101 -33 23 -28 26 -37 20 -82 -4 -39 -12 -56 -36
-77 -17 -16 -38 -28 -48 -28 -16 -1 -16 -1 0 -10 18 -11 57 0 75 21 6 8 19 37
28 66 17 51 16 52 -7 99 -27 53 -60 72 -118 66z"/>
<path d="M5787 1631 c-21 -3 -38 -9 -37 -13 0 -5 0 -56 0 -115 0 -66 4 -103 9
-98 5 6 11 26 13 45 2 30 7 35 30 38 21 3 32 -4 52 -35 14 -21 26 -48 26 -60
0 -14 6 -23 15 -23 22 0 18 29 -10 75 -30 48 -30 51 -5 58 40 10 49 97 11 116
-27 14 -64 18 -104 12z"/>
<path d="M6557 1633 c-14 -22 -77 -210 -77 -228 0 -16 5 -13 21 13 20 31 24
33 73 30 47 -3 52 -6 68 -38 12 -25 18 -31 22 -20 4 8 -10 53 -29 98 -19 46
-35 89 -35 97 0 19 -36 60 -43 48z"/>
<path d="M6162 1504 l3 -126 48 -2 c54 -2 63 10 13 19 -40 8 -46 22 -46 118 0
54 4 71 20 87 23 23 30 24 80 9 45 -14 60 -41 60 -110 0 -44 -4 -55 -30 -79
-54 -50 -30 -57 26 -8 36 32 36 32 32 101 -3 63 -7 72 -33 93 -25 20 -41 24
-103 24 l-73 0 3 -126z"/>
<path d="M8161 1523 c1 -113 10 -164 24 -130 4 10 5 31 1 47 -8 43 0 57 32 52
27 -4 36 -15 64 -74 12 -28 38 -39 38 -17 0 7 -10 27 -22 47 l-21 35 22 18
c30 24 38 85 15 110 -14 15 -32 19 -85 19 l-68 0 0 -107z"/>
<path d="M8450 1516 c0 -63 2 -121 5 -128 5 -11 23 -14 83 -10 100 5 117 21
22 21 -74 0 -96 10 -85 39 3 8 5 25 5 38 0 23 3 24 61 24 42 0 58 3 53 11 -4
7 -27 10 -60 7 l-54 -5 0 49 0 48 70 0 c40 0 70 4 70 10 0 6 -35 10 -85 10
l-85 0 0 -114z"/>
<path d="M8716 1621 c-3 -4 -1 -21 3 -37 10 -31 51 -171 57 -192 5 -17 34 -12
45 8 12 24 49 151 49 172 0 10 4 18 9 18 10 0 33 -62 53 -145 12 -53 17 -60
38 -60 25 0 30 13 58 155 5 30 14 63 18 74 5 13 3 17 -6 14 -14 -4 -44 -94
-54 -162 -7 -41 -26 -75 -26 -45 0 7 -14 57 -31 111 -42 136 -49 133 -100 -34
-13 -43 -28 -76 -34 -75 -5 2 -17 37 -26 78 -17 76 -35 129 -43 129 -3 0 -7
-4 -10 -9z"/>
</g>
</svg>
