<?xml version="1.0" standalone="no"?>
<!DOCTYPE svg PUBLIC "-//W3C//DTD SVG 20010904//EN"
 "http://www.w3.org/TR/2001/REC-SVG-20010904/DTD/svg10.dtd">
<svg version="1.0" xmlns="http://www.w3.org/2000/svg"
 width="1280.000000pt" height="720.000000pt" viewBox="0 0 1280.000000 720.000000"
 preserveAspectRatio="xMidYMid meet">
<metadata>
Created by potrace 1.16, written by Peter Selinger 2001-2019
</metadata>
<g transform="translate(0.000000,720.000000) scale(0.100000,-0.100000)"
fill="#000000" stroke="none">
<path d="M4301 5859 c-307 -39 -596 -257 -738 -555 -63 -133 -84 -224 -90
-385 -6 -161 10 -258 63 -387 38 -93 50 -112 110 -193 158 -208 367 -334 794
-477 349 -117 492 -179 633 -274 71 -48 158 -136 203 -203 161 -243 119 -631
-89 -816 -61 -54 -155 -108 -242 -136 -74 -24 -94 -26 -255 -27 -102 0 -202 5
-240 12 -475 93 -761 455 -920 1165 -37 166 -44 187 -57 174 -5 -6 -7 -422 -4
-1159 l1 -218 24 0 c21 0 30 11 56 64 54 114 127 151 248 127 31 -6 118 -35
192 -64 377 -150 728 -177 1030 -82 309 98 553 335 664 645 51 140 59 200 60
420 2 233 13 286 85 397 41 63 147 167 162 157 5 -3 9 -345 9 -835 l0 -829
598 0 c368 0 603 4 612 10 10 6 11 10 3 10 -10 0 -13 280 -13 1317 0 1284 -1
1317 -19 1337 -49 53 -116 202 -136 304 -20 97 -25 -24 -25 -547 l0 -568 -257
-6 c-165 -4 -292 -11 -352 -22 -52 -8 -96 -13 -98 -11 -10 10 188 58 277 68
l25 3 3 764 2 763 473 -5 c377 -4 493 -8 575 -21 196 -32 354 -90 483 -176
131 -89 274 -259 359 -430 41 -81 102 -267 128 -390 56 -257 81 -629 63 -920
-34 -566 -151 -921 -385 -1168 -164 -172 -331 -247 -623 -277 l-63 -7 0 1221
0 1221 -40 2 c-22 1 -52 2 -66 2 l-27 1 -2 -615 c-1 -338 -3 -894 -4 -1235
l-2 -620 293 1 c260 1 305 4 398 23 461 97 784 347 985 766 127 264 179 530
179 910 0 395 -61 679 -206 955 -76 145 -131 224 -232 328 -105 109 -183 171
-298 235 -215 122 -448 190 -762 223 -115 12 -301 14 -991 12 l-850 -3 -5
-846 -5 -846 -75 -60 c-98 -78 -160 -151 -206 -243 l-36 -73 -43 74 c-85 146
-220 281 -381 380 -127 78 -247 127 -649 268 -361 125 -463 180 -601 316 -118
118 -184 277 -184 445 0 259 146 466 381 540 89 28 237 43 339 35 121 -10 221
-38 330 -91 82 -41 108 -61 195 -148 176 -177 283 -365 407 -715 35 -99 53
-121 62 -74 2 15 4 253 3 528 -2 497 -2 500 -23 503 -16 2 -25 -7 -39 -38 -35
-77 -117 -130 -200 -130 -55 1 -118 21 -264 85 -80 35 -182 73 -226 84 -155
39 -332 50 -484 30z m2717 -2546 l-3 -884 -195 -1 -195 0 -3 886 -2 886 187 2
c104 2 194 1 201 -1 10 -2 12 -185 10 -888z"/>
<path d="M2387 1766 c-50 -19 -64 -31 -77 -72 -28 -83 10 -133 127 -169 72
-22 95 -43 74 -69 -19 -22 -93 -20 -140 4 l-38 19 -22 -23 c-30 -32 -27 -42
22 -71 35 -20 57 -25 111 -25 121 0 174 45 163 139 -6 54 -26 73 -100 96 -102
32 -107 35 -107 65 0 39 46 47 109 19 l46 -20 22 28 c13 15 23 32 23 36 0 13
-85 47 -132 52 -25 3 -59 -1 -81 -9z"/>
<path d="M4017 1767 c-204 -66 -192 -361 17 -408 118 -26 251 47 188 104 -24
22 -28 21 -59 -3 -18 -14 -41 -20 -75 -20 -43 0 -54 4 -84 34 -58 58 -45 174
23 205 40 19 107 13 138 -10 l27 -22 26 27 c22 21 25 30 16 44 -31 48 -142 74
-217 49z"/>
<path d="M4841 1765 c-85 -27 -141 -106 -141 -201 0 -100 54 -173 148 -200
143 -42 281 54 282 197 0 154 -137 251 -289 204z m153 -100 c59 -55 59 -143 0
-194 -28 -25 -43 -31 -82 -31 -40 0 -53 5 -80 31 -56 55 -52 142 9 194 42 35
115 35 153 0z"/>
<path d="M7418 1766 c-89 -32 -138 -103 -138 -203 0 -81 30 -138 94 -178 41
-25 58 -29 115 -29 67 0 99 11 139 47 28 26 28 43 -2 62 -22 15 -26 14 -57 -4
-45 -28 -117 -28 -152 -1 -32 25 -51 81 -44 126 16 98 116 140 198 83 26 -18
26 -18 51 9 14 15 23 33 21 41 -8 21 -104 61 -148 60 -22 0 -56 -6 -77 -13z"/>
<path d="M8477 1767 c-194 -63 -195 -346 -1 -403 84 -24 196 4 224 56 7 13 3
23 -14 39 -28 26 -32 26 -63 1 -39 -30 -113 -27 -152 6 -60 50 -60 148 0 198
39 33 106 35 154 6 l32 -20 24 26 c18 19 21 29 13 42 -27 45 -147 72 -217 49z"/>
<path d="M3082 1568 l3 -203 42 -3 42 -3 3 78 3 78 98 3 98 3 -3 37 -3 37 -98
3 -98 3 3 42 3 42 113 3 112 3 0 39 0 40 -160 0 -160 0 2 -202z"/>
<path d="M3561 1753 c-19 -36 -161 -374 -161 -383 0 -6 20 -10 45 -10 43 0 45
1 64 45 l20 45 81 0 81 0 20 -45 c19 -44 21 -45 64 -45 25 0 45 4 45 8 0 5
-20 58 -46 118 -25 60 -61 148 -81 197 l-36 87 -43 0 c-31 0 -46 -5 -53 -17z"/>
<path d="M4304 1756 c-3 -8 -4 -25 -2 -38 3 -20 10 -24 63 -28 l60 -5 3 -163
3 -163 42 3 42 3 3 163 2 162 60 0 c55 0 60 2 66 25 13 53 8 55 -171 55 -134
0 -167 -3 -171 -14z"/>
<path d="M5234 1757 c-2 -7 -3 -98 -2 -202 l3 -190 39 -3 c48 -4 56 6 56 76
l0 52 34 0 c28 0 37 -6 61 -42 49 -76 64 -88 112 -88 24 0 43 4 43 9 0 5 -19
37 -42 71 l-42 61 31 25 c80 62 61 191 -33 230 -45 19 -252 20 -260 1z m219
-76 c32 -12 43 -55 23 -86 -18 -27 -117 -45 -142 -25 -14 13 -20 100 -7 113
10 10 98 8 126 -2z"/>
<path d="M5870 1564 l0 -206 120 4 c114 4 122 6 162 34 67 47 89 94 86 181 -3
62 -7 76 -34 110 -52 65 -101 83 -226 83 l-108 0 0 -206z m218 112 c54 -29 78
-109 49 -166 -21 -42 -75 -71 -127 -68 l-45 3 -3 123 -3 122 53 0 c29 -1 63
-6 76 -14z"/>
<path d="M6464 1757 c-2 -7 -40 -96 -83 -197 -43 -102 -77 -188 -74 -192 2 -5
22 -8 44 -8 38 0 41 2 60 45 l20 45 80 0 80 0 20 -45 c19 -44 21 -45 66 -45
38 0 45 3 41 18 -3 9 -40 101 -83 205 l-77 187 -44 0 c-27 0 -47 -5 -50 -13z"/>
<path d="M6809 1765 c0 -3 0 -90 0 -195 0 -104 0 -195 0 -201 1 -6 19 -9 44
-7 l42 3 3 118 c1 64 6 117 10 117 4 0 16 -15 28 -33 11 -17 54 -72 94 -120
69 -84 74 -88 109 -85 35 3 36 4 36 41 -1 20 -2 111 -3 202 l-2 165 -40 0
c-31 0 -40 -4 -41 -17 -1 -10 -2 -62 -4 -116 -1 -54 -4 -100 -7 -103 -3 -2
-47 50 -98 116 -90 117 -93 120 -131 120 -22 0 -39 -2 -40 -5z"/>
<path d="M7748 1578 c-2 -106 -2 -199 0 -205 3 -10 44 -13 158 -13 l154 0 0
40 0 40 -110 0 -110 0 0 45 0 45 95 0 95 0 0 35 0 34 -92 3 -93 3 -3 43 -3 42
110 0 111 0 0 40 0 40 -154 0 -154 0 -4 -192z"/>
<path d="M8804 1757 c-2 -7 -3 -98 -2 -202 l3 -190 45 0 45 0 3 63 3 62 34 0
c32 0 39 -6 77 -65 43 -64 43 -65 91 -65 26 0 47 4 47 9 0 5 -19 37 -42 70
l-41 60 26 22 c86 67 70 193 -30 235 -44 19 -252 20 -259 1z m236 -87 c11 -11
20 -29 20 -40 0 -39 -35 -60 -100 -60 l-60 0 0 60 0 60 60 0 c47 0 64 -4 80
-20z"/>
<path d="M9255 1757 c-3 -7 -4 -98 -3 -202 l3 -190 158 -3 157 -3 0 41 0 40
-109 0 c-102 0 -110 1 -116 21 -4 11 -4 31 -1 44 6 23 11 24 99 27 l92 3 3 33
3 32 -95 0 c-93 0 -96 1 -102 24 -14 57 -8 61 111 66 l110 5 0 35 0 35 -153 3
c-118 2 -154 0 -157 -11z"/>
<path d="M9640 1757 c0 -11 106 -334 125 -380 6 -14 17 -17 48 -15 l40 3 39
114 c21 63 41 118 46 123 4 4 20 -30 36 -75 63 -183 54 -168 99 -165 l40 3 63
190 c35 104 64 195 64 202 0 9 -15 13 -44 13 l-45 0 -26 -87 c-14 -49 -34
-108 -42 -132 l-17 -44 -17 49 c-10 27 -31 85 -46 129 -28 78 -29 80 -64 83
-31 3 -36 0 -46 -30 -53 -158 -77 -218 -84 -211 -4 4 -24 61 -44 126 l-36 117
-45 0 c-29 0 -44 -4 -44 -13z"/>
</g>
</svg>
