<?xml version="1.0" standalone="no"?>
<!DOCTYPE svg PUBLIC "-//W3C//DTD SVG 20010904//EN"
 "http://www.w3.org/TR/2001/REC-SVG-20010904/DTD/svg10.dtd">
<svg version="1.0" xmlns="http://www.w3.org/2000/svg"
 width="1280.000000pt" height="720.000000pt" viewBox="0 0 1280.000000 720.000000"
 preserveAspectRatio="xMidYMid meet">
<metadata>
Created by potrace 1.16, written by Peter Selinger 2001-2019
</metadata>
<g transform="translate(0.000000,720.000000) scale(0.100000,-0.100000)"
fill="#000000" stroke="none">
<path d="M10391 4091 c-11 -7 -9 -12 11 -25 25 -16 88 -33 343 -91 348 -80
535 -162 535 -234 0 -104 -483 -181 -1230 -196 -285 -6 -1145 14 -1305 30 -27
3 -158 10 -290 15 -132 6 -322 15 -422 20 -1293 70 -2147 96 -2893 87 -779
-10 -1328 -40 -1940 -107 -47 -5 -116 -12 -155 -15 -38 -3 -128 -15 -200 -26
-71 -10 -191 -28 -265 -39 -186 -28 -245 -38 -319 -56 -35 -9 -73 -17 -85 -18
-65 -9 -213 -56 -227 -72 -18 -21 6 -45 34 -34 12 4 54 13 92 20 39 6 90 15
115 20 25 6 83 15 130 21 47 6 126 17 175 25 50 7 146 20 215 28 69 8 157 20
195 25 88 13 199 14 170 1 -11 -5 -128 -25 -260 -45 -329 -50 -328 -50 -521
-89 -202 -41 -305 -70 -335 -97 -12 -10 -27 -19 -33 -19 -20 0 -116 -49 -116
-59 0 -36 179 -17 510 55 397 85 1433 213 2105 259 121 8 252 17 290 20 215
17 805 36 1260 41 494 6 934 -1 1535 -26 240 -10 367 -15 1050 -45 953 -41
1860 -45 2195 -11 397 41 605 106 659 206 60 113 -68 224 -354 309 -292 85
-631 148 -669 122z"/>
</g>
</svg>
