<?xml version="1.0" standalone="no"?>
<!DOCTYPE svg PUBLIC "-//W3C//DTD SVG 20010904//EN"
 "http://www.w3.org/TR/2001/REC-SVG-20010904/DTD/svg10.dtd">
<svg version="1.0" xmlns="http://www.w3.org/2000/svg"
 width="1280.000000pt" height="720.000000pt" viewBox="0 0 1280.000000 720.000000"
 preserveAspectRatio="xMidYMid meet">
<metadata>
Created by potrace 1.16, written by Peter Selinger 2001-2019
</metadata>
<g transform="translate(0.000000,720.000000) scale(0.100000,-0.100000)"
fill="#000000" stroke="none">
<path d="M4296 5859 c-141 -18 -317 -95 -446 -194 -161 -124 -299 -332 -351
-530 -30 -115 -37 -323 -14 -436 51 -255 204 -466 446 -617 114 -72 267 -138
509 -220 374 -128 473 -170 617 -264 232 -152 345 -384 313 -643 -33 -265
-178 -443 -425 -521 -61 -19 -110 -26 -210 -31 -481 -21 -815 186 -1030 640
-78 165 -159 433 -202 666 -9 46 -28 65 -34 34 -4 -19 -5 -288 -1 -950 l2
-413 24 0 c21 0 30 11 56 64 75 158 169 171 443 62 578 -231 1102 -167 1446
175 145 144 241 323 288 537 13 58 17 128 18 282 1 229 7 260 79 378 35 58
145 172 165 172 8 0 11 -247 11 -835 l0 -835 601 2 600 3 -1 325 c0 179 -5
586 -10 905 -6 349 -6 745 -1 995 l9 415 -39 57 c-49 71 -84 148 -105 233 -9
36 -21 65 -26 65 -6 0 -9 -204 -7 -565 2 -310 0 -567 -3 -571 -4 -3 -71 -5
-150 -5 -179 2 -412 -14 -507 -34 -87 -18 -106 -19 -66 -1 46 20 202 58 264
65 l56 6 3 759 c1 433 6 762 11 765 5 4 220 3 478 0 502 -7 572 -13 747 -64
181 -52 312 -129 436 -254 221 -222 337 -517 397 -1001 24 -201 24 -637 -1
-839 -54 -444 -168 -736 -371 -950 -160 -169 -340 -250 -611 -276 l-71 -7 -7
854 c-8 1012 -8 1466 0 1530 7 54 7 54 -75 61 l-54 4 6 -304 5 -305 26 -39
c22 -33 25 -46 20 -81 -4 -24 -12 -50 -19 -58 -7 -8 -15 -26 -19 -40 -8 -29
-25 -908 -26 -1345 l-1 -300 293 1 c262 1 304 3 398 23 649 137 1055 612 1147
1342 20 165 23 481 4 634 -28 239 -89 450 -185 638 -78 155 -136 237 -245 350
-214 220 -458 346 -810 417 -231 47 -328 50 -1236 48 l-850 -3 -3 -847 -2
-847 -33 -22 c-116 -81 -205 -180 -258 -289 -16 -33 -31 -60 -33 -60 -3 0 -21
30 -40 68 -46 86 -153 211 -245 286 -155 125 -317 202 -691 331 -254 87 -390
140 -470 183 -87 46 -201 133 -256 196 -59 68 -122 190 -139 274 -19 88 -19
213 0 287 35 140 132 276 241 340 197 115 533 122 761 16 197 -93 364 -277
501 -557 60 -120 73 -152 134 -323 34 -97 52 -119 61 -79 3 13 4 250 3 528 -3
496 -3 505 -23 508 -15 2 -24 -7 -38 -38 -35 -77 -116 -130 -200 -130 -48 0
-133 25 -215 63 -180 84 -280 116 -433 136 -91 13 -232 12 -331 0z m2722
-2541 l-3 -892 -195 2 -195 2 -3 885 -2 884 102 4 c57 1 147 4 201 5 l97 2 -2
-892z"/>
</g>
</svg>
