<?xml version="1.0" standalone="no"?>
<!DOCTYPE svg PUBLIC "-//W3C//DTD SVG 20010904//EN"
 "http://www.w3.org/TR/2001/REC-SVG-20010904/DTD/svg10.dtd">
<svg version="1.0" xmlns="http://www.w3.org/2000/svg"
 width="1280.000000pt" height="720.000000pt" viewBox="0 0 1280.000000 720.000000"
 preserveAspectRatio="xMidYMid meet">
<metadata>
Created by potrace 1.16, written by Peter Selinger 2001-2019
</metadata>
<g transform="translate(0.000000,720.000000) scale(0.100000,-0.100000)"
fill="#000000" stroke="none">
<path d="M4301 5859 c-178 -23 -377 -120 -520 -253 -123 -116 -239 -309 -282
-471 -30 -115 -37 -323 -14 -436 51 -255 204 -466 446 -617 114 -72 267 -138
514 -222 361 -123 488 -178 629 -273 120 -81 226 -213 265 -330 83 -248 18
-536 -155 -690 -118 -105 -255 -155 -449 -164 -481 -21 -816 187 -1030 640
-79 169 -158 425 -198 644 -7 36 -18 68 -24 71 -15 4 -18 -150 -15 -658 1
-162 2 -391 2 -507 l0 -213 24 0 c21 0 30 11 56 64 54 114 127 151 248 127 31
-6 118 -35 192 -64 583 -231 1107 -168 1449 174 111 110 191 238 245 389 51
141 59 199 61 425 1 234 8 267 80 385 33 55 145 170 166 170 5 0 9 -319 9
-835 l0 -835 598 1 c328 0 606 4 617 9 17 7 17 9 3 9 -17 1 -18 77 -18 1318 0
1284 -1 1317 -19 1337 -49 53 -116 202 -136 304 -20 97 -25 -24 -25 -547 l0
-568 -257 -6 c-165 -4 -292 -11 -352 -22 -52 -8 -96 -14 -98 -11 -10 10 181
57 277 68 l25 3 3 764 2 763 473 -5 c377 -4 493 -8 575 -21 276 -45 461 -133
622 -295 130 -131 225 -291 290 -491 169 -515 170 -1320 3 -1835 -29 -89 -103
-245 -157 -329 -43 -67 -162 -194 -225 -240 -134 -97 -285 -148 -508 -171
l-63 -7 0 1221 0 1221 -40 2 c-22 1 -52 2 -67 2 l-26 1 -4 -1215 c-2 -668 -6
-1226 -9 -1239 l-5 -24 303 6 c257 5 318 9 403 27 601 128 986 537 1119 1192
21 103 46 368 46 490 0 314 -70 652 -184 894 -131 274 -331 494 -571 626 -220
121 -474 190 -795 218 -92 8 -399 10 -965 8 l-830 -3 -5 -847 -5 -846 -50 -38
c-114 -85 -183 -165 -237 -276 -15 -32 -30 -58 -32 -58 -3 0 -21 30 -40 68
-70 133 -222 284 -382 383 -125 76 -248 128 -599 249 -406 141 -512 196 -650
335 -72 72 -131 168 -161 262 -24 77 -30 246 -10 323 36 145 131 280 242 345
197 115 533 122 761 16 197 -93 364 -277 501 -557 60 -120 73 -152 134 -323
34 -97 52 -119 61 -79 3 13 4 250 3 528 -2 498 -3 505 -22 508 -16 2 -25 -7
-39 -38 -35 -77 -117 -130 -200 -130 -55 1 -118 21 -264 85 -254 111 -468 146
-710 114z m2717 -2545 l-3 -886 -195 1 -195 0 -3 886 -2 885 200 0 200 0 -2
-886z"/>
<path d="M2425 1776 c-5 -3 -22 -7 -36 -10 -33 -7 -66 -36 -79 -70 -30 -80 9
-136 119 -169 80 -24 104 -45 82 -71 -18 -22 -86 -20 -138 3 l-41 19 -21 -22
c-30 -32 -27 -42 22 -71 36 -20 57 -25 116 -25 82 0 123 16 145 58 44 86 10
149 -99 182 -87 25 -95 31 -95 61 0 23 5 29 23 31 40 2 70 -3 101 -19 29 -15
31 -15 53 13 13 16 23 32 23 36 0 23 -141 67 -175 54z"/>
<path d="M4017 1767 c-88 -29 -147 -109 -147 -202 0 -98 57 -175 147 -201 65
-19 121 -13 178 19 45 26 55 50 29 78 -22 24 -30 24 -61 -1 -18 -14 -41 -20
-75 -20 -43 0 -54 4 -84 34 -58 58 -45 174 23 205 40 19 107 13 138 -10 l27
-22 26 27 c21 21 25 30 16 44 -27 45 -146 72 -217 49z"/>
<path d="M4841 1765 c-51 -16 -95 -55 -123 -109 -31 -60 -23 -157 17 -213 44
-62 94 -86 174 -86 75 1 104 10 150 48 46 39 71 94 71 158 0 153 -138 249
-289 202z m153 -100 c36 -33 49 -72 41 -122 -8 -58 -59 -103 -116 -103 -127 0
-174 149 -73 229 39 31 113 29 148 -4z"/>
<path d="M7449 1770 c-95 -17 -161 -93 -167 -194 -5 -69 10 -109 57 -159 40
-44 74 -57 146 -57 71 0 120 17 151 51 17 19 17 21 -8 46 l-26 26 -27 -22
c-37 -28 -122 -29 -157 -1 -59 46 -64 153 -9 202 44 39 90 45 146 18 44 -21
47 -22 65 -5 31 28 25 52 -17 73 -45 23 -104 31 -154 22z"/>
<path d="M3084 1757 c-2 -7 -3 -98 -2 -202 l3 -190 42 -3 42 -3 3 78 3 78 98
3 98 3 -3 37 -3 37 -98 3 -98 3 3 42 3 42 113 3 112 3 0 39 0 40 -155 0 c-117
0 -157 -3 -161 -13z"/>
<path d="M3556 1743 c-7 -16 -34 -77 -59 -138 -25 -60 -57 -135 -71 -165 -36
-77 -35 -82 21 -78 44 3 47 5 62 46 l15 42 83 0 83 0 22 -45 c21 -43 24 -45
65 -45 24 0 43 4 43 8 0 8 -44 117 -126 309 l-39 93 -42 0 c-36 0 -45 -4 -57
-27z"/>
<path d="M4304 1756 c-3 -8 -4 -25 -2 -38 3 -20 10 -24 63 -28 l60 -5 3 -163
3 -163 42 3 42 3 3 163 2 162 60 0 c55 0 60 2 66 25 13 53 8 55 -171 55 -134
0 -167 -3 -171 -14z"/>
<path d="M5234 1757 c-2 -7 -3 -98 -2 -202 l3 -190 45 0 45 0 5 60 c5 58 6 60
36 63 26 3 35 -3 59 -40 53 -79 65 -88 112 -88 24 0 43 4 43 9 0 5 -19 37 -41
70 l-42 60 31 26 c78 66 60 192 -34 231 -45 19 -252 20 -260 1z m213 -73 c26
-7 43 -51 32 -82 -10 -26 -17 -29 -87 -36 -63 -5 -75 9 -66 78 l7 46 46 0 c25
0 56 -3 68 -6z"/>
<path d="M5870 1564 l0 -206 119 3 c114 4 121 5 163 34 67 48 89 95 86 182 -3
62 -7 76 -34 110 -52 65 -101 83 -226 83 l-108 0 0 -206z m208 115 c59 -20 90
-108 59 -169 -21 -42 -75 -71 -127 -68 l-45 3 -3 123 -3 122 44 0 c24 0 58 -5
75 -11z"/>
<path d="M6461 1748 c-11 -30 -127 -303 -146 -344 -17 -39 -12 -44 37 -44 36
0 40 3 58 45 l20 46 82 -3 83 -3 19 -42 c19 -41 21 -43 63 -43 24 0 43 4 43 8
0 4 -36 95 -80 202 -44 107 -80 195 -80 197 0 2 -20 3 -45 3 -38 0 -47 -4 -54
-22z"/>
<path d="M6810 1565 l0 -205 39 0 39 0 6 73 c3 39 4 92 3 116 -1 24 3 45 8 47
6 2 26 -18 45 -43 19 -26 61 -80 93 -120 52 -65 62 -73 93 -73 l34 0 -2 203
-3 202 -37 3 -38 3 0 -120 c0 -67 -4 -121 -9 -121 -9 0 -29 24 -141 169 -51
65 -58 71 -92 71 l-38 0 0 -205z"/>
<path d="M7755 1757 c-3 -7 -4 -98 -3 -202 l3 -190 150 0 150 0 0 35 0 35
-107 3 -108 3 0 44 0 44 93 3 92 3 3 32 3 32 -93 3 -93 3 -3 42 -3 42 108 3
108 3 0 35 0 35 -148 3 c-114 2 -149 0 -152 -11z"/>
<path d="M8455 1756 c-36 -16 -81 -60 -102 -99 -19 -37 -19 -133 -1 -177 20
-46 73 -97 116 -111 51 -17 156 -7 189 17 45 34 51 52 25 74 -22 18 -23 18
-67 -7 -37 -20 -52 -23 -87 -18 -82 14 -126 96 -97 179 27 75 109 105 184 67
l39 -21 24 24 c29 29 23 42 -32 67 -48 22 -147 25 -191 5z"/>
<path d="M8815 1759 c-3 -8 -4 -100 -3 -204 l3 -190 37 -3 37 -3 3 63 3 63 45
0 c40 0 46 -3 65 -35 40 -71 51 -81 94 -86 26 -3 41 -1 41 6 0 6 -16 36 -35
66 -19 30 -35 57 -35 61 0 4 14 18 31 32 63 54 55 167 -15 210 -43 27 -262 42
-271 20z m227 -86 c10 -9 18 -30 18 -49 0 -44 -40 -66 -113 -62 l-52 3 -3 49
c-2 27 -1 55 2 62 8 21 124 19 148 -3z"/>
<path d="M9648 1765 c-3 -3 24 -93 60 -200 l66 -195 35 0 36 0 40 118 c21 64
44 123 50 130 8 9 22 -20 56 -118 l44 -131 35 3 35 3 62 180 c34 99 62 186 62
193 1 9 -10 12 -36 10 l-36 -3 -41 -127 c-24 -76 -46 -128 -53 -128 -7 0 -13
6 -13 14 0 8 -19 67 -41 131 -41 116 -42 116 -72 113 -29 -3 -32 -7 -73 -126
-23 -67 -45 -124 -49 -125 -4 -1 -26 54 -48 123 -23 69 -46 128 -51 132 -13 9
-60 10 -68 3z"/>
<path d="M9260 1565 l0 -195 151 0 150 0 -3 33 -3 32 -105 0 -105 0 -3 47 -3
47 93 3 93 3 3 33 3 32 -95 0 -96 0 0 44 c0 55 9 59 128 55 l87 -3 3 32 3 32
-150 0 -151 0 0 -195z"/>
</g>
</svg>
