<?xml version="1.0" standalone="no"?>
<!DOCTYPE svg PUBLIC "-//W3C//DTD SVG 20010904//EN"
 "http://www.w3.org/TR/2001/REC-SVG-20010904/DTD/svg10.dtd">
<svg version="1.0" xmlns="http://www.w3.org/2000/svg"
 width="1280.000000pt" height="720.000000pt" viewBox="0 0 1280.000000 720.000000"
 preserveAspectRatio="xMidYMid meet">
<metadata>
Created by potrace 1.16, written by Peter Selinger 2001-2019
</metadata>
<g transform="translate(0.000000,720.000000) scale(0.100000,-0.100000)"
fill="#000000" stroke="none">
<path d="M9391 4186 c2 -2 94 -14 204 -25 251 -27 617 -83 800 -123 77 -17
158 -34 180 -38 117 -24 408 -105 487 -135 126 -49 208 -95 221 -123 10 -20 8
-27 -13 -43 -60 -45 -283 -106 -490 -133 -63 -8 -232 -25 -375 -37 -238 -20
-299 -21 -735 -16 -261 4 -648 16 -860 27 -212 11 -479 24 -595 30 -115 5
-316 15 -445 21 -507 25 -2023 13 -2655 -21 -326 -18 -838 -50 -950 -60 -60
-5 -202 -16 -315 -25 -214 -16 -706 -65 -920 -91 -69 -8 -163 -19 -210 -24
-527 -56 -1275 -190 -1585 -284 -268 -81 -398 -158 -441 -262 -55 -132 59
-233 316 -279 119 -21 383 -52 590 -70 212 -18 617 -29 550 -15 -42 9 -558 81
-680 95 -30 4 -84 13 -120 20 -36 8 -105 21 -155 30 -172 32 -307 78 -348 120
-17 17 -17 18 0 37 26 29 71 50 208 96 114 39 395 113 480 127 22 4 77 15 122
26 155 36 779 140 1108 184 105 14 235 32 290 40 55 8 163 22 240 30 77 9 237
27 355 40 118 13 269 29 335 35 66 6 138 13 160 16 41 5 258 23 585 48 208 17
458 32 1095 66 828 45 1652 40 3005 -20 544 -24 1124 -32 1445 -21 440 16 836
61 940 106 17 7 41 16 55 20 41 13 97 52 124 88 20 26 26 45 26 86 0 46 -4 56
-41 96 -72 78 -204 128 -534 199 -60 14 -139 29 -175 35 -36 5 -108 17 -160
25 -244 40 -293 47 -405 61 -224 27 -730 56 -714 41z"/>
</g>
</svg>
