<?xml version="1.0" standalone="no"?>
<!DOCTYPE svg PUBLIC "-//W3C//DTD SVG 20010904//EN"
 "http://www.w3.org/TR/2001/REC-SVG-20010904/DTD/svg10.dtd">
<svg version="1.0" xmlns="http://www.w3.org/2000/svg"
 width="1280.000000pt" height="720.000000pt" viewBox="0 0 1280.000000 720.000000"
 preserveAspectRatio="xMidYMid meet">
<metadata>
Created by potrace 1.16, written by Peter Selinger 2001-2019
</metadata>
<g transform="translate(0.000000,720.000000) scale(0.100000,-0.100000)"
fill="#000000" stroke="none">
<path d="M4296 5859 c-141 -18 -317 -95 -446 -194 -161 -124 -299 -332 -351
-530 -30 -115 -37 -323 -14 -436 51 -255 204 -466 446 -617 114 -72 267 -138
514 -222 532 -181 704 -280 836 -483 158 -242 112 -624 -97 -810 -118 -105
-255 -155 -449 -164 -481 -21 -816 187 -1030 640 -79 169 -158 425 -198 644
-7 36 -18 68 -24 71 -15 4 -18 -150 -15 -658 1 -162 2 -391 2 -507 l0 -213 24
0 c21 0 30 11 56 64 54 114 127 151 248 127 31 -6 118 -35 192 -64 377 -150
728 -177 1030 -82 309 98 553 335 664 645 49 135 59 208 60 430 2 229 8 260
80 379 34 56 146 171 167 171 5 0 9 -319 9 -835 l0 -835 598 1 c328 0 606 4
617 9 17 7 17 9 3 9 -16 1 -17 79 -18 1318 0 1283 -1 1317 -19 1337 -49 53
-116 202 -136 304 -20 97 -25 -24 -25 -547 l0 -568 -262 -6 c-160 -4 -296 -13
-348 -22 -98 -17 -111 -18 -90 -6 23 14 136 42 220 55 l75 11 3 764 2 763 473
-5 c377 -4 493 -8 575 -21 196 -32 354 -90 483 -176 131 -89 274 -259 359
-430 70 -140 135 -379 164 -605 79 -613 15 -1225 -165 -1587 -67 -136 -107
-196 -190 -283 -167 -176 -332 -250 -626 -280 l-63 -7 0 1221 0 1221 -45 2
c-25 1 -55 2 -66 2 l-22 1 -3 -1215 c-3 -668 -7 -1225 -9 -1238 l-5 -22 240 0
c277 0 389 10 547 50 546 138 910 550 1037 1172 21 103 46 368 46 490 0 314
-70 652 -184 894 -131 274 -331 494 -571 626 -220 121 -474 190 -795 218 -92
8 -399 10 -965 8 l-830 -3 -5 -847 -5 -846 -65 -50 c-93 -70 -160 -148 -209
-241 -23 -45 -44 -81 -46 -81 -2 0 -20 30 -39 68 -70 133 -222 284 -382 383
-125 76 -248 128 -599 249 -406 141 -512 196 -650 335 -72 72 -131 168 -161
262 -24 77 -30 246 -10 323 36 145 131 280 242 345 197 115 533 122 761 16
197 -93 364 -277 501 -557 60 -120 73 -152 134 -323 34 -97 52 -119 61 -79 3
13 4 250 3 528 -2 498 -3 505 -22 508 -16 2 -25 -7 -39 -38 -35 -77 -117 -130
-200 -130 -55 1 -118 21 -264 85 -256 112 -467 145 -715 114z m2722 -2545 l-3
-886 -195 1 -195 0 -3 886 -2 885 200 0 200 0 -2 -886z"/>
<path d="M2425 1775 c-5 -2 -22 -6 -36 -9 -33 -7 -66 -36 -79 -70 -30 -80 9
-136 119 -169 80 -24 104 -45 82 -71 -18 -22 -86 -20 -138 3 l-41 19 -21 -22
c-30 -32 -27 -42 22 -71 36 -20 57 -25 116 -25 82 0 123 16 145 58 44 86 10
149 -99 182 -87 25 -95 31 -95 61 0 23 5 29 23 31 40 2 70 -3 101 -19 29 -15
31 -15 53 13 13 16 23 32 23 36 0 23 -142 66 -175 53z"/>
<path d="M4011 1766 c-147 -48 -189 -247 -76 -359 36 -35 123 -61 178 -53 53
8 121 46 125 70 4 18 -24 56 -40 56 -6 0 -21 -9 -35 -20 -18 -14 -41 -20 -75
-20 -43 0 -54 4 -84 34 -58 58 -45 174 23 205 40 19 107 13 138 -10 l27 -22
26 27 c21 21 25 30 16 44 -28 47 -147 72 -223 48z"/>
<path d="M4865 1771 c-104 -26 -165 -104 -165 -211 0 -80 54 -163 123 -189 47
-18 153 -13 195 8 154 79 149 310 -8 374 -47 20 -108 27 -145 18z m123 -97
c67 -46 69 -149 5 -208 -53 -49 -155 -30 -189 35 -27 54 -7 137 44 177 23 17
113 15 140 -4z"/>
<path d="M3084 1757 c-2 -7 -3 -98 -2 -202 l3 -190 42 -3 42 -3 3 78 3 78 98
3 98 3 -3 37 -3 37 -98 3 -98 3 3 42 3 42 113 3 112 3 0 39 0 40 -155 0 c-117
0 -157 -3 -161 -13z"/>
<path d="M3556 1743 c-7 -16 -34 -77 -59 -138 -25 -60 -57 -135 -71 -165 -36
-77 -35 -82 21 -78 44 3 47 5 62 46 l15 42 83 0 83 0 22 -45 c21 -43 24 -45
65 -45 24 0 43 4 43 8 0 8 -44 117 -126 309 l-39 93 -42 0 c-36 0 -45 -4 -57
-27z"/>
<path d="M4304 1756 c-3 -8 -4 -25 -2 -38 3 -20 10 -24 63 -28 l60 -5 5 -160
5 -160 40 0 40 0 3 163 2 162 60 0 60 0 0 40 0 40 -165 0 c-134 0 -167 -3
-171 -14z"/>
<path d="M5239 1703 c-4 -195 -4 -319 -1 -330 2 -8 21 -13 43 -13 l39 0 0 49
c0 69 6 81 45 81 30 0 38 -7 77 -62 42 -61 45 -63 91 -66 26 -2 47 0 47 3 0 3
-18 33 -40 65 -22 32 -40 62 -40 65 0 3 16 21 35 41 32 32 35 40 35 94 0 48
-4 64 -26 89 -33 40 -77 51 -201 51 l-103 0 -1 -67z m231 -33 c25 -25 25 -51
2 -80 -16 -19 -29 -23 -83 -24 l-64 -1 -3 49 c-5 72 -1 76 68 76 47 0 64 -4
80 -20z"/>
<path d="M5877 1763 c-4 -3 -7 -96 -7 -205 l0 -198 86 0 c115 0 164 14 219 62
105 92 81 258 -46 322 -46 23 -65 26 -149 26 -53 0 -100 -3 -103 -7z m239
-107 c29 -29 34 -41 34 -80 0 -91 -47 -136 -139 -136 -49 0 -50 1 -56 34 -5
25 -1 188 4 214 1 1 28 2 62 2 56 0 64 -3 95 -34z"/>
<path d="M6473 1758 c-5 -7 -31 -65 -58 -128 -26 -63 -61 -146 -78 -184 -23
-55 -26 -70 -15 -77 7 -5 22 -7 33 -4 11 2 25 5 31 5 6 0 16 18 23 39 6 22 19
42 29 45 9 3 50 2 91 -2 71 -7 75 -8 84 -37 5 -16 14 -36 20 -42 10 -14 73
-18 80 -5 3 4 -26 81 -64 172 -104 249 -94 230 -133 230 -18 0 -38 -6 -43 -12z"/>
<path d="M6827 1763 c-16 -4 -17 -20 -15 -201 l3 -196 23 1 c12 0 29 1 37 2
12 1 15 22 15 126 0 69 4 125 9 125 5 0 31 -30 59 -67 145 -194 134 -182 175
-182 l37 -1 0 195 0 195 -40 0 -40 0 0 -120 c0 -66 -4 -120 -9 -120 -4 0 -46
48 -92 107 -46 59 -88 112 -94 119 -12 15 -44 23 -68 17z"/>
<path d="M7415 1756 c-46 -20 -96 -66 -111 -103 -8 -18 -14 -61 -14 -96 0 -73
19 -109 83 -161 52 -42 141 -48 206 -14 57 30 72 52 49 75 -17 16 -20 16 -57
-5 -25 -14 -56 -22 -86 -22 -40 0 -52 5 -80 33 -86 86 -35 237 80 237 25 0 60
-8 80 -17 34 -16 36 -16 56 4 l21 21 -20 20 c-39 39 -148 54 -207 28z"/>
<path d="M7757 1588 c-4 -95 -5 -182 -3 -193 3 -19 12 -20 149 -23 l147 -3 0
30 0 30 -107 3 -108 3 -3 29 c-2 15 -1 39 3 53 6 24 8 24 93 22 l87 -2 0 29 0
29 -93 3 -93 3 3 47 3 47 108 3 107 3 0 29 0 30 -143 0 -144 0 -6 -172z"/>
<path d="M8460 1743 c-103 -71 -136 -170 -91 -268 34 -75 85 -105 176 -105 63
0 96 11 124 41 19 21 20 24 5 41 -16 17 -18 17 -42 -2 -19 -15 -40 -20 -88
-20 -56 0 -65 3 -93 30 -52 52 -56 168 -7 216 23 24 34 27 94 26 37 0 83 -2
102 -4 26 -2 35 1 35 12 0 44 -164 69 -215 33z"/>
</g>
</svg>
