<?xml version="1.0" standalone="no"?>
<!DOCTYPE svg PUBLIC "-//W3C//DTD SVG 20010904//EN"
 "http://www.w3.org/TR/2001/REC-SVG-20010904/DTD/svg10.dtd">
<svg version="1.0" xmlns="http://www.w3.org/2000/svg"
 width="1280.000000pt" height="720.000000pt" viewBox="0 0 1280.000000 720.000000"
 preserveAspectRatio="xMidYMid meet">
<metadata>
Created by potrace 1.16, written by Peter Selinger 2001-2019
</metadata>
<g transform="translate(0.000000,720.000000) scale(0.100000,-0.100000)"
fill="#000000" stroke="none">
<path d="M4296 5859 c-141 -18 -317 -95 -446 -194 -161 -124 -299 -332 -351
-530 -30 -115 -37 -323 -14 -436 63 -311 263 -541 615 -708 58 -27 224 -90
370 -139 267 -91 383 -137 488 -194 307 -167 449 -409 412 -703 -28 -228 -137
-389 -325 -480 -98 -49 -171 -65 -315 -72 -475 -22 -812 189 -1025 640 -81
172 -173 476 -200 660 -7 43 -19 66 -31 55 -6 -6 -9 -466 -6 -965 l2 -413 24
0 c21 0 30 11 56 64 54 114 127 151 249 127 31 -6 119 -36 195 -66 575 -227
1100 -165 1440 171 114 113 195 240 250 392 50 139 59 203 61 417 1 182 3 205
24 257 32 81 90 164 163 233 l63 60 3 -827 2 -828 943 0 c518 0 999 5 1069 10
444 32 823 250 1055 607 132 202 219 453 260 743 21 152 23 506 4 655 -54 431
-206 763 -463 1011 -108 105 -192 166 -303 222 -222 112 -415 166 -710 197
-127 13 -279 15 -1000 13 l-850 -3 -5 -847 -5 -847 -45 -32 c-75 -54 -183
-170 -220 -237 -59 -106 -52 -104 -98 -26 -119 203 -320 368 -587 481 -60 25
-222 85 -360 133 -393 138 -463 169 -593 268 -101 76 -156 142 -207 247 -65
135 -82 270 -50 418 28 133 130 277 242 343 155 90 412 116 623 63 153 -39
275 -113 391 -236 151 -161 265 -364 365 -652 47 -134 59 -155 73 -132 5 8 8
246 8 530 -2 514 -2 516 -23 519 -16 2 -25 -7 -39 -38 -35 -77 -116 -130 -200
-130 -48 0 -133 25 -215 63 -129 60 -193 85 -275 106 -155 39 -331 50 -489 30z
m3369 -82 c273 -44 465 -134 625 -296 206 -208 333 -510 384 -916 31 -247 46
-668 25 -690 -3 -2 -77 22 -165 54 -287 105 -570 187 -818 235 -43 9 -80 16
-82 16 -2 0 -4 151 -4 335 l0 335 -32 0 c-119 1 -268 63 -363 152 -96 90 -164
215 -189 352 -20 105 -26 -17 -28 -544 l-3 -565 -265 -6 c-146 -3 -276 -9
-290 -12 -51 -12 -115 -17 -100 -8 20 12 131 39 200 49 l55 7 3 764 2 763 473
-5 c364 -3 495 -8 572 -20z m-647 -2462 l-3 -886 -195 0 -195 0 -3 873 c-1
480 0 879 3 886 3 9 53 12 200 12 l195 0 -2 -885z m837 780 c238 -50 600 -158
818 -244 33 -13 33 -21 11 -211 -49 -430 -170 -739 -369 -949 -121 -127 -226
-191 -395 -237 -81 -22 -214 -44 -266 -44 l-24 0 0 866 0 866 28 -6 c15 -3
104 -21 197 -41z"/>
</g>
</svg>
