<?xml version="1.0" standalone="no"?>
<!DOCTYPE svg PUBLIC "-//W3C//DTD SVG 20010904//EN"
 "http://www.w3.org/TR/2001/REC-SVG-20010904/DTD/svg10.dtd">
<svg version="1.0" xmlns="http://www.w3.org/2000/svg"
 width="1280.000000pt" height="720.000000pt" viewBox="0 0 1280.000000 720.000000"
 preserveAspectRatio="xMidYMid meet">
<metadata>
Created by potrace 1.16, written by Peter Selinger 2001-2019
</metadata>
<g transform="translate(0.000000,720.000000) scale(0.100000,-0.100000)"
fill="#000000" stroke="none">
<path d="M3115 3593 c-199 -12 -594 -64 -840 -110 -106 -19 -261 -60 -294 -77
-67 -35 -89 -104 -49 -151 38 -43 105 -45 260 -7 149 37 251 59 338 71 36 6
103 17 150 26 47 9 146 25 220 35 226 32 332 57 357 85 26 27 33 114 11 116
-7 0 -20 2 -29 4 -49 9 -79 11 -124 8z"/>
</g>
</svg>
