<?xml version="1.0" standalone="no"?>
<!DOCTYPE svg PUBLIC "-//W3C//DTD SVG 20010904//EN"
 "http://www.w3.org/TR/2001/REC-SVG-20010904/DTD/svg10.dtd">
<svg version="1.0" xmlns="http://www.w3.org/2000/svg"
 width="1280.000000pt" height="720.000000pt" viewBox="0 0 1280.000000 720.000000"
 preserveAspectRatio="xMidYMid meet">
<metadata>
Created by potrace 1.16, written by Peter Selinger 2001-2019
</metadata>
<g transform="translate(0.000000,720.000000) scale(0.100000,-0.100000)"
fill="#000000" stroke="none">
<path d="M4303 5860 c-184 -26 -373 -118 -516 -250 -128 -117 -243 -308 -288
-476 -30 -110 -37 -322 -15 -432 52 -255 206 -469 447 -620 114 -72 267 -139
494 -215 282 -96 367 -128 468 -176 231 -110 376 -250 443 -426 38 -100 46
-285 16 -400 -29 -116 -68 -190 -138 -265 -74 -78 -160 -131 -269 -166 -156
-50 -446 -42 -628 18 -250 82 -457 274 -597 555 -50 101 -110 248 -110 270 0
7 -4 21 -9 31 -11 19 -66 191 -75 233 -3 15 -14 29 -24 32 -17 4 -20 -4 -26
-86 -3 -49 -6 -319 -6 -599 l0 -508 26 0 c21 0 29 9 50 58 31 68 56 97 109
124 64 33 143 21 329 -52 240 -93 387 -127 603 -137 340 -16 628 87 848 304
189 186 296 428 312 708 19 330 -169 643 -507 843 -125 74 -257 129 -595 247
-392 136 -504 194 -642 331 -119 119 -183 276 -183 450 0 101 15 166 61 260
45 93 122 177 203 223 28 16 92 42 141 57 80 23 107 26 235 26 102 0 167 -5
220 -17 333 -77 583 -361 769 -874 31 -85 61 -156 68 -158 7 -3 14 10 18 29 3
18 5 256 3 528 -3 492 -3 495 -24 498 -16 2 -25 -7 -39 -38 -58 -128 -193
-161 -359 -89 -302 131 -407 159 -611 164 -77 2 -168 0 -202 -5z"/>
</g>
</svg>
