<?xml version="1.0" standalone="no"?>
<!DOCTYPE svg PUBLIC "-//W3C//DTD SVG 20010904//EN"
 "http://www.w3.org/TR/2001/REC-SVG-20010904/DTD/svg10.dtd">
<svg version="1.0" xmlns="http://www.w3.org/2000/svg"
 width="1280.000000pt" height="720.000000pt" viewBox="0 0 1280.000000 720.000000"
 preserveAspectRatio="xMidYMid meet">
<metadata>
Created by potrace 1.16, written by Peter Selinger 2001-2019
</metadata>
<g transform="translate(0.000000,720.000000) scale(0.100000,-0.100000)"
fill="#000000" stroke="none">
<path d="M4301 5859 c-177 -23 -378 -121 -520 -253 -124 -116 -238 -308 -282
-472 -30 -112 -37 -323 -15 -431 52 -256 205 -470 447 -622 116 -72 266 -136
544 -231 370 -127 463 -168 616 -277 166 -118 256 -267 278 -460 19 -172 -24
-345 -117 -473 -66 -91 -209 -182 -337 -215 -88 -23 -274 -30 -391 -15 -286
36 -498 156 -668 380 -155 203 -270 500 -349 899 -14 74 -32 90 -38 34 -5 -44
-5 -376 -1 -945 l2 -398 25 0 c21 0 29 10 53 63 51 111 132 154 248 129 28 -5
115 -35 195 -66 389 -152 738 -177 1041 -76 307 103 542 334 652 640 49 135
59 201 61 405 2 198 6 219 54 313 34 66 163 202 192 202 5 0 9 -331 9 -805 l0
-805 813 2 812 3 3 873 c2 773 4 872 17 872 40 0 426 -85 550 -121 223 -65
529 -171 690 -240 11 -4 49 -20 84 -34 35 -15 75 -34 88 -42 13 -9 26 -13 29
-10 12 12 -243 129 -466 214 -303 115 -642 218 -872 264 l-118 23 0 333 0 333
-32 0 c-119 1 -268 63 -363 152 -96 90 -164 215 -189 352 -20 104 -26 -16 -28
-524 l-3 -545 -190 4 c-125 2 -193 7 -197 15 -10 15 -10 1494 0 1498 4 2 223
0 487 -3 428 -5 493 -8 595 -27 283 -52 492 -166 654 -357 31 -36 64 -81 72
-98 9 -18 20 -34 23 -37 11 -9 57 -84 76 -125 18 -38 21 -39 36 -24 13 13 37
16 143 15 93 -2 126 1 126 10 0 7 18 15 40 19 22 4 40 11 40 16 0 5 18 9 39 9
24 0 41 5 44 14 8 21 -45 89 -150 192 -231 226 -514 350 -938 411 -119 16
-208 18 -1020 18 l-890 0 -5 -846 -5 -847 -60 -44 c-87 -65 -175 -163 -218
-246 -34 -64 -57 -90 -57 -63 0 22 -72 131 -135 204 -165 194 -356 300 -825
462 -445 153 -552 207 -697 351 -57 57 -80 90 -116 165 -52 107 -67 170 -67
273 0 108 17 182 62 274 88 179 241 277 475 303 168 19 345 -7 480 -70 197
-93 362 -275 501 -556 61 -124 78 -165 134 -324 36 -102 54 -122 62 -69 4 18
5 256 4 528 -3 493 -3 495 -24 498 -16 2 -25 -7 -39 -38 -57 -127 -192 -161
-359 -89 -261 113 -338 138 -489 158 -89 12 -232 12 -326 0z m2714 -2551 l0
-877 -195 -3 -195 -3 -3 877 -2 877 42 4 c24 2 113 3 198 3 l155 -1 0 -877z"/>
</g>
</svg>
