<?xml version="1.0" standalone="no"?>
<!DOCTYPE svg PUBLIC "-//W3C//DTD SVG 20010904//EN"
 "http://www.w3.org/TR/2001/REC-SVG-20010904/DTD/svg10.dtd">
<svg version="1.0" xmlns="http://www.w3.org/2000/svg"
 width="1280.000000pt" height="720.000000pt" viewBox="0 0 1280.000000 720.000000"
 preserveAspectRatio="xMidYMid meet">
<metadata>
Created by potrace 1.16, written by Peter Selinger 2001-2019
</metadata>
<g transform="translate(0.000000,720.000000) scale(0.100000,-0.100000)"
fill="#000000" stroke="none">
<path d="M4296 5859 c-141 -18 -317 -95 -446 -194 -161 -124 -299 -332 -351
-530 -30 -115 -37 -323 -14 -436 51 -255 204 -466 446 -617 112 -71 265 -137
494 -215 387 -132 488 -175 632 -269 232 -151 345 -384 313 -643 -28 -228
-137 -389 -325 -480 -98 -49 -171 -65 -315 -72 -475 -22 -811 188 -1025 640
-79 167 -158 424 -198 644 -12 65 -30 92 -39 56 -2 -10 -3 -225 -2 -478 2
-253 3 -556 3 -672 l1 -213 24 0 c21 0 30 11 56 64 54 114 127 151 248 127 31
-6 118 -35 192 -64 377 -150 728 -177 1030 -82 308 98 553 335 664 643 50 141
60 211 61 432 0 203 0 206 29 275 16 39 43 93 61 120 33 52 136 155 154 155 8
0 11 -254 11 -835 l0 -835 600 2 601 3 -3 705 c-2 388 -3 984 -3 1325 l0 620
-26 35 c-58 77 -103 182 -124 288 -20 97 -25 -24 -25 -547 l0 -568 -262 -7
c-145 -3 -288 -10 -318 -15 -30 -5 -73 -12 -95 -16 -59 -9 -24 10 55 30 36 10
99 23 140 29 l75 12 3 759 c1 432 6 761 11 764 5 4 215 3 468 0 362 -4 481 -9
566 -23 279 -44 465 -132 627 -295 283 -285 414 -736 414 -1421 -1 -553 -87
-937 -276 -1232 -49 -76 -169 -200 -243 -253 -124 -88 -285 -141 -487 -160
l-68 -7 -1 869 c0 477 0 1024 1 1214 1 191 -2 349 -7 352 -4 3 -34 7 -65 8
l-56 4 -7 -1224 c-3 -674 -7 -1229 -8 -1235 -1 -8 87 -11 293 -10 263 1 306 3
400 23 544 115 922 469 1079 1014 43 149 58 233 77 423 41 421 -22 833 -176
1149 -78 161 -144 258 -252 370 -208 218 -442 343 -783 418 -239 53 -357 58
-1285 55 l-835 -3 -3 -846 -2 -846 -69 -52 c-93 -69 -162 -148 -211 -243 -23
-43 -43 -78 -45 -78 -2 0 -20 30 -39 68 -46 86 -153 211 -243 284 -165 133
-317 205 -726 344 -400 136 -523 199 -662 339 -72 72 -131 168 -161 262 -24
77 -30 246 -10 323 36 145 131 280 242 345 197 115 533 122 761 16 197 -93
363 -277 502 -557 56 -114 77 -165 138 -338 29 -83 47 -103 56 -64 3 13 4 250
3 528 -2 498 -3 505 -22 508 -16 2 -25 -7 -39 -38 -35 -77 -117 -130 -200
-130 -55 1 -118 21 -264 85 -256 112 -467 145 -715 114z m2719 -2543 l0 -888
-195 1 -195 1 -3 885 -2 884 157 3 c87 2 176 3 198 3 l40 0 0 -889z"/>
<path d="M2420 1773 c-51 -9 -78 -25 -98 -62 -26 -46 -27 -72 -7 -111 18 -35
38 -47 124 -75 79 -26 97 -48 61 -76 -28 -24 -70 -20 -131 11 l-36 19 -23 -24
c-29 -31 -22 -47 32 -74 32 -15 63 -21 114 -21 114 0 161 44 151 139 -6 52
-28 73 -102 97 -101 32 -105 34 -105 65 0 23 5 29 23 31 40 2 70 -3 101 -19
29 -15 31 -15 53 13 13 16 23 33 23 37 0 23 -129 59 -180 50z"/>
<path d="M3084 1757 c-2 -7 -3 -98 -2 -202 l3 -190 42 -3 42 -3 3 78 3 78 98
3 97 3 0 34 0 35 -87 0 c-49 0 -94 4 -101 9 -8 5 -12 23 -10 47 l3 39 113 3
112 3 0 39 0 40 -155 0 c-117 0 -157 -3 -161 -13z"/>
<path d="M3551 1728 c-79 -176 -150 -351 -145 -359 3 -5 23 -9 44 -9 36 0 39
2 56 45 l17 45 86 0 87 0 19 -42 c18 -40 23 -43 63 -46 23 -2 42 0 42 4 0 8
-98 245 -141 342 -28 61 -29 62 -68 62 -38 0 -42 -3 -60 -42z"/>
<path d="M3991 1754 c-64 -27 -108 -93 -118 -173 -7 -64 29 -146 83 -187 33
-25 47 -29 118 -32 72 -3 85 -1 115 20 53 36 61 55 31 78 -24 18 -25 18 -50 0
-48 -34 -131 -30 -170 8 -56 56 -47 167 16 209 35 22 103 22 138 0 14 -10 32
-17 39 -17 14 0 53 48 45 55 -2 1 -21 14 -42 29 -32 22 -50 26 -105 26 -36 -1
-81 -7 -100 -16z"/>
<path d="M4312 1733 l3 -38 57 -3 58 -3 2 -162 3 -162 40 0 40 0 3 163 2 162
60 0 60 0 0 40 0 40 -166 0 -165 0 3 -37z"/>
<path d="M4825 1756 c-156 -69 -163 -308 -11 -377 52 -23 145 -25 189 -3 81
41 120 102 121 190 2 121 -84 204 -208 204 -34 -1 -74 -7 -91 -14z m170 -82
c52 -34 61 -150 15 -199 -50 -53 -140 -53 -190 0 -33 36 -39 118 -10 163 37
60 123 76 185 36z"/>
<path d="M5244 1757 c-2 -7 -3 -98 -2 -202 l3 -190 35 0 35 0 5 60 5 60 40 3
c39 3 41 1 80 -57 38 -58 42 -60 83 -61 23 0 42 2 42 6 0 3 -18 31 -39 63
l-40 58 36 36 c31 30 37 44 41 90 4 51 2 57 -29 91 -41 44 -81 55 -202 56 -62
0 -89 -4 -93 -13z m228 -87 c24 -29 23 -65 -2 -90 -16 -16 -33 -20 -85 -20
l-65 0 0 63 c0 35 3 67 8 71 4 5 34 6 67 3 45 -4 64 -11 77 -27z"/>
<path d="M5872 1568 l3 -193 97 -3 c106 -3 142 7 202 54 66 53 76 186 20 259
-45 59 -90 75 -217 75 l-107 0 2 -192z m237 106 c64 -54 66 -154 3 -211 -28
-26 -44 -33 -76 -33 -88 0 -86 -2 -86 125 0 63 3 120 6 129 5 12 20 16 64 16
48 0 64 -5 89 -26z"/>
<path d="M6470 1728 c-11 -18 -23 -44 -27 -58 -3 -14 -12 -34 -19 -45 -7 -11
-25 -51 -39 -88 -14 -38 -34 -86 -45 -107 -27 -53 -25 -60 13 -60 31 0 35 4
47 41 8 22 21 44 30 49 10 5 53 6 96 2 82 -7 90 -13 108 -74 4 -13 16 -18 41
-18 19 0 35 3 35 6 0 3 -16 40 -36 82 -20 42 -51 116 -69 164 -19 48 -42 99
-51 113 -24 36 -59 33 -84 -7z"/>
</g>
</svg>
