<?xml version="1.0" standalone="no"?>
<!DOCTYPE svg PUBLIC "-//W3C//DTD SVG 20010904//EN"
 "http://www.w3.org/TR/2001/REC-SVG-20010904/DTD/svg10.dtd">
<svg version="1.0" xmlns="http://www.w3.org/2000/svg"
 width="1280.000000pt" height="720.000000pt" viewBox="0 0 1280.000000 720.000000"
 preserveAspectRatio="xMidYMid meet">
<metadata>
Created by potrace 1.16, written by Peter Selinger 2001-2019
</metadata>
<g transform="translate(0.000000,720.000000) scale(0.100000,-0.100000)"
fill="#000000" stroke="none">
<path d="M4308 5860 c-370 -44 -704 -343 -810 -728 -18 -63 -22 -106 -22 -242
-1 -183 6 -226 61 -359 95 -232 273 -403 563 -540 82 -38 406 -155 610 -221
14 -4 68 -27 120 -50 374 -165 544 -380 543 -685 0 -182 -58 -337 -163 -443
-133 -132 -300 -192 -538 -192 -108 0 -266 23 -352 51 -409 135 -675 531 -805
1200 -10 48 -21 92 -25 99 -26 42 -29 -17 -25 -503 2 -276 4 -584 5 -684 l0
-183 24 0 c20 0 30 12 58 67 44 89 88 123 164 130 64 5 113 -8 316 -86 477
-183 940 -157 1267 72 87 61 193 167 253 252 144 204 206 430 193 705 -6 138
-5 149 19 226 14 44 43 107 64 140 37 56 143 164 163 164 5 0 9 -334 9 -835
l0 -835 608 4 c334 2 666 8 737 13 109 8 132 7 141 -5 9 -13 55 -14 305 -9
248 5 310 9 394 27 648 138 1043 602 1142 1340 25 184 24 488 0 670 -30 219
-90 426 -169 584 -84 168 -148 257 -273 382 -202 202 -390 305 -703 383 -260
66 -263 66 -1267 66 l-910 0 -5 -847 -5 -846 -76 -60 c-97 -76 -149 -138 -200
-234 -22 -43 -42 -78 -43 -78 -2 0 -14 19 -26 43 -70 133 -210 286 -345 375
-139 93 -356 187 -650 282 -334 108 -510 198 -639 323 -81 80 -131 158 -167
263 -32 92 -35 288 -5 374 45 134 130 246 232 305 213 125 550 123 800 -3 226
-114 424 -390 571 -797 57 -158 68 -179 82 -156 5 7 8 245 7 529 -1 515 -1
517 -22 520 -16 2 -25 -7 -39 -38 -24 -54 -84 -106 -136 -120 -82 -22 -148 -5
-384 98 -199 87 -418 118 -647 92z m3218 -70 c246 -20 429 -72 583 -165 226
-136 393 -370 487 -680 127 -418 147 -1139 43 -1585 -70 -305 -168 -506 -328
-673 -94 -98 -194 -165 -307 -206 -83 -30 -282 -71 -345 -71 l-29 0 0 1220 0
1220 -32 0 c-18 0 -50 3 -70 6 l-37 7 -3 -975 c-3 -897 -4 -976 -20 -991 -22
-22 -28 -21 -28 3 0 13 -7 20 -20 20 -13 0 -20 7 -20 20 0 13 -7 20 -20 20
-13 0 -20 7 -20 20 0 18 -7 20 -59 20 l-58 0 -8 -42 c-4 -24 -10 -86 -14 -138
-10 -158 -22 677 -21 1477 l1 732 -29 38 c-57 72 -106 185 -127 291 -19 93
-25 -31 -27 -548 l-3 -565 -250 -7 c-224 -5 -312 -13 -425 -34 -24 -5 -32 -3
-25 4 10 10 211 58 270 64 l30 3 3 763 2 762 389 0 c213 0 446 -5 517 -10z
m-506 -2475 l0 -885 -27 0 c-16 -1 -104 -2 -198 -3 l-170 -2 -3 875 c-1 481 0
881 3 888 3 9 53 12 200 12 l195 0 0 -885z"/>
<path d="M2411 1769 c-69 -9 -123 -81 -107 -143 11 -43 40 -67 120 -95 93 -32
113 -53 77 -82 -30 -25 -65 -24 -124 5 l-48 23 -20 -25 c-11 -14 -18 -30 -16
-35 1 -5 24 -21 50 -34 88 -46 219 -28 251 36 43 83 5 149 -107 182 -82 24
-97 34 -97 60 0 41 84 47 138 11 23 -15 25 -14 43 9 10 13 19 31 19 41 0 29
-106 58 -179 47z"/>
<path d="M4033 1771 c-89 -23 -153 -96 -161 -185 -2 -29 1 -71 8 -91 41 -124
194 -179 312 -113 48 27 58 56 28 80 -22 18 -23 18 -56 -3 -60 -37 -146 -24
-180 28 -21 33 -22 109 -1 149 33 63 123 79 184 31 l26 -21 24 28 c30 35 27
45 -24 74 -46 25 -113 35 -160 23z"/>
<path d="M4875 1774 c-112 -27 -175 -102 -175 -209 0 -63 22 -115 67 -157 38
-36 73 -48 144 -48 98 0 165 38 200 115 34 74 19 176 -34 233 -44 47 -144 80
-202 66z m115 -104 c35 -25 54 -78 45 -129 -11 -66 -76 -116 -137 -104 -66 13
-108 60 -108 123 0 37 13 65 48 103 21 22 34 27 75 27 33 0 58 -7 77 -20z"/>
<path d="M7435 1769 c-53 -12 -113 -62 -136 -113 -22 -48 -25 -133 -5 -179 50
-120 234 -163 329 -77 l32 29 -26 27 -27 26 -30 -22 c-33 -25 -104 -30 -140
-11 -34 18 -62 71 -62 116 0 46 28 98 62 116 34 18 100 15 136 -6 31 -19 32
-19 56 4 30 29 26 42 -23 69 -46 26 -111 34 -166 21z"/>
<path d="M8500 1771 c-80 -17 -138 -70 -159 -146 -23 -84 -6 -150 54 -210 33
-34 54 -45 97 -54 75 -16 147 0 188 42 l30 31 -22 23 -23 23 -50 -25 c-52 -27
-83 -27 -137 1 -40 21 -63 89 -48 144 24 88 96 119 180 78 l50 -25 22 24 c17
18 20 28 12 41 -24 39 -126 67 -194 53z"/>
<path d="M3084 1757 c-2 -7 -3 -98 -2 -202 l3 -190 42 -3 42 -3 3 78 3 78 98
3 97 3 0 34 0 34 -97 3 -98 3 -3 47 -3 47 113 3 113 3 3 38 3 37 -156 0 c-117
0 -157 -3 -161 -13z"/>
<path d="M3567 1763 c-11 -18 -167 -387 -167 -395 0 -4 20 -8 44 -8 42 0 44 1
60 45 l18 45 86 0 87 -1 20 -42 c18 -39 23 -42 63 -45 23 -2 42 1 42 6 0 5
-37 96 -83 203 l-82 194 -42 3 c-23 2 -44 -1 -46 -5z"/>
<path d="M4304 1756 c-3 -8 -4 -25 -2 -38 3 -21 9 -23 65 -26 l63 -3 2 -162 3
-162 40 0 40 0 3 163 2 162 60 0 60 0 0 40 0 40 -165 0 c-134 0 -167 -3 -171
-14z"/>
<path d="M5239 1678 c-1 -51 -2 -138 -3 -193 -1 -55 0 -106 2 -112 3 -8 21
-13 43 -13 24 0 39 5 40 13 1 6 2 17 4 22 1 6 3 29 3 53 2 41 3 42 36 42 31 0
39 -6 78 -62 42 -61 45 -63 91 -66 26 -2 47 0 47 4 0 4 -18 36 -41 71 l-41 62
35 34 c64 59 59 152 -10 205 -34 25 -43 27 -160 30 l-123 4 -1 -94z m231 -8
c24 -24 25 -48 5 -77 -18 -26 -117 -42 -141 -23 -14 13 -20 100 -7 113 3 4 33
7 65 7 45 0 63 -5 78 -20z"/>
<path d="M5870 1565 l0 -205 88 0 c108 1 152 10 204 47 118 81 100 271 -32
338 -43 22 -62 25 -155 25 l-105 0 0 -205z m218 111 c75 -41 82 -161 14 -211
-19 -14 -43 -20 -82 -20 l-55 0 -3 123 -3 122 53 0 c29 -1 63 -6 76 -14z"/>
<path d="M6390 1578 c-45 -106 -82 -197 -83 -203 -1 -5 17 -11 41 -13 42 -3
43 -2 62 42 l19 46 84 0 84 0 17 -45 c17 -44 19 -45 62 -45 24 0 44 3 44 8 0
4 -37 96 -82 204 l-83 198 -42 0 -41 0 -82 -192z"/>
<path d="M6810 1565 l0 -205 40 0 40 0 0 119 c0 66 4 122 8 125 5 3 22 -13 38
-35 16 -22 60 -78 98 -125 61 -75 72 -84 102 -84 l34 0 0 205 0 205 -40 0 -40
0 0 -120 c0 -67 -4 -120 -9 -120 -5 0 -52 54 -103 120 -89 115 -94 120 -130
120 l-38 0 0 -205z"/>
<path d="M7750 1565 l0 -205 155 0 155 0 0 40 0 40 -110 0 -110 0 0 45 0 45
95 0 95 0 0 35 0 34 -92 3 -93 3 -3 43 -3 42 111 0 111 0 -3 38 -3 37 -152 3
-153 3 0 -206z"/>
<path d="M8810 1566 l0 -206 40 0 c25 0 40 5 41 13 1 6 2 30 4 52 3 65 3 65
43 64 34 0 40 -5 77 -62 39 -60 41 -62 88 -65 26 -2 47 0 47 4 0 4 -19 36 -41
71 l-41 63 26 21 c56 44 72 118 36 176 -35 58 -61 68 -197 72 l-123 3 0 -206z
m230 104 c25 -25 26 -62 1 -84 -14 -13 -33 -16 -82 -14 l-63 3 -3 45 c-5 67
-1 70 67 70 47 0 64 -4 80 -20z"/>
<path d="M9259 1763 c-1 -22 -2 -172 -1 -281 l2 -123 153 3 152 3 0 35 0 35
-110 5 -110 5 0 40 0 40 95 5 95 5 0 30 0 30 -95 5 -95 5 0 40 0 40 110 5 110
5 0 35 0 35 -152 3 c-84 1 -153 -1 -154 -5z"/>
<path d="M9640 1758 c0 -19 121 -371 133 -385 12 -17 62 -17 75 0 6 6 27 63
48 125 21 61 40 112 44 112 3 0 23 -51 44 -112 22 -62 44 -119 49 -125 5 -7
22 -13 37 -13 15 0 32 6 38 13 10 13 132 369 132 387 0 5 -19 10 -43 10 l-43
0 -39 -126 c-22 -69 -42 -127 -46 -130 -4 -2 -27 53 -50 124 l-44 127 -35 3
-35 3 -43 -131 c-24 -71 -45 -130 -47 -130 -2 0 -23 59 -47 130 l-42 130 -43
0 c-28 0 -43 -4 -43 -12z"/>
</g>
</svg>
