<?xml version="1.0" standalone="no"?>
<!DOCTYPE svg PUBLIC "-//W3C//DTD SVG 20010904//EN"
 "http://www.w3.org/TR/2001/REC-SVG-20010904/DTD/svg10.dtd">
<svg version="1.0" xmlns="http://www.w3.org/2000/svg"
 width="1280.000000pt" height="720.000000pt" viewBox="0 0 1280.000000 720.000000"
 preserveAspectRatio="xMidYMid meet">
<metadata>
Created by potrace 1.16, written by Peter Selinger 2001-2019
</metadata>
<g transform="translate(0.000000,720.000000) scale(0.100000,-0.100000)"
fill="#000000" stroke="none">
<path d="M4303 5859 c-312 -40 -601 -259 -744 -563 -59 -127 -80 -218 -86
-377 -6 -161 10 -258 63 -387 38 -93 49 -112 111 -194 157 -207 364 -332 793
-476 524 -177 703 -279 837 -480 136 -204 128 -533 -18 -733 -74 -101 -210
-189 -349 -226 -81 -21 -350 -24 -455 -5 -335 61 -581 266 -749 622 -79 167
-153 408 -198 645 -10 49 -18 70 -28 70 -13 0 -15 -64 -13 -475 1 -261 2 -571
2 -687 l1 -213 24 0 c21 0 30 11 56 64 54 114 127 151 248 127 31 -6 115 -34
187 -63 517 -203 977 -183 1321 60 133 94 255 236 329 382 90 180 133 433 106
625 -16 120 52 289 163 402 40 40 77 73 84 73 9 0 12 -186 12 -835 l0 -835
604 0 c556 0 641 3 607 25 -7 3 -10 480 -11 1317 0 1277 -1 1313 -19 1333 -49
52 -116 201 -136 303 -20 99 -25 -11 -25 -542 l0 -573 -262 -7 c-241 -5 -294
-10 -413 -31 -26 -5 -37 -4 -30 2 12 12 165 50 245 61 l55 7 3 764 2 763 478
-5 c497 -5 551 -9 721 -53 313 -81 539 -269 691 -573 204 -408 259 -1267 120
-1848 -67 -277 -168 -478 -319 -636 -108 -113 -197 -169 -340 -217 -76 -25
-261 -60 -320 -60 l-21 0 0 1220 0 1220 -40 2 c-22 1 -52 2 -66 2 l-27 1 -2
-615 c-1 -338 -3 -894 -4 -1235 l-2 -620 293 1 c260 1 305 4 398 23 646 135
1047 601 1146 1331 25 182 25 516 0 685 -49 340 -148 597 -317 826 -65 87
-228 243 -315 301 -201 133 -434 215 -754 265 -104 16 -199 18 -1025 18 l-910
0 -5 -846 -5 -846 -75 -60 c-98 -77 -150 -139 -201 -237 l-41 -78 -41 68
c-128 217 -320 375 -598 493 -63 27 -207 80 -321 119 -450 154 -568 213 -709
352 -75 74 -125 154 -160 256 -32 92 -35 288 -5 374 61 180 187 309 355 361
153 47 380 46 537 -2 134 -41 220 -94 329 -204 165 -164 268 -339 379 -642 34
-92 66 -168 73 -170 6 -2 14 9 17 24 2 15 4 253 3 528 -2 497 -2 500 -23 503
-16 2 -25 -7 -39 -38 -24 -54 -84 -106 -137 -121 -82 -22 -143 -6 -385 100
-195 86 -432 119 -650 90z m2715 -2544 l-3 -886 -195 0 -195 0 -3 886 -2 885
200 0 200 0 -2 -885z"/>
<path d="M2399 1771 c-49 -16 -71 -33 -85 -66 -36 -88 1 -144 120 -179 75 -23
98 -44 77 -70 -20 -23 -98 -21 -140 5 l-33 20 -24 -22 c-34 -32 -30 -45 19
-74 35 -20 57 -25 111 -25 116 0 166 39 166 130 0 52 -28 81 -101 104 -104 33
-109 36 -109 66 0 39 46 47 109 19 l46 -20 22 28 c13 15 23 31 23 35 0 4 -17
16 -39 27 -44 23 -125 34 -162 22z"/>
<path d="M4017 1767 c-119 -39 -180 -178 -128 -292 53 -118 215 -160 322 -84
33 23 37 49 11 72 -24 22 -28 21 -59 -3 -40 -31 -114 -28 -153 8 -58 51 -58
147 1 196 40 34 113 36 154 5 l27 -22 26 27 c22 21 25 30 16 44 -31 48 -142
74 -217 49z"/>
<path d="M4841 1765 c-85 -27 -141 -106 -141 -200 0 -140 118 -234 259 -206
104 21 171 101 171 205 0 152 -137 248 -289 201z m138 -90 c70 -36 79 -149 15
-204 -95 -84 -234 12 -194 133 24 75 108 108 179 71z"/>
<path d="M7425 1769 c-42 -12 -115 -76 -131 -116 -8 -18 -14 -59 -14 -91 0
-80 31 -137 94 -177 41 -25 58 -29 115 -29 67 0 99 11 139 47 28 26 28 43 -2
62 -22 15 -26 14 -57 -4 -45 -28 -117 -28 -152 -1 -32 25 -51 81 -44 126 16
98 116 140 198 83 26 -18 26 -18 51 9 14 15 23 33 21 41 -3 7 -28 24 -57 37
-53 25 -107 29 -161 13z"/>
<path d="M8476 1768 c-21 -6 -58 -29 -81 -52 -119 -115 -66 -317 93 -356 70
-16 150 1 193 41 l32 30 -23 24 c-28 30 -35 31 -67 5 -39 -30 -113 -27 -152 6
-60 50 -60 148 0 198 40 34 113 36 154 5 l27 -22 26 27 c21 21 25 30 16 44
-28 45 -141 72 -218 50z"/>
<path d="M3082 1568 l3 -203 42 -3 42 -3 3 78 3 78 98 3 98 3 -3 37 -3 37 -98
3 -98 3 3 42 3 42 113 3 112 3 0 39 0 40 -160 0 -160 0 2 -202z"/>
<path d="M3556 1743 c-7 -16 -34 -77 -59 -138 -25 -60 -57 -135 -71 -165 -35
-75 -34 -80 19 -80 43 0 45 1 64 45 l20 45 81 0 81 0 20 -45 c19 -44 21 -45
64 -45 25 0 45 3 45 8 0 4 -37 96 -82 205 l-82 197 -43 0 c-36 0 -45 -4 -57
-27z"/>
<path d="M4304 1756 c-3 -8 -4 -25 -2 -38 3 -20 10 -24 63 -28 l60 -5 3 -163
3 -163 42 3 42 3 3 163 2 162 60 0 c55 0 60 2 66 25 13 53 8 55 -171 55 -134
0 -167 -3 -171 -14z"/>
<path d="M5234 1757 c-2 -7 -3 -98 -2 -202 l3 -190 39 -3 c48 -4 56 6 56 76
l0 52 34 0 c30 0 38 -6 76 -65 l42 -65 49 0 c27 0 49 4 49 9 0 5 -19 37 -42
70 l-41 60 28 22 c56 45 70 124 32 180 -37 56 -76 69 -205 69 -82 0 -114 -3
-118 -13z m235 -82 c21 -21 22 -61 4 -84 -15 -18 -29 -22 -77 -22 -39 -1 -61
3 -67 12 -11 17 -12 93 -1 103 10 11 130 2 141 -9z"/>
<path d="M5870 1564 l0 -206 120 4 c114 4 122 6 162 34 67 47 89 94 86 181 -3
62 -7 76 -34 110 -52 65 -101 83 -226 83 l-108 0 0 -206z m218 112 c54 -29 78
-109 49 -166 -21 -42 -75 -71 -127 -68 l-45 3 -3 123 -3 122 53 0 c29 -1 63
-6 76 -14z"/>
<path d="M6464 1757 c-2 -7 -40 -96 -83 -197 -43 -102 -77 -188 -74 -192 2 -5
22 -8 44 -8 38 0 41 2 60 45 l20 45 80 0 79 0 22 -45 c21 -43 24 -45 65 -45
24 0 43 4 43 8 0 7 -53 139 -157 390 -7 17 -92 16 -99 -1z"/>
<path d="M6809 1765 c0 -3 0 -90 0 -195 0 -104 0 -195 0 -201 1 -6 19 -9 44
-7 l42 3 3 118 c1 64 6 117 10 117 4 0 16 -15 28 -33 11 -17 54 -72 94 -120
69 -84 74 -88 109 -85 35 3 36 4 36 41 -1 20 -2 111 -3 202 l-2 165 -40 0
c-31 0 -40 -4 -40 -17 -2 -91 -9 -215 -12 -219 -3 -2 -47 50 -98 116 -90 117
-93 120 -131 120 -22 0 -39 -2 -40 -5z"/>
<path d="M7748 1578 c-3 -106 -3 -199 0 -205 3 -10 44 -13 158 -13 l154 0 0
40 0 40 -111 0 -110 0 3 43 3 42 93 3 92 3 0 34 0 34 -92 3 -93 3 -3 43 -3 42
110 0 111 0 0 40 0 40 -154 0 -153 0 -5 -192z"/>
<path d="M8804 1757 c-2 -7 -3 -98 -2 -202 l3 -190 45 0 45 0 3 63 3 62 34 0
c32 0 39 -6 77 -65 43 -64 43 -65 91 -65 26 0 47 3 47 7 0 4 -18 35 -41 69
l-40 62 37 34 c71 65 53 176 -36 220 -44 23 -257 26 -266 5z m236 -87 c11 -11
20 -29 20 -40 0 -39 -35 -60 -100 -60 l-60 0 0 60 0 60 60 0 c47 0 64 -4 80
-20z"/>
<path d="M9255 1757 c-3 -7 -4 -98 -3 -202 l3 -190 158 -3 157 -3 0 41 0 40
-109 0 c-102 0 -110 1 -116 21 -4 11 -4 31 -1 44 6 23 11 24 99 27 l92 3 3 33
3 32 -95 0 c-93 0 -96 1 -102 24 -14 57 -8 61 111 66 l110 5 0 35 0 35 -153 3
c-118 2 -154 0 -157 -11z"/>
<path d="M9640 1757 c0 -11 106 -334 125 -380 6 -14 17 -17 48 -15 l40 3 39
114 c21 63 41 118 46 123 4 4 20 -30 36 -75 63 -183 54 -168 99 -165 l40 3 63
190 c35 104 64 195 64 202 0 9 -15 13 -44 13 l-45 0 -26 -87 c-14 -49 -34
-108 -42 -132 l-17 -44 -17 49 c-10 27 -31 85 -46 129 -28 79 -29 80 -65 83
-34 3 -37 1 -48 -35 -41 -129 -74 -213 -80 -206 -4 4 -24 61 -45 126 l-37 117
-44 0 c-29 0 -44 -4 -44 -13z"/>
</g>
</svg>
