<?xml version="1.0" standalone="no"?>
<!DOCTYPE svg PUBLIC "-//W3C//DTD SVG 20010904//EN"
 "http://www.w3.org/TR/2001/REC-SVG-20010904/DTD/svg10.dtd">
<svg version="1.0" xmlns="http://www.w3.org/2000/svg"
 width="1280.000000pt" height="720.000000pt" viewBox="0 0 1280.000000 720.000000"
 preserveAspectRatio="xMidYMid meet">
<metadata>
Created by potrace 1.16, written by Peter Selinger 2001-2019
</metadata>
<g transform="translate(0.000000,720.000000) scale(0.100000,-0.100000)"
fill="#000000" stroke="none">
<path d="M4303 5859 c-312 -40 -601 -259 -744 -563 -59 -127 -80 -218 -86
-377 -6 -161 10 -258 63 -387 38 -93 49 -112 111 -194 157 -207 363 -331 793
-476 439 -148 610 -232 743 -365 145 -146 210 -332 187 -536 -30 -260 -161
-432 -394 -517 -166 -60 -456 -56 -656 8 -414 133 -676 531 -813 1238 -9 44
-18 65 -27 65 -13 0 -15 -65 -13 -475 1 -261 2 -571 2 -687 l1 -213 24 0 c21
0 30 11 56 64 54 114 127 151 248 127 31 -6 115 -34 187 -63 590 -232 1111
-170 1454 173 71 70 149 177 191 259 93 184 138 441 111 635 -16 120 52 289
163 402 40 40 77 73 84 73 9 0 12 -186 12 -835 l0 -835 603 0 c547 0 662 5
613 23 -14 6 -16 137 -16 1319 0 1279 -1 1312 -19 1332 -49 53 -116 202 -136
304 -20 97 -25 -24 -25 -547 l0 -568 -262 -7 c-241 -5 -294 -10 -413 -31 -26
-5 -37 -4 -30 2 12 12 165 50 245 61 l55 7 3 764 2 763 478 -5 c496 -5 551 -9
721 -53 314 -82 538 -268 691 -574 201 -400 259 -1260 124 -1830 -94 -398
-272 -673 -528 -814 -101 -56 -333 -115 -453 -116 l-23 0 0 1220 0 1220 -40 2
c-22 1 -52 2 -66 2 l-27 1 -2 -615 c-1 -338 -3 -894 -4 -1235 l-2 -620 293 1
c260 1 305 4 398 23 568 119 946 492 1098 1081 87 336 91 796 10 1145 -46 200
-147 431 -256 585 -56 79 -185 214 -269 281 -136 109 -340 206 -545 259 -295
76 -389 82 -1378 78 l-835 -3 -5 -846 -5 -845 -80 -65 c-95 -77 -162 -158
-205 -247 l-31 -65 -41 69 c-129 217 -321 375 -599 493 -63 27 -207 80 -321
119 -450 154 -568 213 -709 352 -75 74 -125 154 -160 256 -32 92 -35 288 -5
374 46 136 115 228 228 300 149 97 406 125 627 69 42 -10 119 -40 171 -65 82
-41 108 -61 195 -148 165 -166 268 -341 379 -643 34 -92 66 -168 73 -170 6 -2
14 9 17 24 2 15 4 253 3 528 -2 497 -2 500 -23 503 -16 2 -25 -7 -39 -38 -23
-51 -80 -104 -130 -120 -77 -26 -150 -7 -392 99 -195 86 -432 119 -650 90z
m2715 -2545 l-3 -886 -195 1 -195 0 -3 886 -2 885 200 0 200 0 -2 -886z"/>
<path d="M2405 1771 c-51 -13 -76 -31 -91 -66 -36 -88 1 -144 120 -179 75 -23
98 -44 77 -70 -19 -22 -93 -20 -140 4 l-38 19 -22 -23 c-30 -32 -27 -42 22
-71 35 -20 57 -25 111 -25 116 0 166 39 166 130 0 52 -28 81 -101 104 -104 33
-109 36 -109 66 0 39 46 47 109 19 l46 -20 22 28 c13 15 23 31 23 35 0 14 -75
46 -120 51 -25 3 -58 2 -75 -2z"/>
<path d="M4012 1767 c-200 -76 -184 -362 23 -408 45 -10 66 -10 102 0 93 24
129 74 78 107 -23 15 -26 15 -51 -5 -41 -32 -115 -29 -154 7 -58 51 -58 147 1
196 40 34 113 36 154 5 l27 -22 26 27 c22 21 25 30 16 44 -31 48 -153 75 -222
49z"/>
<path d="M4841 1765 c-85 -27 -141 -106 -141 -200 0 -140 118 -234 259 -206
104 21 171 101 171 205 0 152 -137 248 -289 201z m138 -90 c70 -36 79 -149 15
-204 -95 -84 -234 12 -194 133 24 75 108 108 179 71z"/>
<path d="M7425 1769 c-42 -12 -115 -76 -131 -116 -8 -18 -14 -59 -14 -91 0
-80 31 -137 94 -177 41 -25 58 -29 115 -29 67 0 99 11 139 47 28 26 28 43 -2
62 -22 15 -26 14 -57 -4 -45 -28 -117 -28 -152 -1 -32 25 -51 81 -44 126 16
98 116 140 198 83 26 -18 26 -18 51 9 14 15 23 33 21 41 -3 7 -28 24 -57 37
-53 25 -107 29 -161 13z"/>
<path d="M8476 1768 c-21 -6 -58 -29 -81 -52 -119 -115 -66 -317 93 -356 70
-16 150 1 193 41 l32 30 -23 24 c-28 30 -35 31 -67 5 -39 -30 -113 -27 -152 6
-60 50 -60 148 0 198 39 33 106 35 154 6 l32 -20 24 26 c18 20 21 29 13 42
-29 46 -140 72 -218 50z"/>
<path d="M3082 1568 l3 -203 42 -3 42 -3 3 78 3 78 98 3 98 3 -3 37 -3 37 -98
3 -98 3 3 42 3 42 113 3 112 3 0 39 0 40 -160 0 -160 0 2 -202z"/>
<path d="M3556 1743 c-7 -16 -34 -77 -59 -138 -25 -60 -57 -135 -71 -165 -35
-75 -34 -80 19 -80 43 0 45 1 64 45 l20 45 81 0 81 0 20 -45 c19 -44 21 -45
64 -45 25 0 45 3 45 8 0 4 -37 96 -82 205 l-82 197 -43 0 c-36 0 -45 -4 -57
-27z"/>
<path d="M4304 1756 c-3 -8 -4 -25 -2 -38 3 -20 10 -24 63 -28 l60 -5 3 -163
3 -163 42 3 42 3 3 163 2 162 60 0 c55 0 60 2 66 25 13 53 8 55 -171 55 -134
0 -167 -3 -171 -14z"/>
<path d="M5234 1757 c-2 -7 -3 -98 -2 -202 l3 -190 39 -3 c48 -4 56 6 56 76
l0 52 34 0 c30 0 38 -6 76 -65 l42 -65 49 0 c28 0 49 5 49 10 0 6 -19 38 -42
70 l-41 59 27 22 c57 45 71 123 33 180 -37 56 -76 69 -205 69 -82 0 -114 -3
-118 -13z m235 -82 c21 -21 22 -61 4 -84 -15 -18 -29 -22 -77 -22 -39 -1 -61
3 -67 12 -11 17 -12 93 -1 103 10 11 130 2 141 -9z"/>
<path d="M5870 1564 l0 -206 120 4 c114 4 122 6 162 34 67 47 89 94 86 181 -3
62 -7 76 -34 110 -52 65 -101 83 -226 83 l-108 0 0 -206z m218 112 c54 -29 78
-109 49 -166 -21 -42 -75 -71 -127 -68 l-45 3 -3 123 -3 122 53 0 c29 -1 63
-6 76 -14z"/>
<path d="M6464 1757 c-2 -7 -40 -96 -83 -197 -43 -102 -77 -188 -74 -192 2 -5
22 -8 44 -8 38 0 41 2 60 45 l20 45 80 0 79 0 22 -45 c21 -43 24 -45 65 -45
24 0 43 4 43 8 0 7 -53 139 -157 390 -7 17 -92 16 -99 -1z"/>
<path d="M6809 1765 c0 -3 0 -90 0 -195 0 -104 0 -195 0 -201 1 -6 19 -9 44
-7 l42 3 3 118 c1 64 6 117 10 117 4 0 16 -15 28 -33 11 -17 54 -72 94 -120
69 -84 74 -88 109 -85 35 3 36 4 36 41 -1 20 -2 111 -3 202 l-2 165 -40 0
c-31 0 -40 -4 -40 -17 -2 -91 -9 -215 -12 -219 -3 -2 -47 50 -98 116 -90 117
-93 120 -131 120 -22 0 -39 -2 -40 -5z"/>
<path d="M7748 1578 c-3 -106 -3 -199 0 -205 3 -10 44 -13 158 -13 l154 0 0
40 0 40 -111 0 -110 0 3 43 3 42 93 3 92 3 0 34 0 34 -92 3 -93 3 -3 43 -3 42
110 0 111 0 0 40 0 40 -154 0 -153 0 -5 -192z"/>
<path d="M8804 1757 c-2 -7 -3 -98 -2 -202 l3 -190 45 0 45 0 3 63 3 62 34 0
c32 0 39 -6 77 -65 43 -64 43 -65 91 -65 26 0 47 3 47 7 0 4 -18 35 -41 69
l-40 62 37 34 c71 65 53 176 -36 220 -44 23 -257 26 -266 5z m236 -87 c11 -11
20 -29 20 -40 0 -39 -35 -60 -100 -60 l-60 0 0 60 0 60 60 0 c47 0 64 -4 80
-20z"/>
<path d="M9255 1757 c-3 -7 -4 -98 -3 -202 l3 -190 158 -3 157 -3 0 41 0 40
-109 0 c-102 0 -110 1 -116 21 -4 11 -4 31 -1 44 6 23 11 24 99 27 l92 3 3 33
3 32 -95 0 c-93 0 -96 1 -102 24 -14 57 -8 61 111 66 l110 5 0 35 0 35 -153 3
c-118 2 -154 0 -157 -11z"/>
<path d="M9640 1757 c0 -11 106 -334 125 -380 6 -14 17 -17 48 -15 l40 3 39
114 c21 63 41 118 46 123 4 4 20 -30 36 -75 63 -183 54 -168 99 -165 l40 3 63
190 c35 104 64 195 64 202 0 9 -15 13 -44 13 l-45 0 -26 -87 c-14 -49 -34
-108 -42 -132 l-17 -44 -17 49 c-10 27 -31 85 -46 129 -28 79 -29 80 -65 83
-34 3 -37 1 -48 -35 -41 -130 -74 -213 -80 -206 -4 4 -24 61 -44 126 l-37 117
-45 0 c-29 0 -44 -4 -44 -13z"/>
</g>
</svg>
