<?xml version="1.0" standalone="no"?>
<!DOCTYPE svg PUBLIC "-//W3C//DTD SVG 20010904//EN"
 "http://www.w3.org/TR/2001/REC-SVG-20010904/DTD/svg10.dtd">
<svg version="1.0" xmlns="http://www.w3.org/2000/svg"
 width="1280.000000pt" height="720.000000pt" viewBox="0 0 1280.000000 720.000000"
 preserveAspectRatio="xMidYMid meet">
<metadata>
Created by potrace 1.16, written by Peter Selinger 2001-2019
</metadata>
<g transform="translate(0.000000,720.000000) scale(0.100000,-0.100000)"
fill="#000000" stroke="none">
<path d="M4303 5860 c-314 -44 -593 -254 -738 -554 -76 -157 -90 -223 -90
-426 l0 -175 38 -110 c34 -98 96 -221 130 -257 6 -7 30 -33 51 -58 148 -170
354 -286 731 -414 288 -97 371 -128 473 -178 239 -117 379 -255 442 -439 26
-73 30 -98 30 -195 0 -147 -13 -212 -65 -319 -48 -100 -129 -188 -220 -240
-89 -50 -98 -56 -88 -66 11 -11 94 16 178 59 185 94 360 267 452 446 37 73 88
221 104 301 22 113 18 305 -9 399 -69 241 -238 450 -481 593 -142 85 -211 112
-680 278 -316 111 -430 172 -556 300 -122 122 -184 274 -185 447 0 105 15 169
61 264 59 121 151 207 273 256 102 41 165 51 316 50 113 -1 163 -5 225 -22
160 -41 279 -113 398 -240 149 -158 265 -364 362 -639 27 -80 55 -146 61 -148
19 -6 21 42 20 557 -1 493 -1 495 -22 498 -16 2 -25 -7 -39 -38 -56 -124 -192
-161 -349 -94 -334 143 -414 164 -621 169 -77 2 -168 0 -202 -5z"/>
</g>
</svg>
