<?xml version="1.0" standalone="no"?>
<!DOCTYPE svg PUBLIC "-//W3C//DTD SVG 20010904//EN"
 "http://www.w3.org/TR/2001/REC-SVG-20010904/DTD/svg10.dtd">
<svg version="1.0" xmlns="http://www.w3.org/2000/svg"
 width="1280.000000pt" height="720.000000pt" viewBox="0 0 1280.000000 720.000000"
 preserveAspectRatio="xMidYMid meet">
<metadata>
Created by potrace 1.16, written by Peter Selinger 2001-2019
</metadata>
<g transform="translate(0.000000,720.000000) scale(0.100000,-0.100000)"
fill="#000000" stroke="none">
<path d="M4303 5859 c-370 -48 -704 -350 -805 -727 -25 -96 -35 -298 -19 -401
52 -331 279 -592 661 -758 74 -33 394 -146 570 -203 41 -13 187 -79 248 -112
253 -138 379 -303 413 -542 17 -120 -15 -296 -73 -407 -55 -106 -181 -212
-307 -260 -224 -85 -575 -58 -810 61 -324 163 -552 554 -666 1141 -19 95 -27
115 -44 105 -8 -5 -9 -151 -6 -509 2 -276 5 -584 5 -684 l0 -183 24 0 c20 0
30 12 58 67 44 89 88 123 164 130 64 5 113 -8 316 -86 265 -102 542 -141 788
-111 405 50 749 332 873 715 45 140 60 261 52 425 -6 138 -5 149 19 226 14 44
43 107 64 140 37 56 143 164 163 164 5 0 9 -334 9 -835 l0 -835 603 0 602 0
-3 1326 -2 1325 -29 37 c-56 71 -105 185 -126 290 -20 97 -25 -24 -25 -547 l0
-568 -262 -7 c-241 -5 -294 -10 -413 -31 -26 -5 -37 -4 -30 2 12 12 165 50
245 61 l55 7 3 764 2 763 478 -5 c512 -5 579 -10 755 -62 368 -107 616 -370
743 -790 127 -417 147 -1140 43 -1585 -70 -305 -168 -506 -328 -673 -94 -98
-194 -165 -307 -206 -83 -30 -282 -71 -345 -71 l-29 0 0 1220 0 1220 -45 2
c-25 1 -54 2 -66 2 l-21 1 -3 -670 c-1 -368 -3 -924 -4 -1235 l-2 -565 293 1
c261 1 304 3 398 23 477 100 813 372 1007 813 193 440 215 1086 53 1580 -77
233 -191 420 -359 588 -198 198 -389 301 -699 379 -260 66 -263 66 -1267 66
l-910 0 -5 -846 -5 -847 -83 -66 c-96 -78 -150 -143 -198 -238 -19 -37 -36
-68 -38 -68 -2 0 -14 19 -26 43 -63 119 -171 246 -282 330 -159 119 -310 189
-683 317 -414 142 -539 204 -673 337 -77 77 -128 157 -163 259 -20 58 -24 88
-24 194 0 136 11 185 67 292 108 206 363 312 672 280 128 -14 209 -37 317 -93
226 -118 424 -396 568 -799 55 -152 66 -174 80 -151 5 7 8 245 7 529 -1 515
-1 517 -22 520 -16 2 -25 -7 -39 -38 -24 -54 -84 -106 -136 -120 -82 -22 -148
-5 -384 98 -198 87 -432 120 -652 91z m2717 -2544 l0 -885 -27 -1 c-16 0 -104
-1 -198 -2 l-170 -2 -3 875 c-1 481 0 881 3 888 3 9 53 12 200 12 l195 0 0
-885z"/>
<path d="M2387 1766 c-50 -19 -64 -31 -77 -72 -28 -83 13 -138 124 -168 71
-20 98 -45 75 -72 -18 -21 -98 -18 -138 7 l-33 20 -24 -22 c-34 -31 -30 -45
19 -72 56 -32 123 -40 185 -22 65 19 84 43 90 108 4 47 1 55 -23 80 -18 17
-56 36 -104 50 -68 21 -76 26 -79 50 -3 22 2 29 25 38 23 9 37 7 78 -10 l50
-22 22 28 c13 15 23 31 23 35 0 4 -17 16 -39 27 -52 27 -127 34 -174 17z"/>
<path d="M4009 1765 c-81 -26 -139 -111 -139 -202 1 -90 55 -168 139 -198 61
-21 108 -19 166 9 64 29 82 50 65 72 -27 32 -49 36 -77 15 -18 -15 -40 -21
-75 -21 -43 0 -54 4 -84 34 -58 58 -45 174 23 205 40 19 107 13 138 -10 l27
-22 26 27 c21 21 25 30 16 44 -29 47 -147 72 -225 47z"/>
<path d="M4840 1764 c-125 -44 -178 -186 -113 -306 102 -187 403 -109 403 105
0 154 -142 252 -290 201z m141 -90 c69 -35 76 -148 13 -203 -95 -84 -234 12
-194 133 25 76 108 108 181 70z"/>
<path d="M7433 1770 c-18 -4 -41 -13 -50 -21 -81 -60 -103 -102 -103 -192 0
-121 83 -201 209 -201 67 0 99 11 139 47 28 26 28 43 -2 62 -22 15 -26 14 -57
-4 -42 -26 -115 -28 -148 -5 -27 19 -51 71 -51 110 0 36 28 93 56 111 35 23
106 20 141 -5 l30 -21 25 27 c14 15 23 33 21 41 -8 20 -104 61 -143 60 -19 -1
-50 -5 -67 -9z"/>
<path d="M8476 1768 c-51 -14 -121 -84 -135 -134 -47 -170 82 -310 252 -274
32 6 67 22 88 39 l34 29 -24 26 c-29 31 -35 32 -68 6 -39 -30 -113 -27 -152 6
-59 49 -60 142 -3 197 38 37 109 40 154 7 l30 -22 27 26 c20 21 24 30 15 44
-28 46 -141 72 -218 50z"/>
<path d="M3082 1568 l3 -203 42 -3 42 -3 3 78 3 78 98 3 98 3 -3 37 -3 37 -98
3 -98 3 3 42 3 42 113 3 112 3 0 39 0 40 -160 0 -160 0 2 -202z"/>
<path d="M3551 1733 c-10 -21 -37 -83 -59 -138 -22 -55 -52 -125 -66 -155 -35
-75 -34 -80 19 -80 43 0 45 1 64 45 l20 45 81 0 81 0 20 -45 c19 -44 21 -45
64 -45 25 0 45 4 45 9 0 8 -43 113 -126 308 l-39 93 -42 0 c-39 0 -44 -3 -62
-37z"/>
<path d="M4304 1756 c-3 -8 -4 -25 -2 -38 3 -20 10 -24 63 -28 l60 -5 3 -163
3 -163 42 3 42 3 3 163 2 162 60 0 c33 0 60 3 61 8 0 4 2 15 4 26 8 44 2 46
-171 46 -133 0 -166 -3 -170 -14z"/>
<path d="M5234 1757 c-2 -7 -3 -98 -2 -202 l3 -190 39 -3 c48 -4 56 6 56 76
l0 52 34 0 c30 0 38 -6 76 -65 l42 -65 49 0 c28 0 49 5 49 10 0 6 -19 38 -42
70 l-41 59 27 22 c57 45 71 123 33 180 -37 56 -76 69 -205 69 -82 0 -114 -3
-118 -13z m229 -79 c26 -21 31 -61 10 -87 -15 -19 -28 -22 -77 -22 -38 0 -62
4 -67 13 -10 16 -12 92 -2 101 11 12 119 7 136 -5z"/>
<path d="M5870 1565 l0 -205 99 0 c107 0 149 10 199 47 52 39 75 94 70 174 -3
57 -8 74 -34 106 -52 65 -101 83 -226 83 l-108 0 0 -205z m215 109 c97 -46 81
-193 -25 -225 -19 -6 -49 -9 -65 -7 l-30 3 -3 123 -3 122 47 0 c25 0 61 -7 79
-16z"/>
<path d="M6460 1748 c-5 -13 -42 -102 -83 -198 -41 -96 -72 -178 -70 -182 2
-5 22 -8 44 -8 38 0 41 2 60 45 l20 45 80 0 79 0 22 -45 c21 -43 24 -45 65
-45 26 0 43 5 43 12 0 6 -22 64 -49 127 -27 64 -64 151 -81 194 l-32 77 -44 0
c-37 0 -46 -4 -54 -22z"/>
<path d="M6809 1763 c0 -7 0 -346 1 -391 0 -9 13 -12 43 -10 l42 3 2 115 c0
63 5 116 10 117 4 2 17 -12 29 -30 11 -17 54 -72 94 -120 69 -84 74 -88 109
-85 35 3 36 4 36 41 -1 20 -2 111 -3 202 l-2 165 -40 0 c-46 0 -42 10 -44
-137 -1 -50 -4 -94 -7 -97 -3 -4 -48 48 -99 114 -90 117 -93 120 -131 120 -22
0 -39 -3 -40 -7z"/>
<path d="M7750 1708 c0 -35 -2 -121 -4 -191 -3 -71 -2 -135 1 -143 4 -11 36
-14 159 -14 l154 0 0 40 0 40 -111 0 -110 0 3 43 3 42 90 2 90 1 3 36 3 35
-93 3 -93 3 -3 43 -3 42 110 0 111 0 0 40 0 40 -155 0 -155 0 0 -62z"/>
<path d="M8805 1748 c-3 -13 -4 -104 -2 -203 l2 -180 45 0 45 0 3 63 3 62 34
0 c30 0 38 -7 77 -62 42 -61 45 -63 91 -66 26 -2 47 1 47 7 0 5 -19 36 -41 69
l-41 60 37 34 c31 29 38 42 42 84 4 40 0 56 -19 84 -38 57 -76 70 -205 70
-109 0 -113 -1 -118 -22z m235 -78 c11 -11 20 -29 20 -40 0 -39 -35 -60 -99
-60 l-59 0 -3 38 c-8 77 -4 82 62 82 46 0 63 -4 79 -20z"/>
<path d="M9255 1757 c-3 -7 -4 -98 -3 -202 l3 -190 158 -3 157 -3 0 41 0 40
-110 0 -110 0 -6 27 c-12 47 4 58 102 63 l89 5 3 33 3 32 -89 0 c-99 0 -116 9
-110 57 l3 28 110 5 110 5 0 35 0 35 -153 3 c-118 2 -154 0 -157 -11z"/>
<path d="M9640 1757 c0 -11 106 -334 125 -380 6 -14 17 -17 48 -15 l40 3 38
112 c20 62 41 117 45 124 4 7 23 -35 46 -102 22 -63 45 -120 51 -127 6 -7 25
-12 45 -10 l35 3 63 190 c35 104 64 195 64 202 0 9 -15 13 -43 13 -49 0 -41
13 -93 -155 -15 -49 -30 -94 -34 -98 -4 -4 -22 36 -40 90 -53 161 -54 163 -92
163 -29 0 -36 -5 -45 -32 -7 -18 -26 -75 -44 -126 -17 -51 -35 -89 -39 -85 -4
4 -24 61 -45 126 l-37 117 -44 0 c-29 0 -44 -4 -44 -13z"/>
</g>
</svg>
