<?xml version="1.0" standalone="no"?>
<!DOCTYPE svg PUBLIC "-//W3C//DTD SVG 20010904//EN"
 "http://www.w3.org/TR/2001/REC-SVG-20010904/DTD/svg10.dtd">
<svg version="1.0" xmlns="http://www.w3.org/2000/svg"
 width="1280.000000pt" height="720.000000pt" viewBox="0 0 1280.000000 720.000000"
 preserveAspectRatio="xMidYMid meet">
<metadata>
Created by potrace 1.16, written by Peter Selinger 2001-2019
</metadata>
<g transform="translate(0.000000,720.000000) scale(0.100000,-0.100000)"
fill="#000000" stroke="none">
<path d="M4308 5860 c-370 -44 -704 -343 -810 -728 -18 -63 -22 -106 -22 -242
-1 -183 6 -226 61 -359 95 -232 273 -403 563 -540 82 -38 406 -155 610 -221
14 -4 68 -27 120 -50 374 -165 544 -380 543 -685 0 -182 -58 -337 -163 -443
-133 -132 -300 -192 -538 -192 -108 0 -266 23 -352 51 -409 135 -675 531 -805
1200 -10 48 -21 92 -25 99 -26 42 -29 -17 -25 -503 2 -276 4 -584 5 -684 l0
-183 24 0 c20 0 30 12 58 67 44 89 88 123 164 130 64 5 113 -8 316 -86 334
-128 676 -155 955 -75 334 95 599 350 706 679 46 141 60 251 53 420 -7 143 -6
154 18 231 14 44 43 107 64 140 37 56 143 164 163 164 5 0 9 -334 9 -836 l0
-835 1043 4 c1037 3 1042 3 1142 26 263 59 460 155 647 315 209 179 367 452
447 771 97 389 91 855 -15 1228 -45 159 -91 265 -178 412 -60 101 -90 139
-196 245 -206 208 -391 310 -708 389 -260 66 -263 66 -1267 66 l-910 0 -5
-847 -5 -846 -76 -60 c-97 -76 -149 -138 -200 -234 -22 -43 -42 -78 -44 -78
-2 0 -16 25 -32 56 -15 31 -56 92 -91 135 -175 219 -405 349 -897 509 -334
108 -510 198 -639 323 -81 80 -131 158 -167 263 -32 92 -35 288 -5 374 45 134
129 245 230 304 215 126 551 125 802 -2 226 -114 424 -390 571 -797 57 -158
68 -179 82 -156 5 7 8 245 7 529 -1 515 -1 517 -22 520 -16 2 -25 -7 -39 -38
-24 -54 -84 -106 -136 -120 -82 -22 -148 -5 -384 98 -199 87 -418 118 -647 92z
m3218 -70 c246 -20 429 -72 583 -165 226 -136 393 -370 487 -680 127 -418 147
-1139 43 -1585 -70 -305 -168 -506 -328 -673 -94 -98 -194 -165 -307 -206 -83
-30 -282 -71 -345 -71 l-29 0 0 1218 0 1218 -95 11 c-84 10 -197 48 -215 72
-3 4 -26 23 -52 43 -108 81 -191 224 -223 386 -19 93 -25 -31 -27 -548 l-3
-565 -250 -7 c-224 -5 -312 -13 -425 -34 -24 -5 -32 -3 -25 4 10 10 211 58
270 64 l30 3 3 763 2 762 389 0 c213 0 446 -5 517 -10z m-506 -2475 l0 -885
-57 0 c-32 -1 -121 -2 -198 -3 l-140 -2 -3 875 c-1 481 0 881 3 888 3 9 53 12
200 12 l195 0 0 -885z"/>
<path d="M2370 1749 c-48 -30 -59 -48 -60 -95 0 -62 27 -90 113 -115 91 -27
111 -44 94 -79 -17 -34 -82 -39 -140 -10 l-42 20 -17 -21 c-10 -12 -18 -24
-18 -28 0 -17 83 -52 136 -57 83 -8 143 23 164 84 13 39 13 45 -4 77 -16 28
-31 39 -90 60 -120 44 -116 42 -116 74 0 44 60 56 127 24 35 -16 36 -16 54 8
10 13 19 27 19 30 0 4 -23 16 -51 28 -66 27 -124 27 -169 0z"/>
<path d="M3233 1762 l-143 -3 0 -194 0 -195 41 0 40 0 -1 63 c-1 34 -1 68 -1
75 1 9 27 12 95 12 100 0 114 8 101 51 -6 17 -17 19 -100 19 l-94 0 -6 44 c-4
25 -4 49 0 55 4 7 49 11 116 11 l109 0 0 29 c0 17 -3 31 -7 33 -5 2 -72 2
-150 0z"/>
<path d="M3567 1746 c-8 -11 -31 -64 -52 -116 -21 -52 -55 -132 -76 -177 l-38
-83 43 0 c42 0 44 1 60 45 l18 45 81 0 c45 0 87 -4 92 -8 6 -4 18 -24 27 -44
16 -34 22 -38 54 -38 42 0 43 -4 -23 150 -25 58 -58 137 -75 176 -28 67 -30
70 -63 71 -24 1 -38 -5 -48 -21z"/>
<path d="M3996 1750 c-71 -36 -97 -70 -116 -153 -20 -92 43 -202 130 -227 78
-22 182 -1 219 44 13 15 12 20 -7 39 l-22 21 -39 -22 c-21 -12 -53 -22 -70
-22 -44 0 -105 33 -119 65 -15 32 -15 92 -1 133 23 66 121 92 188 51 34 -20
34 -20 54 -1 27 27 16 49 -35 72 -55 25 -131 25 -182 0z"/>
<path d="M4310 1736 l0 -36 49 0 c85 0 82 7 81 -159 -1 -80 -1 -152 0 -158 0
-8 14 -13 35 -13 l35 0 0 153 c0 106 4 157 12 165 7 7 36 12 65 12 52 0 53 0
53 30 l0 30 -104 0 c-56 0 -131 3 -165 6 l-61 7 0 -37z"/>
<path d="M4830 1754 c-44 -19 -66 -39 -97 -88 -22 -34 -25 -48 -21 -112 4 -95
39 -149 113 -177 143 -54 291 34 300 179 1 30 -1 57 -6 60 -5 3 -9 12 -9 20 0
9 -12 33 -27 53 -50 70 -170 101 -253 65z m132 -63 c42 -16 68 -47 76 -92 11
-60 -2 -101 -43 -138 -104 -91 -255 27 -199 156 30 68 99 100 166 74z"/>
<path d="M5876 1763 c-3 -4 -6 -93 -6 -200 l0 -193 106 0 c83 0 114 4 148 20
77 35 109 92 110 195 1 53 -45 122 -103 154 -37 20 -60 25 -146 27 -57 2 -105
0 -109 -3z m203 -79 c52 -20 75 -57 75 -117 0 -82 -70 -141 -157 -135 l-42 3
-3 124 c-2 93 1 126 10 133 21 13 74 9 117 -8z"/>
<path d="M6483 1762 c-11 -8 -68 -134 -128 -285 -15 -37 -31 -70 -36 -73 -5
-3 -9 -12 -9 -20 0 -12 10 -14 42 -12 36 3 43 7 51 33 17 52 24 55 112 55 l83
0 19 -45 c17 -42 20 -45 56 -45 20 0 37 3 37 8 0 9 -114 281 -143 341 -17 33
-28 45 -48 47 -14 1 -30 -1 -36 -4z"/>
<path d="M6828 1763 c-16 -4 -18 -22 -18 -199 l0 -194 40 0 40 0 0 125 c0 69
3 125 8 125 4 0 28 -28 54 -63 53 -71 72 -96 110 -140 15 -18 28 -35 28 -39 0
-5 18 -8 40 -8 l40 0 0 195 0 195 -40 0 -40 0 0 -119 c0 -66 -3 -122 -7 -124
-7 -5 -150 173 -183 228 -14 24 -33 28 -72 18z"/>
<path d="M7397 1750 c-37 -18 -68 -50 -94 -94 -7 -12 -12 -55 -13 -96 0 -93
18 -127 92 -169 78 -45 181 -40 235 11 28 26 29 39 3 56 -16 10 -25 9 -52 -8
-43 -26 -111 -26 -148 0 -36 26 -63 93 -54 134 22 102 94 140 194 100 38 -15
42 -15 60 1 26 24 15 44 -37 66 -57 24 -136 24 -186 -1z"/>
<path d="M8475 1759 c-40 -11 -97 -65 -118 -111 -50 -108 10 -247 121 -278 77
-21 174 -1 211 44 13 15 12 20 -7 38 l-20 21 -37 -22 c-22 -13 -53 -21 -80
-21 -38 0 -50 6 -85 38 -35 35 -40 44 -40 85 0 98 56 155 144 145 26 -3 56
-14 67 -24 19 -17 21 -17 46 8 31 31 27 39 -32 67 -47 22 -116 26 -170 10z"/>
<path d="M8815 1762 c-3 -3 -5 -92 -5 -199 l0 -193 40 0 40 0 0 59 c0 50 3 61
19 66 39 12 69 -6 108 -65 36 -57 40 -59 81 -60 23 0 42 2 42 4 0 3 -19 32
-41 67 -33 48 -38 63 -28 70 8 5 17 9 21 9 3 0 16 15 27 34 41 66 19 161 -44
190 -30 13 -249 29 -260 18z m230 -85 c8 -9 15 -32 15 -51 0 -50 -30 -68 -107
-64 l-58 3 -3 54 c-5 82 -2 85 73 79 38 -4 70 -12 80 -21z"/>
<path d="M9264 1761 c-2 -2 -4 -91 -4 -198 l0 -193 149 0 c137 0 149 1 154 19
9 34 -7 40 -113 43 l-105 3 -3 47 -3 47 93 3 93 3 0 28 0 28 -90 3 -90 3 0 49
0 49 108 3 107 3 0 29 0 29 -146 3 c-80 2 -148 1 -150 -1z"/>
<path d="M9646 1761 c-4 -5 2 -29 12 -53 10 -23 40 -109 67 -190 l50 -148 36
0 c30 0 38 4 42 23 7 29 77 220 83 227 9 8 23 -22 49 -105 15 -44 30 -88 36
-97 5 -10 9 -25 9 -33 0 -11 11 -15 38 -15 l38 0 66 195 c36 107 63 197 60
200 -10 10 -60 5 -70 -7 -5 -7 -25 -62 -43 -123 -45 -153 -56 -163 -79 -78 -7
27 -16 53 -19 58 -3 6 -15 39 -27 75 -21 63 -23 65 -55 65 l-33 0 -40 -122
c-23 -67 -45 -123 -50 -125 -5 -2 -27 51 -48 117 -22 66 -44 125 -50 132 -12
15 -64 17 -72 4z"/>
<path d="M5240 1565 l0 -195 40 0 40 0 0 60 0 60 43 0 c40 -1 44 -4 85 -60 41
-56 47 -60 83 -60 21 0 39 2 39 5 0 4 -18 33 -40 67 l-41 60 37 32 c31 27 37
39 41 81 5 60 -10 91 -56 122 -31 21 -46 23 -152 23 l-119 0 0 -195z m213 124
c30 -16 37 -28 37 -66 0 -47 -32 -65 -107 -61 l-58 3 -3 54 c-2 29 -1 60 2 67
7 17 98 19 129 3z"/>
<path d="M7750 1565 l0 -195 156 0 155 0 -3 28 -3 27 -110 5 -110 5 0 45 0 45
93 3 92 3 0 34 0 35 -95 0 -95 0 0 38 c0 62 5 64 119 60 l101 -3 0 33 0 32
-150 0 -150 0 0 -195z"/>
</g>
</svg>
