<?xml version="1.0" standalone="no"?>
<!DOCTYPE svg PUBLIC "-//W3C//DTD SVG 20010904//EN"
 "http://www.w3.org/TR/2001/REC-SVG-20010904/DTD/svg10.dtd">
<svg version="1.0" xmlns="http://www.w3.org/2000/svg"
 width="1280.000000pt" height="720.000000pt" viewBox="0 0 1280.000000 720.000000"
 preserveAspectRatio="xMidYMid meet">
<metadata>
Created by potrace 1.16, written by Peter Selinger 2001-2019
</metadata>
<g transform="translate(0.000000,720.000000) scale(0.100000,-0.100000)"
fill="#000000" stroke="none">
<path d="M4296 5859 c-244 -32 -491 -187 -649 -410 -113 -160 -166 -321 -174
-530 -10 -254 54 -442 214 -631 151 -177 352 -291 753 -426 256 -87 422 -152
515 -202 257 -141 386 -309 415 -542 25 -208 -50 -431 -186 -551 -119 -106
-255 -155 -449 -164 -404 -18 -700 124 -915 437 -137 201 -254 520 -317 869
-5 25 -14 46 -21 49 -9 3 -12 -17 -13 -75 -1 -94 -1 -794 0 -1090 l1 -213 24
0 c21 0 30 11 56 64 54 114 127 151 248 127 31 -6 120 -36 197 -66 233 -93
438 -134 660 -135 479 0 874 268 1029 700 51 141 59 199 61 425 1 234 8 267
80 385 38 62 150 174 166 165 5 -4 9 -337 9 -836 l0 -829 598 1 c328 0 606 4
617 9 17 7 17 9 3 9 -17 1 -18 71 -18 1320 0 1161 -2 1320 -15 1331 -45 37
-120 202 -139 303 -20 109 -26 -10 -26 -542 l0 -568 -257 -6 c-165 -4 -292
-11 -352 -22 -52 -8 -96 -13 -98 -11 -10 10 188 58 277 68 l25 3 3 763 2 764
473 -5 c379 -3 492 -8 575 -21 277 -45 461 -133 622 -295 130 -131 225 -291
290 -491 70 -212 102 -407 122 -739 19 -325 -13 -704 -82 -971 -65 -249 -163
-440 -301 -585 -167 -176 -332 -250 -626 -280 l-63 -7 0 1221 0 1221 -40 2
c-22 1 -52 2 -66 2 l-26 1 -4 -1215 c-3 -668 -7 -1226 -10 -1239 l-5 -24 303
6 c331 6 407 16 591 78 503 168 850 609 941 1199 76 491 23 963 -148 1326 -98
205 -237 383 -403 516 -174 138 -437 247 -718 297 -217 38 -345 42 -1210 39
l-830 -3 -5 -847 -5 -846 -50 -38 c-112 -83 -184 -168 -237 -276 l-30 -62 -17
30 c-10 16 -29 49 -44 74 -39 69 -149 193 -225 253 -172 137 -289 192 -787
366 -366 127 -464 179 -600 316 -72 72 -131 168 -161 262 -24 77 -30 246 -10
323 62 250 239 397 518 431 181 22 355 -7 518 -87 82 -41 108 -61 195 -148
170 -171 283 -366 391 -675 47 -133 59 -155 73 -132 5 7 8 246 7 530 -1 513
-1 516 -22 519 -16 2 -25 -7 -39 -38 -36 -79 -116 -130 -205 -130 -53 0 -101
16 -260 85 -80 35 -181 73 -225 84 -156 39 -332 50 -489 30z m2722 -2546 l-3
-885 -195 1 -195 0 -3 885 -2 886 187 2 c104 2 194 1 201 -1 10 -2 12 -185 10
-888z"/>
<path d="M2387 1766 c-50 -19 -64 -31 -77 -72 -15 -46 -6 -95 24 -123 13 -12
56 -32 96 -44 79 -24 103 -45 81 -71 -20 -23 -98 -21 -140 5 l-33 20 -24 -22
c-34 -32 -30 -45 19 -74 35 -20 57 -25 111 -25 116 0 166 39 166 130 0 52 -28
81 -101 104 -104 33 -109 36 -109 66 0 39 46 47 109 19 l46 -20 22 28 c13 15
23 31 23 35 0 4 -17 16 -39 27 -52 27 -127 34 -174 17z"/>
<path d="M4022 1771 c-83 -21 -152 -115 -152 -206 1 -97 56 -173 147 -202 45
-14 62 -15 109 -5 96 20 138 67 96 105 -24 22 -28 21 -59 -3 -18 -14 -41 -20
-75 -20 -43 0 -54 4 -84 34 -58 58 -45 174 23 205 40 19 107 13 138 -10 l27
-22 26 27 c21 21 25 30 16 44 -26 42 -140 71 -212 53z"/>
<path d="M4841 1765 c-85 -27 -141 -106 -141 -201 0 -100 54 -173 148 -200
143 -42 281 54 282 197 0 154 -137 251 -289 204z m153 -100 c36 -33 49 -72 41
-122 -12 -85 -111 -130 -186 -86 -107 63 -55 233 71 233 36 0 53 -6 74 -25z"/>
<path d="M7418 1766 c-89 -32 -138 -103 -138 -203 0 -81 30 -138 94 -178 41
-25 58 -29 115 -29 67 0 99 11 139 47 28 26 28 43 -2 62 -22 15 -26 14 -57 -4
-45 -28 -117 -28 -152 -1 -77 61 -50 205 42 230 41 11 56 8 108 -18 31 -16 33
-15 57 7 33 31 24 48 -38 77 -57 26 -112 30 -168 10z"/>
<path d="M8477 1767 c-194 -63 -195 -346 -1 -403 84 -24 196 4 224 56 7 13 3
23 -14 39 -28 26 -32 26 -63 1 -39 -30 -113 -27 -152 6 -60 50 -60 148 0 198
39 33 109 36 154 6 29 -19 29 -19 52 2 35 32 29 53 -21 77 -55 27 -129 34
-179 18z"/>
<path d="M3082 1568 l3 -203 42 -3 42 -3 3 78 3 78 98 3 98 3 -3 37 -3 37 -98
3 -98 3 3 42 3 42 113 3 112 3 0 39 0 40 -160 0 -160 0 2 -202z"/>
<path d="M3556 1743 c-7 -16 -34 -77 -59 -138 -25 -60 -57 -135 -71 -165 -35
-75 -34 -80 19 -80 43 0 45 1 64 45 l20 45 81 0 81 0 20 -45 c19 -44 21 -45
64 -45 25 0 45 4 45 8 0 5 -20 58 -46 118 -25 60 -61 148 -81 197 l-36 87 -43
0 c-37 0 -46 -4 -58 -27z"/>
<path d="M4304 1756 c-3 -8 -4 -25 -2 -38 3 -20 10 -24 63 -28 l60 -5 3 -163
3 -163 42 3 42 3 3 163 2 162 60 0 c55 0 60 2 66 25 13 53 8 55 -171 55 -134
0 -167 -3 -171 -14z"/>
<path d="M5234 1757 c-2 -7 -3 -98 -2 -202 l3 -190 39 -3 c48 -4 56 6 56 76
l0 52 34 0 c28 0 37 -6 61 -42 49 -76 64 -88 112 -88 24 0 43 4 43 9 0 5 -19
37 -41 70 l-42 60 31 26 c78 66 60 192 -34 231 -45 19 -252 20 -260 1z m238
-85 c16 -16 14 -70 -3 -87 -8 -7 -40 -15 -72 -18 -48 -4 -59 -2 -67 13 -12 22
-13 93 -2 104 11 12 130 2 144 -12z"/>
<path d="M5870 1564 l0 -206 120 4 c114 4 122 6 162 34 67 47 89 94 86 181 -3
62 -7 76 -34 110 -52 65 -101 83 -226 83 l-108 0 0 -206z m215 114 c42 -19 68
-72 62 -124 -8 -73 -73 -121 -152 -112 l-30 3 -3 123 -3 122 50 0 c28 0 62 -5
76 -12z"/>
<path d="M6460 1744 c-6 -14 -21 -49 -34 -77 -13 -29 -43 -99 -66 -157 -24
-58 -47 -110 -52 -117 -16 -20 1 -33 43 -33 38 0 41 2 60 45 l20 45 80 0 80 0
20 -45 c19 -44 21 -45 66 -45 38 0 45 3 41 18 -3 9 -40 101 -83 205 l-77 187
-44 0 c-39 0 -46 -3 -54 -26z"/>
<path d="M6809 1765 c0 -3 0 -90 0 -195 0 -104 0 -195 0 -201 1 -6 19 -9 44
-7 l42 3 3 118 c1 64 6 117 10 117 4 0 16 -15 28 -33 11 -17 54 -72 94 -120
69 -84 74 -88 109 -85 35 3 36 4 36 41 -1 20 -2 111 -3 202 l-2 165 -40 0
c-31 0 -40 -4 -41 -17 -1 -10 -2 -62 -4 -116 -1 -54 -4 -100 -7 -103 -3 -2
-47 50 -98 116 -90 117 -93 120 -131 120 -22 0 -39 -2 -40 -5z"/>
<path d="M7750 1565 l0 -205 155 0 155 0 0 40 0 40 -110 0 -110 0 0 45 0 45
95 0 95 0 0 35 0 34 -92 3 -93 3 -3 43 -3 42 110 0 111 0 0 40 0 40 -155 0
-155 0 0 -205z"/>
<path d="M8804 1757 c-2 -7 -3 -98 -2 -202 l3 -190 45 0 45 0 5 60 c5 59 6 60
37 63 30 3 35 -2 75 -62 43 -65 43 -66 91 -66 26 0 47 3 47 7 0 4 -18 35 -41
69 l-40 62 38 35 c36 34 38 39 38 95 0 50 -4 65 -25 87 -41 45 -79 55 -200 55
-81 0 -112 -3 -116 -13z m236 -87 c11 -11 20 -29 20 -40 0 -39 -35 -60 -100
-60 l-60 0 0 60 0 60 60 0 c47 0 64 -4 80 -20z"/>
<path d="M9257 1764 c-9 -9 -9 -366 -1 -388 5 -14 29 -16 160 -16 l154 0 0 40
0 40 -109 0 c-102 0 -110 1 -116 21 -4 11 -4 31 -1 44 6 23 11 24 99 27 l92 3
3 33 3 32 -95 0 c-93 0 -96 1 -102 24 -14 57 -8 61 111 66 l110 5 0 35 0 35
-151 3 c-82 1 -153 -1 -157 -4z"/>
<path d="M9640 1757 c0 -11 106 -334 125 -380 6 -14 17 -17 48 -15 l41 3 37
113 c20 63 41 118 45 122 6 6 21 -24 38 -73 63 -183 54 -168 99 -165 l40 3 63
190 c35 105 64 196 64 203 0 8 -16 12 -44 12 l-45 0 -26 -87 c-45 -151 -47
-158 -55 -166 -4 -5 -24 42 -45 105 -49 148 -49 148 -90 148 -30 0 -35 -4 -45
-37 -41 -129 -74 -213 -80 -206 -4 4 -24 61 -44 126 l-37 117 -44 0 c-30 0
-45 -4 -45 -13z"/>
</g>
</svg>
