<?xml version="1.0" standalone="no"?>
<!DOCTYPE svg PUBLIC "-//W3C//DTD SVG 20010904//EN"
 "http://www.w3.org/TR/2001/REC-SVG-20010904/DTD/svg10.dtd">
<svg version="1.0" xmlns="http://www.w3.org/2000/svg"
 width="1280.000000pt" height="720.000000pt" viewBox="0 0 1280.000000 720.000000"
 preserveAspectRatio="xMidYMid meet">
<metadata>
Created by potrace 1.16, written by Peter Selinger 2001-2019
</metadata>
<g transform="translate(0.000000,720.000000) scale(0.100000,-0.100000)"
fill="#000000" stroke="none">
<path d="M9300 4189 c25 -4 113 -15 195 -23 364 -38 687 -86 955 -142 69 -14
143 -30 165 -34 266 -55 645 -203 645 -251 0 -24 -157 -85 -280 -108 -99 -19
-341 -50 -535 -68 -160 -15 -295 -18 -860 -18 -619 0 -891 7 -1445 36 -1228
64 -2527 50 -3850 -41 -505 -35 -1080 -90 -1420 -136 -334 -45 -474 -64 -565
-79 -49 -8 -139 -22 -200 -31 -518 -77 -1146 -265 -1285 -384 -19 -17 -38 -30
-42 -30 -15 0 -58 -88 -58 -119 0 -26 10 -43 48 -80 42 -42 62 -52 151 -80 56
-18 159 -41 229 -52 70 -10 133 -21 140 -24 20 -7 284 -36 289 -31 2 2 -36 9
-84 15 -48 6 -102 16 -119 21 -17 6 -41 10 -54 10 -28 0 -101 20 -114 32 -6 4
-22 8 -37 8 -14 0 -62 11 -105 25 -44 14 -101 32 -129 41 -58 18 -135 77 -135
103 0 42 92 98 245 149 147 49 195 61 372 91 92 17 240 44 328 61 166 32 543
94 845 140 81 12 559 77 620 84 55 6 351 38 605 65 1174 126 2682 182 3785
142 1677 -61 2117 -71 2595 -60 354 8 729 36 875 64 173 34 321 103 360 167
13 22 20 51 20 85 0 44 -5 58 -29 86 -16 18 -52 45 -79 60 -223 121 -932 254
-1609 302 -231 16 -513 19 -433 4z"/>
</g>
</svg>
