<?xml version="1.0" standalone="no"?>
<!DOCTYPE svg PUBLIC "-//W3C//DTD SVG 20010904//EN"
 "http://www.w3.org/TR/2001/REC-SVG-20010904/DTD/svg10.dtd">
<svg version="1.0" xmlns="http://www.w3.org/2000/svg"
 width="1280.000000pt" height="720.000000pt" viewBox="0 0 1280.000000 720.000000"
 preserveAspectRatio="xMidYMid meet">
<metadata>
Created by potrace 1.16, written by Peter Selinger 2001-2019
</metadata>
<g transform="translate(0.000000,720.000000) scale(0.100000,-0.100000)"
fill="#000000" stroke="none">
<path d="M4297 5859 c-314 -46 -596 -262 -738 -563 -59 -127 -80 -218 -86
-377 -6 -161 10 -258 63 -387 38 -93 49 -112 111 -194 157 -207 364 -332 793
-476 527 -177 705 -280 838 -483 65 -99 94 -200 94 -334 1 -298 -136 -506
-396 -601 -166 -60 -456 -56 -656 8 -218 70 -396 216 -538 443 -95 152 -200
439 -253 695 -33 155 -43 185 -57 163 -4 -6 -6 -222 -5 -480 1 -257 2 -564 2
-680 l1 -213 24 0 c21 0 30 11 56 64 54 114 127 151 248 127 31 -6 115 -34
187 -63 590 -232 1111 -170 1454 173 111 110 191 238 245 389 51 139 59 200
61 425 2 233 9 270 77 383 34 54 147 172 167 172 8 0 11 -241 11 -835 l0 -835
603 0 c371 0 608 4 617 10 13 8 13 10 -2 10 -17 0 -18 74 -18 1317 0 1284 -1
1317 -19 1337 -49 53 -116 202 -136 304 -20 97 -25 -24 -25 -547 l0 -568 -262
-7 c-241 -5 -294 -10 -413 -31 -26 -5 -37 -4 -30 2 12 12 165 50 245 61 l55 7
3 764 2 763 478 -5 c497 -5 550 -9 721 -53 322 -84 553 -280 700 -595 168
-359 234 -1041 155 -1599 -71 -503 -270 -860 -568 -1024 -101 -56 -333 -115
-453 -116 l-23 0 0 1220 0 1220 -40 2 c-22 1 -52 2 -66 2 l-27 1 -2 -615 c-1
-338 -3 -894 -4 -1235 l-2 -620 293 1 c260 1 305 4 398 23 569 119 945 490
1098 1081 87 335 91 796 10 1145 -46 200 -147 431 -256 585 -55 79 -185 215
-267 280 -145 115 -349 210 -569 265 -282 71 -270 70 -1281 70 l-910 0 -5
-846 -5 -845 -80 -65 c-95 -77 -162 -158 -205 -247 l-31 -66 -41 70 c-123 212
-321 375 -599 493 -63 27 -207 80 -321 119 -450 154 -568 213 -709 352 -75 74
-125 154 -160 256 -32 92 -35 288 -5 374 46 136 115 228 228 300 76 50 162 77
287 91 182 21 349 -8 511 -87 82 -41 108 -61 195 -148 165 -166 274 -352 383
-652 31 -87 62 -159 69 -161 6 -2 14 9 17 24 2 15 4 253 3 528 -2 497 -2 500
-23 503 -16 2 -25 -7 -38 -37 -35 -77 -115 -131 -194 -131 -60 0 -138 24 -272
85 -138 63 -261 99 -390 115 -97 12 -239 11 -323 -1z m2721 -2545 l-3 -886
-195 1 -195 0 -3 886 -2 885 200 0 200 0 -2 -886z"/>
<path d="M2403 1771 c-74 -19 -112 -75 -99 -147 9 -44 48 -73 133 -99 72 -22
95 -43 74 -69 -19 -22 -93 -20 -140 4 l-38 19 -22 -23 c-30 -32 -27 -42 22
-71 35 -20 57 -25 111 -25 116 0 166 39 166 130 0 52 -28 81 -101 104 -104 33
-109 36 -109 66 0 39 46 47 109 19 l46 -20 22 28 c13 15 23 32 23 36 0 13 -81
46 -125 51 -22 3 -55 1 -72 -3z"/>
<path d="M4012 1767 c-200 -76 -184 -362 23 -408 45 -10 66 -10 102 0 93 24
129 74 78 107 -23 15 -26 15 -51 -5 -41 -32 -115 -29 -154 7 -58 51 -58 147 1
196 40 34 113 36 154 5 l27 -22 26 27 c22 21 25 30 16 44 -31 48 -153 75 -222
49z"/>
<path d="M4841 1765 c-85 -27 -141 -106 -141 -200 0 -99 55 -174 148 -201 143
-42 281 55 282 197 0 154 -137 251 -289 204z m153 -100 c36 -33 49 -72 41
-122 -12 -85 -111 -130 -186 -86 -107 63 -55 233 71 233 36 0 53 -6 74 -25z"/>
<path d="M7418 1766 c-89 -32 -138 -103 -138 -203 0 -81 30 -138 94 -178 41
-25 58 -29 115 -29 67 0 99 11 139 47 28 26 28 43 -2 62 -22 15 -26 14 -57 -4
-45 -28 -117 -28 -152 -1 -32 25 -51 81 -44 126 16 98 116 140 198 83 26 -18
26 -18 51 9 14 15 23 33 21 41 -8 21 -104 61 -148 60 -22 0 -56 -6 -77 -13z"/>
<path d="M8476 1768 c-21 -6 -58 -29 -81 -52 -118 -114 -65 -318 92 -355 71
-17 151 -1 194 40 l32 30 -23 24 c-28 30 -35 31 -67 5 -39 -30 -113 -27 -152
6 -60 50 -60 148 0 198 39 33 106 35 154 6 l32 -20 24 26 c18 19 21 29 13 42
-27 44 -143 71 -218 50z"/>
<path d="M3082 1568 l3 -203 42 -3 42 -3 3 78 3 78 98 3 98 3 -3 37 -3 37 -98
3 -98 3 3 42 3 42 113 3 112 3 0 39 0 40 -160 0 -160 0 2 -202z"/>
<path d="M3561 1753 c-19 -36 -161 -374 -161 -383 0 -6 20 -10 45 -10 43 0 45
1 64 45 l20 45 81 0 81 0 20 -45 c19 -44 21 -45 64 -45 25 0 45 3 45 8 0 4
-37 96 -82 205 l-82 197 -43 0 c-30 0 -45 -5 -52 -17z"/>
<path d="M4304 1756 c-3 -8 -4 -25 -2 -38 3 -20 10 -24 63 -28 l60 -5 3 -163
3 -163 42 3 42 3 3 163 2 162 60 0 c55 0 60 2 66 25 13 53 8 55 -171 55 -134
0 -167 -3 -171 -14z"/>
<path d="M5234 1757 c-2 -7 -3 -98 -2 -202 l3 -190 39 -3 c48 -4 56 6 56 76
l0 52 34 0 c30 0 38 -6 76 -65 l42 -65 49 0 c28 0 49 5 49 10 0 6 -19 38 -42
70 l-41 59 27 22 c57 45 71 123 33 180 -37 56 -76 69 -205 69 -82 0 -114 -3
-118 -13z m235 -82 c21 -21 22 -61 4 -84 -15 -18 -29 -22 -77 -22 -39 -1 -61
3 -67 12 -11 17 -12 93 -1 103 10 11 130 2 141 -9z"/>
<path d="M5870 1564 l0 -206 120 4 c114 4 122 6 162 34 67 47 89 94 86 181 -3
62 -7 76 -34 110 -52 65 -101 83 -226 83 l-108 0 0 -206z m218 112 c54 -29 78
-109 49 -166 -21 -42 -75 -71 -127 -68 l-45 3 -3 123 -3 122 53 0 c29 -1 63
-6 76 -14z"/>
<path d="M6464 1757 c-2 -7 -40 -96 -83 -197 -43 -102 -77 -188 -74 -192 2 -5
22 -8 44 -8 38 0 41 2 60 45 l20 45 80 0 79 0 22 -45 c21 -43 24 -45 65 -45
24 0 43 4 43 8 0 7 -53 139 -157 390 -7 17 -92 16 -99 -1z"/>
<path d="M6809 1765 c0 -3 0 -90 0 -195 0 -104 0 -195 0 -201 1 -6 19 -9 44
-7 l42 3 3 118 c1 64 6 117 10 117 4 0 16 -15 28 -33 11 -17 54 -72 94 -120
69 -84 74 -88 109 -85 35 3 36 4 36 41 -1 20 -2 111 -3 202 l-2 165 -40 0
c-31 0 -40 -4 -40 -17 -2 -91 -9 -215 -12 -219 -3 -2 -47 50 -98 116 -90 117
-93 120 -131 120 -22 0 -39 -2 -40 -5z"/>
<path d="M7748 1578 c-2 -106 -2 -199 0 -205 3 -10 44 -13 158 -13 l154 0 0
40 0 40 -110 0 -110 0 0 45 0 45 95 0 95 0 0 35 0 34 -92 3 -93 3 -3 43 -3 42
110 0 111 0 0 40 0 40 -154 0 -154 0 -4 -192z"/>
<path d="M8804 1757 c-2 -7 -3 -98 -2 -202 l3 -190 45 0 45 0 3 63 3 62 34 0
c32 0 39 -6 77 -65 43 -64 43 -65 91 -65 26 0 47 3 47 7 0 4 -18 35 -41 69
l-40 62 37 34 c71 65 53 176 -36 220 -44 23 -257 26 -266 5z m236 -87 c11 -11
20 -29 20 -40 0 -39 -35 -60 -100 -60 l-60 0 0 60 0 60 60 0 c47 0 64 -4 80
-20z"/>
<path d="M9255 1757 c-3 -7 -4 -98 -3 -202 l3 -190 158 -3 157 -3 0 41 0 40
-109 0 c-102 0 -110 1 -116 21 -4 11 -4 31 -1 44 6 23 11 24 99 27 l92 3 3 33
3 32 -95 0 c-93 0 -96 1 -102 24 -14 57 -8 61 111 66 l110 5 0 35 0 35 -153 3
c-118 2 -154 0 -157 -11z"/>
<path d="M9640 1757 c0 -11 106 -334 125 -380 6 -14 17 -17 48 -15 l40 3 39
114 c21 63 41 118 46 123 4 4 20 -30 36 -75 63 -183 54 -168 99 -165 l40 3 63
190 c35 104 64 195 64 202 0 9 -15 13 -44 13 l-45 0 -26 -87 c-14 -49 -34
-108 -42 -132 l-17 -44 -17 49 c-10 27 -31 85 -46 129 -28 79 -29 80 -65 83
-34 3 -37 1 -48 -35 -35 -113 -74 -213 -80 -206 -4 4 -24 61 -44 126 l-37 117
-45 0 c-29 0 -44 -4 -44 -13z"/>
</g>
</svg>
