<?xml version="1.0" standalone="no"?>
<!DOCTYPE svg PUBLIC "-//W3C//DTD SVG 20010904//EN"
 "http://www.w3.org/TR/2001/REC-SVG-20010904/DTD/svg10.dtd">
<svg version="1.0" xmlns="http://www.w3.org/2000/svg"
 width="1280.000000pt" height="720.000000pt" viewBox="0 0 1280.000000 720.000000"
 preserveAspectRatio="xMidYMid meet">
<metadata>
Created by potrace 1.16, written by Peter Selinger 2001-2019
</metadata>
<g transform="translate(0.000000,720.000000) scale(0.100000,-0.100000)"
fill="#000000" stroke="none">
<path d="M4303 5860 c-184 -26 -373 -118 -516 -250 -128 -117 -243 -308 -288
-476 -30 -110 -37 -322 -15 -432 52 -255 206 -469 447 -620 115 -73 268 -139
509 -220 281 -96 422 -151 510 -199 268 -149 392 -312 419 -550 22 -198 -35
-385 -155 -513 -122 -129 -265 -188 -479 -197 -427 -18 -730 139 -953 492
-102 163 -213 475 -267 755 -13 69 -26 110 -34 110 -18 0 -21 -160 -15 -756
l7 -624 24 0 c19 0 28 10 44 47 30 70 66 113 113 134 76 35 134 24 376 -69
197 -76 353 -109 552 -119 411 -19 756 138 969 440 133 189 194 383 193 617
-1 116 -5 147 -27 220 -72 237 -237 436 -477 578 -125 74 -257 129 -595 247
-392 136 -504 194 -642 331 -119 119 -183 276 -183 450 0 101 15 166 61 260
72 148 183 234 364 285 104 29 309 31 430 5 335 -75 587 -359 774 -875 31 -85
61 -156 68 -158 7 -3 14 10 18 29 3 18 5 256 3 528 -3 492 -3 495 -24 498 -16
2 -25 -7 -39 -38 -58 -128 -193 -161 -359 -89 -302 131 -407 159 -611 164 -77
2 -168 0 -202 -5z"/>
</g>
</svg>
