<?xml version="1.0" standalone="no"?>
<!DOCTYPE svg PUBLIC "-//W3C//DTD SVG 20010904//EN"
 "http://www.w3.org/TR/2001/REC-SVG-20010904/DTD/svg10.dtd">
<svg version="1.0" xmlns="http://www.w3.org/2000/svg"
 width="1280.000000pt" height="720.000000pt" viewBox="0 0 1280.000000 720.000000"
 preserveAspectRatio="xMidYMid meet">
<metadata>
Created by potrace 1.16, written by Peter Selinger 2001-2019
</metadata>
<g transform="translate(0.000000,720.000000) scale(0.100000,-0.100000)"
fill="#000000" stroke="none">
<path d="M4303 5860 c-184 -26 -380 -121 -522 -254 -123 -116 -238 -307 -282
-472 -30 -110 -37 -322 -15 -432 42 -207 148 -383 316 -524 145 -122 312 -205
625 -311 282 -96 367 -128 468 -176 85 -41 208 -119 264 -168 66 -57 143 -167
175 -248 27 -70 31 -95 36 -205 4 -104 1 -139 -16 -205 -29 -116 -68 -190
-138 -265 -73 -77 -159 -130 -269 -167 -76 -26 -89 -27 -280 -27 -183 1 -208
3 -297 27 -88 23 -278 109 -286 129 -2 4 -8 8 -14 8 -5 0 -21 9 -36 20 -14 11
-28 16 -31 11 -3 -5 -38 -13 -76 -19 -44 -6 -57 -10 -35 -11 23 -1 30 -4 22
-10 -10 -6 -4 -11 20 -20 18 -7 58 -24 88 -38 166 -77 444 -133 657 -133 157
0 363 49 500 119 233 118 420 333 508 582 131 372 60 702 -209 974 -102 103
-202 173 -352 246 -109 52 -168 75 -529 201 -340 118 -461 183 -592 314 -120
121 -183 276 -183 450 0 101 15 166 61 260 45 93 122 177 203 223 28 16 92 42
141 57 80 23 107 26 235 26 102 0 167 -5 220 -17 333 -77 583 -361 769 -874
31 -85 61 -156 68 -158 7 -3 14 10 18 29 3 18 4 256 3 528 -3 492 -3 495 -24
498 -16 2 -25 -7 -39 -38 -58 -128 -193 -161 -359 -89 -302 131 -407 159 -611
164 -77 2 -168 0 -202 -5z"/>
</g>
</svg>
