<?xml version="1.0" standalone="no"?>
<!DOCTYPE svg PUBLIC "-//W3C//DTD SVG 20010904//EN"
 "http://www.w3.org/TR/2001/REC-SVG-20010904/DTD/svg10.dtd">
<svg version="1.0" xmlns="http://www.w3.org/2000/svg"
 width="1280.000000pt" height="720.000000pt" viewBox="0 0 1280.000000 720.000000"
 preserveAspectRatio="xMidYMid meet">
<metadata>
Created by potrace 1.16, written by Peter Selinger 2001-2019
</metadata>
<g transform="translate(0.000000,720.000000) scale(0.100000,-0.100000)"
fill="#000000" stroke="none">
<path d="M4296 5859 c-244 -32 -491 -187 -649 -410 -113 -160 -166 -321 -174
-530 -6 -160 10 -258 63 -387 41 -99 62 -134 142 -232 147 -182 348 -298 762
-438 288 -98 351 -122 457 -174 229 -110 378 -254 439 -424 70 -192 43 -437
-66 -595 -117 -171 -286 -255 -535 -266 -405 -18 -700 123 -915 438 -124 181
-227 446 -294 758 -30 144 -48 188 -57 144 -4 -19 -4 -240 -1 -950 l2 -413 24
0 c21 0 30 11 56 64 75 158 169 171 443 62 576 -230 1098 -168 1441 171 148
146 245 324 293 541 13 58 17 128 18 282 1 229 7 260 79 378 35 58 145 172
165 172 8 0 11 -247 11 -835 l0 -835 603 2 c484 2 601 6 599 16 -1 7 -4 604
-7 1327 l-5 1314 -35 49 c-44 61 -80 143 -101 227 -9 36 -20 65 -25 65 -5 0
-9 -249 -9 -570 l0 -570 -167 0 c-181 0 -385 -13 -473 -30 -30 -6 -66 -13 -80
-15 l-25 -5 25 14 c28 15 226 63 280 68 l35 3 3 763 2 764 478 -5 c494 -5 547
-9 717 -52 313 -79 542 -269 695 -574 71 -143 133 -367 164 -602 32 -234 49
-664 28 -697 -7 -10 -14 -10 -38 3 -16 8 -32 15 -36 15 -4 0 -31 11 -60 24
-145 66 -632 207 -848 245 l-95 17 0 334 c0 214 -4 334 -10 336 -5 1 -34 4
-63 7 l-52 4 0 -446 c1 -605 -10 -1969 -15 -2005 l-5 -28 303 5 c260 4 316 8
402 27 427 92 742 322 941 686 155 284 235 672 221 1064 -17 455 -126 805
-337 1090 -56 75 -200 218 -280 277 -159 118 -388 212 -637 263 -236 47 -320
51 -1233 48 l-855 -3 -3 -847 -2 -847 -33 -22 c-116 -81 -221 -199 -265 -301
-12 -27 -23 -48 -26 -48 -3 0 -21 30 -40 68 -46 86 -153 211 -245 286 -155
125 -317 202 -691 331 -254 87 -390 140 -470 183 -87 46 -201 133 -256 196
-59 68 -122 190 -139 274 -19 88 -19 213 0 287 35 139 133 277 242 341 154 90
413 116 623 63 264 -68 470 -263 638 -605 60 -120 73 -152 134 -323 35 -99 53
-120 62 -74 3 15 4 253 2 528 -3 491 -3 500 -23 503 -15 2 -24 -7 -38 -38 -35
-77 -116 -130 -200 -130 -48 0 -133 25 -215 63 -180 84 -280 116 -433 136 -91
13 -232 12 -331 0z m2722 -2540 l-3 -891 -195 1 -195 1 -3 885 -2 884 122 4
c68 1 158 4 201 5 l77 2 -2 -891z m827 783 c282 -63 829 -233 849 -265 13 -21
-18 -309 -50 -455 -63 -297 -176 -531 -333 -695 -108 -113 -197 -169 -340
-217 -78 -26 -325 -70 -335 -59 -2 2 -6 393 -9 867 l-5 864 41 -4 c23 -3 105
-19 182 -36z"/>
</g>
</svg>
