<?xml version="1.0" standalone="no"?>
<!DOCTYPE svg PUBLIC "-//W3C//DTD SVG 20010904//EN"
 "http://www.w3.org/TR/2001/REC-SVG-20010904/DTD/svg10.dtd">
<svg version="1.0" xmlns="http://www.w3.org/2000/svg"
 width="1280.000000pt" height="720.000000pt" viewBox="0 0 1280.000000 720.000000"
 preserveAspectRatio="xMidYMid meet">
<metadata>
Created by potrace 1.16, written by Peter Selinger 2001-2019
</metadata>
<g transform="translate(0.000000,720.000000) scale(0.100000,-0.100000)"
fill="#000000" stroke="none">
<path d="M4301 5860 c-181 -25 -379 -122 -520 -254 -124 -116 -238 -308 -282
-472 -30 -112 -37 -323 -15 -431 52 -256 205 -470 447 -622 114 -71 270 -138
511 -220 392 -133 504 -183 649 -287 169 -122 256 -267 278 -466 31 -274 -95
-522 -320 -632 -100 -48 -173 -66 -310 -73 -325 -17 -587 76 -788 279 -205
206 -359 555 -442 998 -12 69 -25 93 -37 73 -7 -11 -8 -264 -4 -980 l2 -393
25 0 c21 0 29 10 53 63 51 111 132 154 248 129 28 -5 115 -35 195 -66 389
-152 738 -177 1041 -76 308 103 542 332 652 640 49 135 59 201 61 405 2 200 5
217 58 321 32 63 133 165 207 208 198 116 523 186 866 186 l141 0 7 -687 c9
-959 9 -1074 -1 -1084 -4 -4 -46 -10 -93 -12 -47 -1 52 -4 220 -5 168 -1 342
-5 387 -9 l82 -6 1 304 c2 645 10 1422 14 1426 8 8 231 -36 406 -81 319 -81
574 -163 845 -271 61 -24 121 -46 135 -50 l25 -6 -25 20 c-54 45 -269 146
-445 211 -33 12 -76 28 -95 36 -182 72 -604 194 -800 231 l-45 9 -3 316 -2
315 -68 7 c-255 25 -455 215 -513 486 -6 30 -15 48 -20 43 -5 -5 -10 -249 -11
-542 l-3 -533 -225 -3 c-307 -4 -479 -31 -667 -106 -168 -66 -333 -207 -406
-347 -21 -39 -40 -72 -42 -72 -2 0 -23 32 -45 71 -86 147 -220 276 -390 377
-120 71 -258 129 -525 222 -468 162 -566 211 -712 356 -147 147 -211 356 -172
570 16 89 80 211 146 278 70 71 135 108 248 142 81 24 106 26 240 26 166 0
256 -17 372 -71 197 -93 362 -275 501 -556 60 -121 73 -154 134 -324 36 -102
54 -122 62 -69 4 18 5 256 4 528 -3 493 -3 495 -24 498 -16 2 -25 -7 -39 -38
-57 -127 -192 -161 -359 -89 -315 136 -396 158 -606 164 -80 2 -174 0 -209 -5z"/>
</g>
</svg>
