<?xml version="1.0" standalone="no"?>
<!DOCTYPE svg PUBLIC "-//W3C//DTD SVG 20010904//EN"
 "http://www.w3.org/TR/2001/REC-SVG-20010904/DTD/svg10.dtd">
<svg version="1.0" xmlns="http://www.w3.org/2000/svg"
 width="1280.000000pt" height="720.000000pt" viewBox="0 0 1280.000000 720.000000"
 preserveAspectRatio="xMidYMid meet">
<metadata>
Created by potrace 1.16, written by Peter Selinger 2001-2019
</metadata>
<g transform="translate(0.000000,720.000000) scale(0.100000,-0.100000)"
fill="#000000" stroke="none">
<path d="M4296 5859 c-244 -32 -491 -187 -649 -410 -113 -160 -166 -321 -174
-530 -6 -160 10 -258 63 -387 41 -99 62 -134 142 -232 147 -182 351 -300 762
-438 256 -87 422 -152 515 -202 257 -141 386 -309 415 -542 26 -211 -47 -427
-186 -551 -118 -105 -255 -155 -449 -164 -405 -18 -700 123 -915 438 -98 143
-169 305 -252 576 -5 18 -24 101 -42 185 -18 83 -38 154 -44 156 -13 4 -17
-163 -14 -658 1 -162 2 -391 2 -507 l0 -213 24 0 c21 0 30 11 56 64 54 114
127 151 248 127 31 -6 120 -36 197 -66 578 -229 1103 -165 1444 176 111 110
191 238 245 389 51 141 59 199 61 425 1 234 8 267 80 385 33 55 145 170 166
170 5 0 9 -319 9 -835 l0 -835 598 1 c328 0 606 4 617 9 17 7 17 9 3 9 -17 1
-18 77 -18 1318 0 1284 -1 1317 -19 1337 -49 53 -116 202 -136 304 -20 97 -25
-24 -25 -547 l0 -568 -257 -6 c-165 -4 -292 -11 -352 -22 -52 -8 -96 -13 -98
-11 -10 10 188 58 277 68 l25 3 3 763 2 764 473 -5 c379 -3 492 -8 575 -21
197 -32 355 -90 483 -176 131 -89 274 -259 359 -430 232 -463 265 -1461 67
-2035 -95 -274 -266 -497 -468 -608 -101 -55 -247 -95 -416 -112 l-63 -7 0
1221 0 1221 -40 2 c-22 1 -52 2 -66 2 l-26 1 -4 -1215 c-3 -668 -7 -1226 -10
-1239 l-5 -24 303 6 c331 6 407 16 591 78 503 168 849 609 941 1199 76 488 23
964 -148 1326 -98 205 -237 383 -403 516 -174 138 -437 247 -718 297 -217 38
-345 42 -1210 39 l-830 -3 -5 -847 -5 -846 -50 -38 c-114 -85 -183 -165 -237
-276 -15 -32 -30 -58 -32 -58 -3 0 -21 30 -40 68 -71 134 -221 285 -381 382
-126 77 -246 127 -600 250 -406 141 -512 196 -650 335 -72 72 -131 168 -161
262 -24 77 -30 246 -10 323 36 145 131 280 242 345 164 96 446 120 660 54 134
-41 220 -94 329 -204 170 -170 287 -371 391 -674 43 -124 57 -151 71 -137 5 4
8 242 7 529 0 516 0 522 -20 525 -16 2 -25 -7 -39 -38 -35 -77 -117 -130 -200
-130 -55 1 -118 21 -264 85 -256 112 -467 145 -715 114z m2722 -2546 l-3 -885
-195 1 -195 0 -3 885 -2 886 187 2 c104 2 194 1 201 -1 10 -2 12 -185 10 -888z"/>
<path d="M2425 1775 c-5 -2 -22 -6 -37 -9 -83 -18 -115 -137 -54 -195 13 -12
56 -32 96 -44 79 -24 103 -45 81 -71 -20 -23 -98 -21 -140 5 l-33 20 -24 -22
c-34 -32 -30 -45 19 -74 36 -20 57 -25 116 -25 82 0 123 16 145 58 44 86 10
149 -99 182 -86 25 -95 31 -95 60 0 39 46 47 109 19 l46 -20 22 28 c13 15 23
31 23 35 0 23 -142 66 -175 53z"/>
<path d="M4017 1767 c-88 -29 -147 -109 -147 -202 0 -139 121 -236 258 -207
94 20 136 67 94 105 -24 22 -28 21 -59 -3 -18 -14 -41 -20 -75 -20 -43 0 -54
4 -84 34 -58 58 -45 174 23 205 40 19 107 13 138 -10 l27 -22 26 27 c21 21 25
30 16 44 -27 45 -146 72 -217 49z"/>
<path d="M4841 1765 c-51 -16 -95 -55 -123 -109 -31 -60 -23 -157 17 -213 35
-49 65 -69 128 -82 138 -32 266 64 267 200 0 154 -137 251 -289 204z m153
-100 c36 -33 49 -72 41 -122 -12 -85 -111 -130 -186 -86 -107 63 -55 233 71
233 36 0 53 -6 74 -25z"/>
<path d="M7433 1771 c-58 -15 -117 -64 -139 -117 -8 -18 -14 -60 -14 -92 0
-80 31 -137 94 -177 41 -25 58 -29 115 -29 67 0 99 11 139 47 28 26 28 43 -2
62 -22 15 -26 14 -57 -4 -45 -28 -117 -28 -152 -1 -77 61 -50 205 42 230 41
11 56 8 108 -18 31 -16 33 -15 57 7 31 29 24 46 -26 72 -45 23 -118 32 -165
20z"/>
<path d="M8477 1767 c-148 -48 -195 -231 -90 -348 68 -75 207 -86 289 -24 40
31 41 35 11 63 -29 27 -32 27 -64 2 -39 -30 -113 -27 -152 6 -60 50 -60 148 0
198 39 33 109 36 154 6 29 -19 29 -19 52 2 36 34 29 56 -22 79 -57 25 -129 32
-178 16z"/>
<path d="M3084 1757 c-2 -7 -3 -98 -2 -202 l3 -190 42 -3 42 -3 3 78 3 78 98
3 98 3 -3 37 -3 37 -98 3 -98 3 3 42 3 42 113 3 112 3 0 39 0 40 -155 0 c-117
0 -157 -3 -161 -13z"/>
<path d="M3556 1743 c-7 -16 -34 -77 -59 -138 -25 -60 -57 -135 -71 -165 -35
-75 -34 -80 19 -80 43 0 45 1 64 45 l20 45 81 0 81 0 20 -45 c19 -44 21 -45
64 -45 25 0 45 4 45 8 0 8 -44 117 -126 309 l-39 93 -42 0 c-36 0 -45 -4 -57
-27z"/>
<path d="M4304 1756 c-3 -8 -4 -25 -2 -38 3 -20 10 -24 63 -28 l60 -5 3 -163
3 -163 42 3 42 3 3 163 2 162 60 0 c55 0 60 2 66 25 13 53 8 55 -171 55 -134
0 -167 -3 -171 -14z"/>
<path d="M5234 1757 c-2 -7 -3 -98 -2 -202 l3 -190 45 0 45 0 3 63 3 62 33 0
c28 0 38 -7 62 -42 52 -79 64 -88 111 -88 24 0 43 4 43 9 0 5 -19 37 -41 70
l-42 60 31 26 c78 66 60 192 -34 231 -45 19 -252 20 -260 1z m238 -85 c16 -16
14 -70 -3 -87 -8 -7 -40 -15 -72 -18 -69 -6 -80 6 -70 78 l6 47 63 -4 c35 -2
69 -9 76 -16z"/>
<path d="M5870 1564 l0 -206 119 3 c114 4 121 5 163 34 67 48 89 95 86 182 -3
62 -7 76 -34 110 -52 65 -101 83 -226 83 l-108 0 0 -206z m208 115 c46 -16 76
-69 69 -125 -8 -73 -73 -121 -152 -112 l-30 3 -3 123 -3 122 44 0 c24 0 58 -5
75 -11z"/>
<path d="M6460 1744 c-6 -14 -21 -49 -34 -77 -13 -29 -43 -99 -66 -157 -24
-58 -47 -110 -52 -117 -16 -20 1 -33 43 -33 38 0 41 2 60 45 l20 45 80 0 80 0
20 -45 c19 -44 21 -45 66 -45 38 0 45 3 41 18 -3 9 -40 101 -83 205 l-77 187
-44 0 c-39 0 -46 -3 -54 -26z"/>
<path d="M6809 1765 c0 -3 0 -90 0 -195 0 -104 0 -195 0 -201 1 -6 19 -9 44
-7 l42 3 3 118 c1 64 6 117 10 117 4 0 18 -17 32 -37 14 -21 56 -75 94 -121
65 -79 70 -83 105 -80 35 3 36 4 36 46 -1 23 -2 114 -3 202 l-2 160 -40 0
c-31 0 -40 -4 -40 -17 -2 -94 -9 -215 -13 -219 -2 -3 -46 50 -97 116 -90 117
-93 120 -131 120 -22 0 -39 -2 -40 -5z"/>
<path d="M7750 1565 l0 -205 155 0 155 0 0 40 0 40 -111 0 -110 0 3 43 3 42
93 3 92 3 0 34 0 34 -92 3 -93 3 -3 43 -3 42 110 0 111 0 0 40 0 40 -155 0
-155 0 0 -205z"/>
<path d="M8804 1757 c-2 -7 -3 -98 -2 -202 l3 -190 45 0 45 0 3 63 3 62 34 0
c32 0 39 -6 77 -65 43 -64 43 -65 91 -65 26 0 47 3 47 8 0 4 -18 34 -40 67
l-40 60 38 38 c34 35 37 42 37 97 0 48 -4 63 -25 85 -41 45 -79 55 -200 55
-81 0 -112 -3 -116 -13z m236 -87 c11 -11 20 -29 20 -40 0 -39 -35 -60 -100
-60 l-60 0 0 60 0 60 60 0 c47 0 64 -4 80 -20z"/>
<path d="M9257 1764 c-9 -9 -9 -366 -1 -388 5 -14 29 -16 160 -16 l154 0 0 40
0 40 -109 0 c-102 0 -110 1 -116 21 -4 11 -4 31 -1 44 6 23 11 24 99 27 l92 3
3 33 3 32 -95 0 c-93 0 -96 1 -102 24 -14 57 -8 61 111 66 l110 5 0 35 0 35
-151 3 c-82 1 -153 -1 -157 -4z"/>
<path d="M9640 1757 c0 -11 106 -334 125 -379 5 -13 18 -18 45 -18 37 0 39 2
58 53 11 28 28 79 38 112 28 96 36 96 68 2 63 -183 54 -168 99 -165 l40 3 63
190 c35 104 64 195 64 202 0 9 -15 13 -44 13 l-45 0 -26 -87 c-38 -125 -48
-157 -56 -166 -3 -5 -23 42 -44 105 -49 148 -49 148 -90 148 l-33 0 -42 -126
c-23 -69 -46 -122 -50 -117 -4 4 -24 61 -44 126 l-37 117 -44 0 c-30 0 -45 -4
-45 -13z"/>
</g>
</svg>
