<?xml version="1.0" standalone="no"?>
<!DOCTYPE svg PUBLIC "-//W3C//DTD SVG 20010904//EN"
 "http://www.w3.org/TR/2001/REC-SVG-20010904/DTD/svg10.dtd">
<svg version="1.0" xmlns="http://www.w3.org/2000/svg"
 width="1280.000000pt" height="720.000000pt" viewBox="0 0 1280.000000 720.000000"
 preserveAspectRatio="xMidYMid meet">
<metadata>
Created by potrace 1.16, written by Peter Selinger 2001-2019
</metadata>
<g transform="translate(0.000000,720.000000) scale(0.100000,-0.100000)"
fill="#000000" stroke="none">
<path d="M4295 5859 c-177 -26 -375 -123 -514 -253 -124 -116 -238 -308 -282
-472 -30 -113 -37 -323 -14 -435 60 -297 249 -524 573 -688 101 -52 141 -67
433 -167 345 -117 449 -164 603 -273 240 -170 333 -448 250 -741 -29 -101 -65
-162 -143 -241 -124 -124 -250 -175 -462 -186 -426 -22 -748 146 -963 504
-110 185 -211 476 -267 773 -12 69 -25 93 -37 73 -7 -11 -8 -266 -4 -975 l2
-398 25 0 c21 0 29 10 53 63 51 111 132 154 248 129 28 -5 115 -35 195 -66
512 -199 970 -179 1307 57 177 123 313 302 386 505 49 137 59 204 61 407 2
205 8 235 68 337 29 50 154 178 174 178 11 0 13 -146 13 -805 l0 -805 813 2
812 3 3 878 c1 482 5 877 7 877 9 0 285 -58 357 -74 110 -26 425 -121 558
-169 165 -60 160 -57 160 -74 0 -8 5 -11 10 -8 6 3 10 -4 10 -16 0 -20 4 -21
40 -16 32 4 60 -3 137 -34 54 -22 112 -49 129 -60 17 -10 47 -19 65 -19 l34 1
-28 23 c-16 13 -54 33 -85 46 -31 13 -84 36 -117 53 -33 16 -70 32 -82 36 -15
4 -20 10 -14 19 10 16 278 37 331 25 19 -4 40 -8 45 -9 6 -1 15 -3 20 -4 6 -2
17 -3 25 -4 8 -1 17 -16 21 -36 4 -19 14 -39 23 -46 11 -8 16 -28 16 -65 1
-94 17 -33 32 116 46 488 -24 926 -199 1245 -248 451 -655 692 -1273 755 -130
13 -289 15 -1000 13 l-845 -3 -5 -847 c-3 -465 -7 -848 -10 -851 -3 -2 -25
-17 -50 -34 -73 -49 -181 -171 -223 -250 -21 -40 -41 -73 -45 -73 -4 0 -16 19
-27 42 -45 94 -151 220 -259 306 -152 121 -316 200 -686 327 -380 131 -480
175 -608 273 -101 76 -156 142 -207 247 -50 103 -65 166 -65 269 0 108 17 182
62 274 107 219 343 330 653 306 230 -17 402 -98 556 -261 153 -163 272 -378
375 -678 38 -108 50 -128 64 -105 5 8 8 236 7 530 -2 513 -2 515 -23 518 -16
2 -25 -7 -39 -38 -57 -127 -192 -161 -359 -89 -209 90 -260 110 -332 128 -158
40 -343 51 -489 30z m3375 -82 c407 -69 662 -252 834 -602 107 -216 160 -429
195 -790 14 -138 16 -508 3 -513 -5 -1 -58 16 -118 39 -282 108 -619 205 -896
259 l-58 11 0 335 0 334 -32 0 c-119 1 -268 63 -363 152 -96 90 -164 215 -189
352 -20 104 -26 -17 -28 -534 l-3 -555 -40 1 c-22 1 -105 3 -185 4 -80 2 -151
7 -157 13 -10 7 -13 172 -13 764 l0 755 478 -5 c372 -3 498 -8 572 -20z m-652
-2469 l-3 -879 -195 0 -195 0 -3 876 c-1 481 -1 876 0 877 6 4 364 13 381 9
16 -3 17 -51 15 -883z"/>
</g>
</svg>
