<?xml version="1.0" standalone="no"?>
<!DOCTYPE svg PUBLIC "-//W3C//DTD SVG 20010904//EN"
 "http://www.w3.org/TR/2001/REC-SVG-20010904/DTD/svg10.dtd">
<svg version="1.0" xmlns="http://www.w3.org/2000/svg"
 width="1280.000000pt" height="720.000000pt" viewBox="0 0 1280.000000 720.000000"
 preserveAspectRatio="xMidYMid meet">
<metadata>
Created by potrace 1.16, written by Peter Selinger 2001-2019
</metadata>
<g transform="translate(0.000000,720.000000) scale(0.100000,-0.100000)"
fill="#000000" stroke="none">
<path d="M4308 5860 c-370 -44 -704 -343 -810 -728 -18 -63 -22 -106 -22 -242
-1 -183 6 -226 61 -359 95 -232 273 -403 563 -540 82 -38 406 -155 610 -221
14 -4 68 -27 120 -50 374 -165 544 -380 543 -685 -1 -225 -86 -404 -247 -514
-115 -79 -214 -109 -391 -117 -474 -23 -801 176 -1023 621 -75 152 -153 396
-197 626 -10 48 -21 92 -25 99 -26 42 -29 -17 -25 -503 2 -276 4 -584 5 -684
l0 -183 24 0 c20 0 30 12 58 67 44 89 88 123 164 130 64 5 113 -8 316 -86 355
-136 723 -157 1013 -58 303 104 548 354 648 662 46 141 60 251 53 420 -7 143
-6 154 18 231 14 44 43 107 64 140 37 56 143 164 163 164 5 0 9 -334 9 -836
l0 -835 1043 4 c1037 3 1042 3 1142 26 263 59 460 155 647 315 262 224 436
584 493 1016 49 369 19 746 -84 1059 -79 241 -186 417 -356 587 -202 202 -390
305 -703 383 -260 66 -263 66 -1267 66 l-910 0 -5 -847 -5 -846 -76 -60 c-97
-76 -149 -138 -200 -234 -22 -43 -42 -78 -44 -78 -2 0 -16 25 -32 56 -15 31
-56 92 -91 135 -175 219 -405 349 -897 509 -334 108 -510 198 -639 323 -81 80
-131 158 -167 263 -32 92 -35 288 -5 374 45 134 129 245 230 304 215 126 551
125 802 -2 226 -114 424 -390 571 -797 57 -158 68 -179 82 -156 5 7 8 245 7
529 -1 515 -1 517 -22 520 -16 2 -25 -7 -39 -38 -24 -54 -84 -106 -136 -120
-82 -22 -148 -5 -384 98 -199 87 -418 118 -647 92z m3218 -70 c246 -20 429
-72 583 -165 226 -136 393 -370 487 -680 127 -418 147 -1139 43 -1585 -70
-305 -168 -506 -328 -673 -94 -98 -194 -165 -307 -206 -83 -30 -282 -71 -345
-71 l-29 0 0 1220 0 1220 -37 0 c-60 0 -166 26 -219 53 -174 88 -287 246 -329
455 -19 93 -25 -31 -27 -548 l-3 -565 -250 -7 c-224 -5 -312 -13 -425 -34 -24
-5 -32 -3 -25 4 10 10 211 58 270 64 l30 3 3 763 2 762 389 0 c213 0 446 -5
517 -10z m-506 -2475 l0 -885 -57 0 c-32 -1 -121 -2 -198 -3 l-140 -2 -3 875
c-1 481 0 881 3 888 3 9 53 12 200 12 l195 0 0 -885z"/>
<path d="M2413 1760 c-43 -10 -83 -37 -83 -55 0 -8 -4 -15 -8 -15 -4 0 -9 -15
-10 -33 -3 -37 29 -87 54 -87 8 0 14 -4 14 -10 0 -5 12 -12 28 -16 83 -19 103
-27 113 -46 8 -15 8 -27 0 -44 -9 -21 -17 -24 -65 -24 -36 0 -67 7 -89 19 -33
18 -33 18 -50 -2 -16 -19 -16 -22 1 -36 31 -29 72 -41 140 -41 59 0 72 3 101
28 24 20 34 37 37 67 7 59 -21 98 -82 115 -27 7 -53 16 -59 20 -5 4 -22 10
-36 14 -30 7 -43 39 -28 68 14 26 81 28 133 2 26 -12 30 -12 46 9 23 27 12 43
-39 56 -65 18 -86 19 -118 11z"/>
<path d="M4008 1751 c-114 -45 -157 -156 -104 -274 35 -80 71 -101 176 -105
83 -3 86 -2 123 29 38 31 38 31 18 50 -21 20 -41 25 -41 10 0 -12 -48 -30 -85
-33 -48 -3 -99 19 -118 51 -11 19 -17 50 -17 90 0 53 4 65 28 91 39 40 74 52
124 41 22 -5 45 -14 51 -20 16 -16 36 -14 54 5 23 22 8 42 -47 65 -57 23 -103
23 -162 0z"/>
<path d="M4825 1749 c-82 -43 -115 -96 -115 -184 0 -158 150 -249 297 -181
128 60 152 231 47 332 -59 55 -159 70 -229 33z m194 -95 c32 -34 33 -39 28
-91 -6 -61 -24 -94 -64 -120 -62 -41 -171 -1 -192 69 -46 153 122 258 228 142z"/>
<path d="M7423 1757 c-47 -17 -103 -67 -119 -106 -23 -55 -18 -145 10 -190 37
-58 80 -84 148 -89 80 -6 124 4 153 36 l25 27 -20 20 c-14 13 -23 16 -28 9
-21 -33 -108 -47 -159 -25 -37 15 -73 77 -73 125 0 108 104 168 206 120 31
-15 35 -15 50 0 23 23 11 44 -38 66 -48 22 -107 24 -155 7z"/>
<path d="M8460 1749 c-64 -29 -108 -92 -116 -167 -6 -50 -3 -65 19 -107 34
-66 82 -98 158 -103 79 -6 119 3 153 35 l28 26 -23 18 c-23 17 -25 17 -57 -3
-45 -28 -131 -22 -167 12 -56 52 -52 166 7 215 38 32 115 35 162 6 l31 -20 22
23 c22 23 22 24 3 41 -50 45 -147 56 -220 24z"/>
<path d="M3090 1564 l0 -195 37 3 37 3 -3 69 c-2 49 1 71 11 77 7 5 52 9 101
9 85 0 87 1 87 24 0 19 -6 24 -37 30 -21 3 -63 6 -94 6 -64 0 -69 6 -69 71 l0
39 115 0 115 0 0 30 0 30 -150 0 -150 0 0 -196z"/>
<path d="M3568 1738 c-8 -13 -27 -52 -41 -88 -14 -36 -46 -111 -71 -168 -25
-56 -46 -105 -46 -107 0 -3 17 -5 39 -5 37 0 39 2 51 45 l13 45 94 0 94 0 19
-42 c15 -33 24 -42 47 -43 49 -3 55 -24 -83 298 -36 84 -38 87 -69 87 -23 0
-37 -7 -47 -22z"/>
<path d="M4310 1731 c0 -30 0 -30 63 -33 l62 -3 3 -162 2 -163 35 0 35 0 0
165 0 165 64 0 c64 0 65 0 63 28 l-2 27 -163 3 -162 2 0 -29z"/>
<path d="M5250 1597 c0 -90 -3 -179 -6 -196 -6 -30 -6 -31 30 -31 39 0 39 2
40 97 0 14 8 25 19 29 30 9 85 -5 91 -24 3 -9 19 -33 36 -52 16 -19 30 -38 30
-42 0 -5 18 -8 40 -8 42 0 46 3 30 23 -6 7 -26 34 -45 62 -32 45 -33 50 -17
60 52 30 62 48 62 110 0 57 -2 63 -36 96 l-35 34 -120 4 -119 3 0 -165z m226
76 c20 -21 23 -33 18 -57 -8 -38 -28 -53 -80 -61 -53 -8 -94 2 -95 24 -2 33 3
106 7 113 3 5 32 8 65 8 52 0 63 -3 85 -27z"/>
<path d="M5879 1594 c-1 -93 -2 -180 -2 -194 -1 -25 0 -25 93 -28 111 -3 159
11 213 63 27 26 37 46 43 81 14 95 -13 162 -88 216 -29 20 -47 23 -145 27
l-113 3 -1 -168z m198 95 c47 -17 76 -56 80 -108 8 -93 -54 -154 -152 -149
l-50 3 -3 133 -3 132 50 0 c27 0 62 -5 78 -11z"/>
<path d="M6465 1730 c-8 -16 -15 -36 -15 -45 0 -8 -4 -15 -10 -15 -5 0 -10 -8
-10 -18 0 -10 -4 -22 -9 -27 -4 -6 -21 -43 -36 -83 -15 -40 -38 -93 -51 -118
-13 -25 -24 -47 -24 -50 0 -2 17 -4 38 -4 36 0 39 3 56 45 l19 45 86 0 c86 0
86 0 104 -31 9 -17 17 -37 17 -45 0 -10 12 -14 41 -14 29 0 40 4 36 13 -39 90
-73 170 -90 207 -11 25 -21 47 -22 50 -4 18 -19 60 -32 88 -13 27 -21 32 -49
32 -27 0 -36 -6 -49 -30z"/>
<path d="M6815 1565 l0 -195 35 0 35 0 -3 125 c-3 117 -2 125 15 125 12 0 29
-16 43 -41 14 -23 33 -49 43 -58 10 -9 33 -37 52 -63 58 -80 67 -88 101 -88
30 0 32 2 30 33 -2 17 -4 105 -5 195 l-1 162 -30 0 -30 0 0 -126 c0 -155 -5
-157 -102 -29 -37 50 -77 101 -88 115 -11 14 -20 28 -20 33 0 4 -17 7 -37 7
l-38 0 0 -195z"/>
<path d="M7758 1588 c-2 -95 -2 -183 0 -195 4 -23 6 -23 148 -23 l144 0 0 30
0 30 -109 0 -109 0 -6 45 c-4 25 -4 50 0 56 4 7 36 8 100 4 l94 -7 0 30 c0 38
-11 42 -111 42 l-80 0 3 48 3 47 108 3 107 3 0 29 0 30 -144 0 -143 0 -5 -172z"/>
<path d="M8818 1755 c-3 -3 -4 -90 -1 -193 l4 -187 32 0 32 0 -3 63 -3 62 44
0 c51 0 63 -9 106 -77 29 -47 37 -53 67 -53 19 0 34 3 34 8 0 4 -16 31 -35 61
-19 29 -35 55 -35 58 0 2 15 19 34 37 39 36 51 71 42 120 -9 48 -41 84 -84 96
-38 10 -224 14 -234 5z m227 -80 c14 -13 25 -31 25 -39 0 -28 -22 -64 -44 -70
-31 -8 -134 -7 -138 2 -2 4 -2 35 0 70 l4 62 64 0 c56 0 68 -4 89 -25z"/>
<path d="M9270 1565 l0 -196 143 3 142 3 0 25 0 25 -103 0 c-111 0 -122 5
-122 57 0 55 5 58 101 58 52 0 90 4 91 10 5 34 2 35 -87 40 -86 5 -90 6 -99
31 -5 14 -6 38 -2 53 l6 26 110 0 110 0 0 30 0 30 -145 0 -145 0 0 -195z"/>
<path d="M9650 1753 c0 -4 7 -25 14 -48 8 -22 34 -94 56 -160 64 -185 59 -175
90 -175 22 0 30 7 43 40 33 79 46 116 59 165 9 32 20 51 31 53 11 2 17 -3 17
-15 1 -10 18 -67 38 -128 l38 -110 34 0 c33 0 35 2 58 70 13 39 30 90 38 115
7 25 22 70 32 100 37 105 37 100 -1 100 l-34 0 -39 -127 c-26 -84 -45 -129
-55 -131 -11 -2 -25 27 -53 110 -49 142 -52 148 -80 148 -20 0 -27 -11 -54
-92 -49 -146 -60 -173 -69 -171 -4 1 -28 60 -51 132 l-44 131 -34 0 c-19 0
-34 -3 -34 -7z"/>
</g>
</svg>
