<?xml version="1.0" standalone="no"?>
<!DOCTYPE svg PUBLIC "-//W3C//DTD SVG 20010904//EN"
 "http://www.w3.org/TR/2001/REC-SVG-20010904/DTD/svg10.dtd">
<svg version="1.0" xmlns="http://www.w3.org/2000/svg"
 width="1280.000000pt" height="720.000000pt" viewBox="0 0 1280.000000 720.000000"
 preserveAspectRatio="xMidYMid meet">
<metadata>
Created by potrace 1.16, written by Peter Selinger 2001-2019
</metadata>
<g transform="translate(0.000000,720.000000) scale(0.100000,-0.100000)"
fill="#000000" stroke="none">
<path d="M4296 5859 c-141 -18 -317 -95 -446 -194 -161 -124 -299 -332 -351
-530 -30 -115 -37 -323 -14 -436 51 -255 204 -466 446 -617 114 -72 267 -138
509 -220 374 -128 473 -170 617 -264 232 -152 345 -384 313 -643 -33 -265
-178 -443 -425 -521 -61 -19 -110 -26 -210 -31 -481 -21 -815 186 -1030 640
-78 165 -159 433 -202 666 -9 46 -28 65 -34 34 -4 -19 -5 -288 -1 -950 l2
-413 24 0 c21 0 30 11 56 64 75 157 169 171 440 63 509 -202 974 -181 1315 61
175 124 306 297 379 502 49 135 59 208 60 430 2 229 8 260 80 378 35 58 145
172 165 172 8 0 11 -247 11 -835 l0 -835 603 2 c486 3 601 5 599 16 -1 7 -5
605 -8 1328 l-5 1315 -34 48 c-44 60 -80 142 -101 226 -9 36 -20 65 -25 65 -6
0 -9 -237 -9 -566 1 -312 -1 -568 -2 -570 -2 -2 -87 -4 -188 -5 -219 -2 -367
-13 -469 -34 -89 -18 -106 -19 -65 -1 42 19 194 55 263 64 l56 7 3 759 c1 433
6 762 11 765 5 4 220 3 478 0 502 -7 572 -13 747 -64 110 -32 213 -79 297
-135 130 -88 274 -259 357 -426 178 -355 248 -1031 167 -1614 -53 -388 -169
-667 -360 -869 -119 -125 -228 -191 -393 -237 -77 -21 -278 -51 -287 -42 -2 2
-6 550 -9 1218 -4 668 -9 1216 -14 1217 -4 1 -30 3 -58 6 l-51 4 -1 -796 c-1
-438 -3 -807 -6 -820 -3 -14 -6 -212 -6 -440 l-1 -416 293 1 c261 1 304 3 398
23 648 136 1054 611 1147 1342 23 179 23 500 0 667 -33 241 -87 421 -181 605
-77 152 -135 236 -245 350 -255 265 -570 400 -1052 452 -121 13 -281 15 -994
13 l-850 -3 -3 -847 -2 -847 -33 -22 c-116 -81 -205 -180 -258 -289 -16 -33
-31 -60 -33 -60 -3 0 -21 30 -40 68 -70 133 -222 284 -382 383 -124 76 -249
129 -554 234 -255 88 -390 140 -470 183 -87 46 -201 133 -256 196 -59 68 -122
190 -139 274 -19 88 -19 213 0 287 35 140 132 276 241 340 197 115 533 122
761 16 197 -93 363 -277 502 -557 56 -114 77 -165 138 -338 29 -83 47 -103 56
-64 4 18 2 995 -2 1031 -1 4 -9 7 -19 7 -12 0 -25 -14 -37 -40 -35 -77 -117
-130 -200 -130 -55 1 -118 21 -264 85 -256 112 -467 145 -715 114z m2722
-2541 l-3 -892 -195 2 -195 2 -3 885 -2 884 112 4 c62 1 152 4 201 5 l87 2 -2
-892z"/>
<path d="M2375 1757 c-42 -20 -65 -58 -65 -110 0 -58 26 -81 127 -116 65 -23
79 -31 81 -51 8 -51 -56 -64 -139 -29 -49 21 -50 21 -64 3 -23 -29 -14 -47 35
-71 62 -32 154 -32 201 0 45 30 61 63 55 112 -6 50 -32 71 -128 105 -77 27
-100 49 -82 78 15 24 70 27 116 6 36 -16 39 -16 58 1 11 10 20 24 20 31 0 39
-156 68 -215 41z"/>
<path d="M3090 1564 l0 -195 38 3 37 3 0 70 0 70 100 5 100 5 0 30 0 30 -95 5
-95 5 0 50 0 50 108 3 107 3 0 29 0 30 -150 0 -150 0 0 -196z"/>
<path d="M3568 1738 c-8 -13 -29 -59 -48 -103 -18 -44 -47 -112 -65 -150 -53
-115 -53 -115 -7 -115 37 0 40 2 56 45 l18 45 81 0 c45 0 87 -4 93 -8 7 -4 19
-24 27 -44 14 -34 20 -38 53 -38 25 0 35 4 31 13 -3 6 -15 37 -27 67 -13 30
-39 91 -60 135 -20 44 -45 101 -56 127 -17 43 -22 48 -50 48 -22 0 -36 -7 -46
-22z"/>
<path d="M4005 1743 c-46 -24 -104 -91 -111 -129 -8 -42 4 -124 17 -124 6 0 8
-4 5 -8 -10 -16 46 -84 80 -98 89 -37 240 4 218 60 -8 21 -28 21 -45 0 -19
-23 -160 -15 -188 10 -41 37 -38 176 3 221 31 33 120 44 167 21 44 -22 82 -10
61 19 -32 45 -146 60 -207 28z"/>
</g>
</svg>
