<?xml version="1.0" standalone="no"?>
<!DOCTYPE svg PUBLIC "-//W3C//DTD SVG 20010904//EN"
 "http://www.w3.org/TR/2001/REC-SVG-20010904/DTD/svg10.dtd">
<svg version="1.0" xmlns="http://www.w3.org/2000/svg"
 width="1280.000000pt" height="720.000000pt" viewBox="0 0 1280.000000 720.000000"
 preserveAspectRatio="xMidYMid meet">
<metadata>
Created by potrace 1.16, written by Peter Selinger 2001-2019
</metadata>
<g transform="translate(0.000000,720.000000) scale(0.100000,-0.100000)"
fill="#000000" stroke="none">
<path d="M4590 3690 c-423 -14 -1158 -53 -1200 -64 -8 -3 -53 -7 -100 -11
-271 -19 -682 -68 -930 -110 -47 -8 -103 -17 -125 -20 -88 -13 -259 -60 -288
-80 -41 -27 -54 -71 -37 -131 11 -38 21 -52 59 -75 55 -35 89 -36 166 -3 131
56 252 87 540 139 50 9 99 18 110 21 11 2 144 20 295 39 151 19 307 39 345 45
58 8 272 29 580 55 148 13 555 36 830 47 381 15 1553 15 1965 0 173 -7 441
-17 595 -22 154 -6 377 -16 495 -21 357 -18 525 -17 546 4 2 2 -1 18 -7 35
-10 28 -15 31 -82 42 -117 18 -129 19 -447 35 -168 8 -384 19 -480 25 -174 10
-454 20 -1045 41 -414 14 -1468 19 -1785 9z"/>
</g>
</svg>
