<?xml version="1.0" standalone="no"?>
<!DOCTYPE svg PUBLIC "-//W3C//DTD SVG 20010904//EN"
 "http://www.w3.org/TR/2001/REC-SVG-20010904/DTD/svg10.dtd">
<svg version="1.0" xmlns="http://www.w3.org/2000/svg"
 width="1280.000000pt" height="720.000000pt" viewBox="0 0 1280.000000 720.000000"
 preserveAspectRatio="xMidYMid meet">
<metadata>
Created by potrace 1.16, written by Peter Selinger 2001-2019
</metadata>
<g transform="translate(0.000000,720.000000) scale(0.100000,-0.100000)"
fill="#000000" stroke="none">
<path d="M4296 5859 c-141 -18 -317 -95 -446 -194 -161 -124 -299 -332 -351
-530 -30 -115 -37 -323 -14 -436 51 -255 204 -466 446 -617 114 -72 267 -138
509 -220 374 -128 473 -170 617 -264 232 -152 345 -384 313 -643 -33 -265
-178 -443 -425 -521 -61 -19 -110 -26 -210 -31 -481 -21 -815 186 -1030 640
-78 165 -159 433 -202 666 -9 46 -28 65 -34 34 -4 -19 -5 -288 -1 -950 l2
-413 24 0 c21 0 30 11 56 64 75 157 169 171 440 63 509 -202 974 -181 1315 61
175 124 306 297 379 502 49 135 59 208 60 430 2 229 8 260 80 378 35 58 145
172 165 172 8 0 11 -247 11 -835 l0 -835 601 2 600 3 -1 325 c0 179 -5 586
-10 905 -6 344 -6 749 -1 995 l9 415 -39 57 c-49 71 -84 148 -105 233 -9 36
-21 65 -26 65 -6 0 -9 -206 -7 -565 2 -310 0 -567 -3 -571 -4 -3 -71 -5 -150
-5 -179 2 -412 -14 -507 -34 -87 -18 -106 -19 -66 -1 46 20 202 58 264 65 l56
6 3 759 c1 433 6 762 11 765 5 4 220 3 478 0 502 -7 572 -13 747 -64 181 -52
312 -129 436 -254 221 -222 337 -517 397 -1001 24 -201 24 -637 -1 -839 -54
-444 -168 -736 -371 -950 -119 -125 -237 -196 -400 -239 -70 -18 -218 -42
-266 -42 -14 0 -16 78 -23 853 -8 1011 -8 1465 0 1529 7 54 7 54 -73 61 l-53
4 1 -206 c0 -113 4 -257 8 -318 6 -97 10 -116 29 -136 19 -20 22 -31 16 -68
-4 -24 -12 -51 -19 -59 -7 -8 -15 -26 -19 -40 -8 -30 -25 -900 -26 -1335 l-1
-310 293 1 c262 1 304 3 398 23 649 137 1055 611 1147 1342 20 164 23 479 4
634 -28 238 -89 450 -185 638 -77 152 -135 236 -245 350 -255 265 -574 402
-1053 452 -118 12 -294 15 -993 13 l-850 -3 -3 -847 -2 -847 -48 -33 c-88 -61
-184 -167 -230 -255 -24 -46 -45 -83 -47 -83 -2 0 -21 33 -43 73 -76 138 -218
279 -378 378 -124 76 -249 129 -554 234 -255 88 -390 140 -470 183 -87 46
-201 133 -256 196 -59 68 -122 190 -139 274 -19 88 -19 213 0 287 35 140 132
276 241 340 197 115 533 122 761 16 197 -93 363 -277 502 -557 56 -114 77
-165 138 -338 29 -83 47 -103 56 -64 4 18 2 995 -2 1031 -1 4 -9 7 -19 7 -12
0 -25 -14 -37 -40 -35 -77 -117 -130 -200 -130 -55 1 -118 21 -264 85 -256
112 -467 145 -715 114z m2722 -2541 l-3 -892 -195 2 -195 2 -3 885 -2 884 97
4 c54 1 144 4 201 5 l102 2 -2 -892z"/>
<path d="M2362 1740 c-56 -35 -68 -99 -26 -149 18 -22 45 -36 94 -51 93 -28
117 -53 88 -93 -17 -23 -94 -25 -135 -4 -41 22 -60 21 -72 -1 -12 -23 -4 -35
36 -56 43 -21 154 -21 199 0 42 20 55 42 56 95 1 61 -22 79 -145 119 -57 19
-67 25 -67 45 0 47 9 55 61 55 28 0 60 -7 73 -15 22 -14 25 -14 40 0 9 9 16
23 16 30 0 44 -157 62 -218 25z"/>
<path d="M3145 1750 c-3 -5 -15 -10 -26 -10 -18 0 -19 -8 -19 -179 l0 -179 30
-4 30 -5 0 64 c0 35 -4 63 -10 63 -5 0 -10 13 -10 29 0 17 5 33 10 36 6 3 10
37 10 74 0 37 5 72 10 77 11 11 3 44 -10 44 -5 0 -12 -4 -15 -10z"/>
</g>
</svg>
