<?xml version="1.0" standalone="no"?>
<!DOCTYPE svg PUBLIC "-//W3C//DTD SVG 20010904//EN"
 "http://www.w3.org/TR/2001/REC-SVG-20010904/DTD/svg10.dtd">
<svg version="1.0" xmlns="http://www.w3.org/2000/svg"
 width="1280.000000pt" height="720.000000pt" viewBox="0 0 1280.000000 720.000000"
 preserveAspectRatio="xMidYMid meet">
<metadata>
Created by potrace 1.16, written by Peter Selinger 2001-2019
</metadata>
<g transform="translate(0.000000,720.000000) scale(0.100000,-0.100000)"
fill="#000000" stroke="none">
<path d="M4308 5860 c-370 -44 -704 -343 -810 -728 -18 -63 -22 -106 -22 -242
-1 -183 6 -226 61 -359 95 -232 273 -403 563 -540 82 -38 406 -155 610 -221
14 -4 68 -27 120 -50 374 -165 544 -380 543 -685 0 -182 -58 -337 -163 -443
-133 -132 -300 -192 -538 -192 -108 0 -266 23 -352 51 -409 135 -675 531 -805
1200 -10 48 -21 92 -25 99 -26 42 -29 -17 -25 -503 2 -276 4 -584 5 -684 l0
-183 24 0 c20 0 30 12 58 67 44 89 88 123 164 130 64 5 113 -8 316 -86 477
-183 940 -157 1267 72 87 61 193 167 253 252 144 204 206 430 193 705 -6 138
-5 149 19 226 14 44 43 107 64 140 37 56 143 164 163 164 5 0 9 -334 9 -835
l0 -835 603 0 602 0 -3 1326 -3 1327 -29 36 c-55 70 -104 184 -125 289 -19 93
-25 -31 -27 -548 l-3 -565 -250 -7 c-224 -5 -312 -13 -425 -34 -24 -5 -32 -3
-25 4 10 10 211 58 270 64 l30 3 3 763 2 762 389 0 c548 0 732 -19 933 -94
314 -118 538 -378 654 -761 127 -418 147 -1139 43 -1585 -70 -305 -168 -506
-328 -673 -94 -98 -194 -165 -307 -206 -83 -30 -282 -71 -345 -71 l-29 0 0
1220 0 1220 -45 2 c-25 1 -54 2 -66 2 l-21 1 -3 -680 c-2 -374 -4 -930 -4
-1235 l-2 -555 293 1 c261 1 304 3 398 23 651 137 1048 601 1147 1341 25 184
24 488 0 670 -30 219 -90 426 -169 584 -84 168 -148 257 -273 382 -202 202
-390 305 -703 383 -260 66 -263 66 -1267 66 l-910 0 -5 -847 -5 -846 -76 -60
c-97 -76 -149 -138 -200 -234 -22 -43 -42 -78 -43 -78 -2 0 -14 19 -26 43 -70
133 -210 286 -345 375 -139 93 -356 187 -650 282 -334 108 -510 198 -639 323
-81 80 -131 158 -167 263 -32 92 -35 288 -5 374 45 134 130 246 232 305 213
125 550 123 800 -3 226 -114 429 -398 573 -802 55 -152 66 -174 80 -151 5 7 8
245 7 529 -1 515 -1 517 -22 520 -16 2 -25 -7 -39 -38 -24 -54 -84 -106 -136
-120 -82 -22 -148 -5 -384 98 -199 87 -418 118 -647 92z m2712 -2545 l0 -885
-27 0 c-16 -1 -104 -2 -198 -3 l-170 -2 -3 875 c-1 481 0 881 3 888 3 9 53 12
200 12 l195 0 0 -885z"/>
<path d="M2403 1771 c-51 -13 -80 -37 -93 -76 -28 -84 13 -139 124 -169 71
-20 98 -45 75 -72 -18 -21 -98 -18 -138 7 l-33 20 -24 -22 c-34 -31 -30 -45
19 -72 56 -32 123 -40 185 -22 65 19 84 43 90 108 4 47 1 55 -23 80 -18 17
-56 36 -104 50 -68 21 -76 26 -79 50 -3 22 2 29 25 38 23 9 37 7 78 -10 l50
-22 22 28 c13 15 23 31 23 35 0 14 -75 46 -120 51 -25 3 -60 2 -77 -2z"/>
<path d="M4009 1765 c-81 -26 -139 -111 -139 -202 1 -90 55 -168 139 -198 61
-21 108 -19 166 9 64 29 82 50 65 72 -27 32 -49 36 -77 15 -18 -15 -40 -21
-75 -21 -43 0 -54 4 -84 34 -58 58 -45 174 23 205 40 19 107 13 138 -10 l27
-22 26 27 c32 31 25 50 -30 78 -49 26 -123 31 -179 13z"/>
<path d="M4840 1764 c-125 -44 -178 -186 -113 -306 102 -187 403 -109 403 105
0 154 -142 252 -290 201z m141 -90 c69 -35 76 -148 13 -203 -95 -84 -234 12
-194 133 25 76 108 108 181 70z"/>
<path d="M7428 1769 c-48 -14 -115 -72 -133 -116 -8 -20 -15 -63 -15 -96 0
-121 83 -201 209 -201 67 0 99 11 139 47 28 26 28 43 -2 62 -22 15 -26 14 -57
-4 -42 -26 -115 -28 -148 -5 -27 19 -51 71 -51 110 0 36 28 93 56 111 35 23
106 20 141 -5 l30 -21 25 27 c32 33 27 47 -24 73 -47 24 -120 32 -170 18z"/>
<path d="M8476 1768 c-51 -14 -121 -84 -135 -134 -47 -170 82 -310 252 -274
32 6 67 22 88 39 l34 29 -24 26 c-29 31 -35 32 -68 6 -39 -30 -113 -27 -152 6
-59 49 -60 142 -3 197 38 37 109 40 154 7 l30 -22 27 26 c20 21 24 30 15 44
-28 46 -141 72 -218 50z"/>
<path d="M3082 1568 l3 -203 42 -3 42 -3 3 78 3 78 98 3 98 3 -3 37 -3 37 -98
3 -98 3 3 42 3 42 113 3 112 3 0 39 0 40 -160 0 -160 0 2 -202z"/>
<path d="M3551 1733 c-10 -21 -37 -83 -59 -138 -22 -55 -52 -125 -66 -155 -35
-75 -34 -80 19 -80 43 0 45 1 64 45 l20 45 81 0 81 0 20 -45 c19 -44 21 -45
64 -45 25 0 45 4 45 9 0 8 -43 113 -126 308 l-39 93 -42 0 c-39 0 -44 -3 -62
-37z"/>
<path d="M4304 1756 c-3 -8 -4 -25 -2 -38 3 -20 10 -24 63 -28 l60 -5 3 -163
3 -163 42 3 42 3 3 163 2 162 60 0 c33 0 60 3 61 8 0 4 2 15 4 26 8 44 2 46
-171 46 -133 0 -166 -3 -170 -14z"/>
<path d="M5234 1757 c-2 -7 -3 -98 -2 -202 l3 -190 39 -3 c48 -4 56 6 56 76
l0 52 34 0 c30 0 38 -6 76 -65 l42 -65 49 0 c28 0 49 5 49 10 0 6 -19 38 -42
70 l-41 59 27 22 c57 45 71 123 33 180 -37 56 -76 69 -205 69 -82 0 -114 -3
-118 -13z m229 -79 c26 -21 31 -61 10 -87 -15 -19 -28 -22 -77 -22 -38 0 -62
4 -67 13 -10 16 -12 92 -2 101 11 12 119 7 136 -5z"/>
<path d="M5870 1565 l0 -205 99 0 c107 0 149 10 199 47 52 39 75 94 70 174 -3
57 -8 74 -34 106 -52 65 -101 83 -226 83 l-108 0 0 -205z m215 109 c97 -46 81
-193 -25 -225 -19 -6 -49 -9 -65 -7 l-30 3 -3 123 -3 122 47 0 c25 0 61 -7 79
-16z"/>
<path d="M6460 1748 c-5 -13 -42 -102 -83 -198 -41 -96 -72 -178 -70 -182 2
-5 22 -8 44 -8 38 0 41 2 60 45 l20 45 80 0 79 0 22 -45 c21 -43 24 -45 65
-45 26 0 43 5 43 12 0 6 -37 98 -82 205 l-83 193 -43 0 c-35 0 -44 -4 -52 -22z"/>
<path d="M6809 1763 c0 -7 0 -346 1 -391 0 -9 13 -12 43 -10 l42 3 2 115 c0
63 5 116 10 117 4 2 17 -12 29 -30 11 -17 54 -72 94 -120 69 -84 74 -88 109
-85 35 3 36 4 36 41 -1 20 -2 111 -3 202 l-2 165 -40 0 c-46 0 -42 10 -44
-137 -1 -50 -4 -94 -7 -97 -3 -4 -48 48 -99 114 -90 117 -93 120 -131 120 -22
0 -39 -3 -40 -7z"/>
<path d="M7750 1708 c0 -35 -2 -121 -4 -191 -3 -71 -2 -135 1 -143 4 -11 36
-14 159 -14 l154 0 0 40 0 40 -111 0 -110 0 3 43 3 42 90 2 90 1 3 36 3 35
-93 3 -93 3 -3 43 -3 42 110 0 111 0 0 40 0 40 -155 0 -155 0 0 -62z"/>
<path d="M8805 1748 c-3 -13 -4 -104 -2 -203 l2 -180 45 0 45 0 3 63 3 62 34
0 c30 0 38 -7 77 -62 42 -61 45 -63 91 -66 26 -2 47 1 47 7 0 5 -19 36 -41 69
l-41 60 37 34 c31 29 38 42 42 84 4 40 0 56 -19 84 -38 57 -76 70 -205 70
-109 0 -113 -1 -118 -22z m235 -78 c11 -11 20 -29 20 -40 0 -39 -35 -60 -99
-60 l-59 0 -3 38 c-8 77 -4 82 62 82 46 0 63 -4 79 -20z"/>
<path d="M9255 1757 c-3 -7 -4 -98 -3 -202 l3 -190 158 -3 157 -3 0 41 0 40
-110 0 -110 0 -6 27 c-12 47 4 58 102 63 l89 5 3 33 3 32 -89 0 c-99 0 -116 9
-110 57 l3 28 110 5 110 5 0 35 0 35 -153 3 c-118 2 -154 0 -157 -11z"/>
<path d="M9640 1757 c0 -11 106 -334 125 -380 6 -14 17 -17 48 -15 l40 3 38
112 c20 62 41 117 45 124 4 7 23 -35 46 -102 22 -63 44 -120 50 -126 14 -17
63 -16 77 0 12 15 131 363 131 384 0 9 -15 13 -43 13 -49 0 -41 13 -93 -155
-15 -49 -30 -94 -34 -98 -4 -4 -22 36 -40 90 -53 161 -54 163 -92 163 -29 0
-36 -5 -45 -32 -7 -18 -26 -75 -44 -126 -17 -51 -35 -89 -39 -85 -4 4 -24 61
-45 126 l-37 117 -44 0 c-29 0 -44 -4 -44 -13z"/>
</g>
</svg>
