<?xml version="1.0" standalone="no"?>
<!DOCTYPE svg PUBLIC "-//W3C//DTD SVG 20010904//EN"
 "http://www.w3.org/TR/2001/REC-SVG-20010904/DTD/svg10.dtd">
<svg version="1.0" xmlns="http://www.w3.org/2000/svg"
 width="1280.000000pt" height="720.000000pt" viewBox="0 0 1280.000000 720.000000"
 preserveAspectRatio="xMidYMid meet">
<metadata>
Created by potrace 1.16, written by Peter Selinger 2001-2019
</metadata>
<g transform="translate(0.000000,720.000000) scale(0.100000,-0.100000)"
fill="#000000" stroke="none">
<path d="M9414 4191 c8 -12 43 -18 216 -36 247 -27 658 -90 885 -136 451 -91
755 -204 755 -280 0 -41 -168 -96 -395 -129 -259 -38 -487 -52 -957 -57 -536
-6 -998 9 -2193 72 -871 45 -1167 55 -1965 62 -926 8 -1565 -15 -2195 -78
-110 -11 -247 -24 -305 -30 -122 -11 -279 -32 -400 -55 -47 -8 -125 -20 -175
-25 -49 -5 -112 -15 -140 -23 l-50 -14 97 -1 c53 -1 108 3 122 9 14 5 55 11
91 14 37 2 69 7 72 10 4 3 34 6 67 6 34 0 140 7 236 16 96 8 249 19 340 24 91
5 208 14 260 19 124 13 570 23 510 12 -25 -5 -108 -14 -185 -21 -510 -43 -813
-77 -1395 -160 -228 -32 -565 -89 -638 -107 -37 -9 -83 -24 -102 -33 -19 -10
-71 -29 -115 -43 -117 -37 -220 -83 -205 -92 24 -15 311 25 730 100 185 34
273 47 680 99 204 27 556 66 778 86 120 11 233 22 252 25 19 3 193 16 385 30
1159 81 2270 89 3640 25 1060 -49 1930 -68 2325 -51 610 28 884 87 967 210 42
63 27 128 -46 194 -142 128 -696 263 -1341 327 -361 35 -617 49 -606 31z"/>
</g>
</svg>
