<?xml version="1.0" standalone="no"?>
<!DOCTYPE svg PUBLIC "-//W3C//DTD SVG 20010904//EN"
 "http://www.w3.org/TR/2001/REC-SVG-20010904/DTD/svg10.dtd">
<svg version="1.0" xmlns="http://www.w3.org/2000/svg"
 width="1280.000000pt" height="720.000000pt" viewBox="0 0 1280.000000 720.000000"
 preserveAspectRatio="xMidYMid meet">
<metadata>
Created by potrace 1.16, written by Peter Selinger 2001-2019
</metadata>
<g transform="translate(0.000000,720.000000) scale(0.100000,-0.100000)"
fill="#000000" stroke="none">
<path d="M4308 5860 c-370 -44 -704 -343 -810 -728 -18 -63 -22 -106 -22 -242
-1 -183 6 -226 61 -359 95 -232 273 -403 563 -540 82 -38 406 -155 610 -221
14 -4 68 -27 120 -50 374 -165 544 -380 543 -685 -1 -225 -86 -404 -247 -514
-115 -79 -214 -109 -391 -117 -474 -23 -801 176 -1023 621 -75 152 -153 396
-197 626 -10 48 -21 92 -25 99 -26 42 -29 -17 -25 -503 2 -276 4 -584 5 -684
l0 -183 24 0 c20 0 30 12 58 67 44 89 88 123 164 130 64 5 113 -8 316 -86 355
-136 723 -157 1013 -58 303 104 548 354 648 662 46 141 60 251 53 420 -7 143
-6 154 18 231 14 44 43 107 64 140 37 56 143 164 163 164 5 0 9 -334 9 -835
l0 -835 968 0 c594 0 1009 4 1077 10 412 40 783 253 1004 578 152 225 243 490
281 820 24 212 25 364 5 555 -38 344 -112 570 -271 827 -71 116 -261 312 -372
384 -159 103 -313 168 -517 216 -275 66 -258 65 -1260 65 l-910 0 -5 -847 -5
-846 -76 -60 c-97 -76 -149 -138 -200 -234 -22 -43 -42 -78 -44 -78 -2 0 -16
25 -32 56 -15 31 -56 92 -91 135 -175 219 -405 349 -897 509 -335 109 -515
200 -643 327 -77 77 -128 157 -163 259 -32 92 -35 288 -5 374 45 134 129 245
230 304 215 126 551 125 802 -2 226 -114 424 -390 571 -797 57 -158 68 -179
82 -156 5 8 8 246 7 530 -1 514 -1 516 -22 519 -16 2 -25 -7 -39 -38 -24 -54
-84 -106 -136 -120 -82 -22 -148 -5 -384 98 -199 87 -418 118 -647 92z m3227
-71 c396 -34 663 -164 847 -412 134 -182 208 -360 263 -636 83 -416 81 -1009
-6 -1381 -50 -215 -119 -390 -210 -530 -58 -88 -219 -246 -299 -293 -36 -21
-107 -51 -158 -67 -85 -28 -257 -60 -317 -60 l-25 0 0 1220 0 1220 -37 0 c-58
0 -155 26 -230 61 -127 60 -264 226 -298 362 -8 29 -22 43 -33 32 -4 -4 -9
-244 -12 -533 l-5 -527 -250 -7 c-224 -5 -312 -13 -425 -34 -24 -5 -32 -3 -25
4 10 10 211 58 270 64 l30 3 3 763 2 762 398 0 c218 0 451 -5 517 -11z m-515
-2474 l0 -885 -57 0 c-32 -1 -121 -2 -198 -3 l-140 -2 -3 875 c-1 481 0 881 3
888 3 9 53 12 200 12 l195 0 0 -885z"/>
</g>
</svg>
