<?xml version="1.0" standalone="no"?>
<!DOCTYPE svg PUBLIC "-//W3C//DTD SVG 20010904//EN"
 "http://www.w3.org/TR/2001/REC-SVG-20010904/DTD/svg10.dtd">
<svg version="1.0" xmlns="http://www.w3.org/2000/svg"
 width="1280.000000pt" height="720.000000pt" viewBox="0 0 1280.000000 720.000000"
 preserveAspectRatio="xMidYMid meet">
<metadata>
Created by potrace 1.16, written by Peter Selinger 2001-2019
</metadata>
<g transform="translate(0.000000,720.000000) scale(0.100000,-0.100000)"
fill="#000000" stroke="none">
<path d="M4335 5863 c-76 -9 -187 -38 -255 -66 -87 -35 -220 -118 -287 -179
-107 -99 -208 -249 -264 -393 -48 -125 -62 -218 -57 -378 4 -132 7 -150 42
-252 41 -121 92 -216 158 -291 171 -195 359 -304 753 -438 483 -163 623 -233
766 -382 127 -133 169 -229 177 -405 6 -153 -8 -231 -63 -345 -35 -73 -57
-103 -112 -155 -38 -35 -96 -79 -131 -97 -34 -18 -62 -40 -62 -48 0 -17 -4
-18 61 5 184 63 372 206 491 375 123 174 184 359 195 586 5 103 3 125 -21 213
-67 251 -232 463 -475 608 -144 87 -229 121 -691 284 -311 110 -430 174 -555
300 -239 239 -249 628 -22 855 69 69 144 111 252 141 107 30 352 33 460 5 188
-49 386 -184 487 -332 13 -19 29 -34 36 -34 6 0 12 -8 12 -19 0 -15 10 -20 58
-25 73 -8 85 -4 105 39 15 32 21 35 59 35 24 0 49 4 56 8 16 11 23 333 7 339
-6 2 -28 -23 -49 -56 -52 -80 -92 -101 -189 -101 -78 0 -151 20 -227 63 -189
106 -501 167 -715 140z"/>
<path d="M3330 3359 c-104 -13 -237 -27 -350 -38 -128 -11 -333 -36 -495 -59
-38 -6 -97 -13 -129 -16 -67 -6 -220 -29 -341 -51 -44 -8 -94 -15 -112 -15
-17 0 -34 -4 -37 -9 -3 -4 -36 -11 -73 -15 -90 -9 -144 -19 -288 -51 -178 -40
-193 -43 -280 -59 -80 -15 -213 -55 -272 -82 -17 -8 -34 -14 -39 -14 -18 0
-124 -57 -172 -93 -60 -45 -82 -80 -82 -129 0 -38 3 -43 52 -85 34 -29 74 -45
204 -79 132 -34 934 -101 892 -74 -10 6 -57 15 -105 21 -243 27 -435 54 -493
69 -19 5 -87 19 -150 30 -128 24 -166 34 -225 58 -57 23 -75 41 -75 76 0 26 7
35 43 57 66 41 145 79 162 79 9 0 26 6 38 14 12 8 38 17 57 21 19 4 40 11 45
15 6 5 41 14 78 20 37 7 67 16 67 21 0 5 11 9 24 9 14 0 28 5 31 10 3 6 25 10
49 10 23 0 46 4 52 9 8 9 110 32 232 52 125 21 159 28 197 39 22 7 58 14 80
17 22 2 49 8 60 13 11 5 47 11 80 14 61 4 201 26 420 66 66 12 154 25 195 30
41 5 109 14 150 20 41 6 107 15 145 20 39 5 104 14 145 20 41 6 116 15 165 20
50 5 126 14 170 21 44 6 114 15 155 19 65 6 56 7 -65 7 -77 0 -169 -4 -205 -8z"/>
</g>
</svg>
