<?xml version="1.0" standalone="no"?>
<!DOCTYPE svg PUBLIC "-//W3C//DTD SVG 20010904//EN"
 "http://www.w3.org/TR/2001/REC-SVG-20010904/DTD/svg10.dtd">
<svg version="1.0" xmlns="http://www.w3.org/2000/svg"
 width="1280.000000pt" height="720.000000pt" viewBox="0 0 1280.000000 720.000000"
 preserveAspectRatio="xMidYMid meet">
<metadata>
Created by potrace 1.16, written by Peter Selinger 2001-2019
</metadata>
<g transform="translate(0.000000,720.000000) scale(0.100000,-0.100000)"
fill="#000000" stroke="none">
<path d="M4303 5860 c-183 -26 -381 -122 -522 -254 -123 -116 -238 -307 -282
-472 -30 -110 -37 -322 -15 -432 52 -255 206 -469 447 -621 114 -71 270 -138
511 -220 295 -100 376 -131 484 -187 219 -112 357 -251 413 -421 78 -232 22
-509 -132 -661 -126 -124 -262 -180 -463 -189 -493 -24 -828 187 -1048 659
-70 149 -147 405 -187 618 -12 69 -25 93 -37 73 -7 -11 -8 -264 -4 -980 l2
-393 25 0 c21 0 29 9 46 47 30 70 66 113 113 134 77 35 133 25 354 -62 493
-193 961 -169 1297 69 175 123 313 307 382 507 47 136 56 200 58 400 2 143 6
200 17 231 70 185 201 302 433 387 242 88 627 124 1020 93 289 -23 318 -24
343 -17 41 11 29 24 -51 53 -128 46 -407 78 -687 78 -385 0 -610 -44 -818
-162 -106 -60 -236 -189 -286 -285 -20 -40 -39 -73 -41 -73 -2 0 -23 32 -45
71 -86 147 -220 276 -390 377 -120 71 -258 129 -525 222 -468 162 -566 211
-712 356 -147 147 -211 356 -172 570 16 89 80 211 146 278 70 71 135 108 248
142 80 24 106 27 240 26 166 0 255 -17 372 -71 197 -93 362 -276 500 -556 61
-122 76 -158 135 -324 36 -102 54 -122 62 -69 4 18 5 256 4 528 -3 493 -3 495
-24 498 -16 2 -25 -7 -39 -38 -57 -127 -192 -161 -359 -89 -315 136 -396 158
-606 164 -80 2 -173 0 -207 -5z"/>
</g>
</svg>
