<?xml version="1.0" standalone="no"?>
<!DOCTYPE svg PUBLIC "-//W3C//DTD SVG 20010904//EN"
 "http://www.w3.org/TR/2001/REC-SVG-20010904/DTD/svg10.dtd">
<svg version="1.0" xmlns="http://www.w3.org/2000/svg"
 width="1280.000000pt" height="720.000000pt" viewBox="0 0 1280.000000 720.000000"
 preserveAspectRatio="xMidYMid meet">
<metadata>
Created by potrace 1.16, written by Peter Selinger 2001-2019
</metadata>
<g transform="translate(0.000000,720.000000) scale(0.100000,-0.100000)"
fill="#000000" stroke="none">
<path d="M4813 4385 c-7 -8 -13 -19 -13 -25 0 -18 -27 -40 -49 -40 -11 0 -24
-6 -28 -13 -4 -7 -25 -21 -45 -32 -21 -11 -38 -22 -38 -26 0 -8 -79 -20 -159
-24 -35 -1 -66 -7 -70 -12 -3 -6 -34 -19 -68 -29 -35 -10 -63 -24 -63 -31 0
-8 -13 -13 -34 -13 -23 0 -42 -9 -64 -30 -26 -24 -41 -30 -76 -30 -27 0 -51
-6 -60 -16 -20 -20 -12 -34 20 -34 13 0 24 -5 24 -11 0 -17 138 -75 307 -130
296 -95 500 -182 633 -269 100 -65 114 -91 48 -90 -75 1 -436 -20 -633 -36
-104 -9 -271 -20 -370 -24 -99 -5 -198 -11 -220 -14 -39 -6 -318 -30 -465 -41
-41 -3 -140 -14 -220 -25 -80 -10 -174 -22 -210 -25 -177 -15 -293 -28 -485
-55 -115 -16 -239 -32 -275 -35 -76 -8 -190 -26 -345 -55 -60 -11 -155 -27
-210 -35 -116 -18 -275 -52 -465 -101 -168 -43 -247 -69 -328 -105 -34 -16
-65 -29 -69 -29 -15 0 -117 -87 -139 -119 -31 -45 -33 -122 -5 -168 48 -78
206 -132 481 -163 233 -26 1091 -63 1055 -45 -12 6 -182 36 -395 70 -333 54
-411 67 -580 101 -187 38 -319 77 -353 104 -21 17 -21 17 23 45 52 33 148 76
210 94 25 7 86 26 135 41 108 34 211 59 405 100 296 61 376 76 540 100 76 12
148 23 161 25 144 29 295 53 374 59 47 5 297 39 480 66 72 10 200 26 285 35
85 9 180 21 210 26 30 5 161 19 290 30 129 11 267 24 305 29 39 5 171 15 295
24 124 8 266 20 315 25 50 6 117 13 150 15 33 3 86 8 117 12 53 6 61 4 93 -20
39 -30 105 -151 123 -226 42 -176 8 -401 -81 -534 -63 -93 -157 -175 -243
-211 -19 -8 -34 -21 -34 -29 0 -20 -2 -20 74 8 227 86 428 263 539 476 83 158
127 316 127 457 0 119 0 119 127 126 258 15 1042 32 1438 31 531 -2 1451 -30
1770 -54 72 -6 292 -12 490 -14 315 -3 331 -3 130 4 -126 4 -297 13 -380 19
-82 6 -202 11 -265 11 -63 0 -130 4 -149 10 -19 5 -125 12 -235 15 -111 3
-275 10 -366 15 -91 6 -246 15 -345 20 -214 13 -1473 16 -1905 5 l-305 -7 -11
28 c-7 16 -15 43 -19 59 -8 39 -89 205 -128 264 -40 61 -195 212 -260 254 -95
63 -286 157 -348 173 -34 9 -82 27 -107 40 -25 13 -45 24 -46 24 -1 -1 -7 -7
-13 -15z"/>
</g>
</svg>
