<?xml version="1.0" standalone="no"?>
<!DOCTYPE svg PUBLIC "-//W3C//DTD SVG 20010904//EN"
 "http://www.w3.org/TR/2001/REC-SVG-20010904/DTD/svg10.dtd">
<svg version="1.0" xmlns="http://www.w3.org/2000/svg"
 width="1280.000000pt" height="720.000000pt" viewBox="0 0 1280.000000 720.000000"
 preserveAspectRatio="xMidYMid meet">
<metadata>
Created by potrace 1.16, written by Peter Selinger 2001-2019
</metadata>
<g transform="translate(0.000000,720.000000) scale(0.100000,-0.100000)"
fill="#000000" stroke="none">
<path d="M4296 5859 c-141 -18 -317 -95 -446 -194 -161 -124 -299 -332 -351
-530 -30 -115 -37 -323 -14 -436 51 -255 204 -466 446 -617 116 -73 268 -138
544 -232 350 -120 455 -166 600 -264 216 -145 326 -380 295 -631 -28 -228
-137 -389 -325 -480 -98 -49 -171 -65 -315 -72 -475 -22 -811 188 -1025 640
-78 165 -159 433 -202 666 -9 46 -28 65 -34 34 -3 -10 -4 -225 -2 -478 1 -253
2 -556 2 -672 l1 -213 24 0 c21 0 30 11 56 64 75 157 169 171 440 63 375 -149
728 -177 1030 -82 308 98 553 335 664 643 50 141 60 211 61 432 1 229 7 260
79 378 35 58 145 172 165 172 8 0 11 -247 11 -835 l0 -835 600 2 601 3 -2 430
c-1 237 -3 833 -4 1325 l-1 895 -33 45 c-46 63 -86 153 -106 237 -10 40 -22
70 -26 67 -5 -3 -9 -261 -9 -573 l0 -568 -257 -6 c-226 -5 -374 -19 -468 -43
-15 -3 -13 -1 5 9 28 16 225 64 280 69 l35 3 3 759 c1 433 6 762 11 765 5 4
215 3 468 0 362 -4 481 -9 566 -23 279 -44 465 -132 627 -295 265 -267 394
-674 416 -1316 10 -283 -20 -612 -76 -843 -68 -278 -164 -472 -312 -628 -160
-168 -320 -244 -581 -274 -55 -6 -100 -10 -103 -8 -2 2 -5 549 -7 1216 -2 666
-5 1213 -8 1215 -2 3 -30 7 -61 10 l-58 6 0 -732 c0 -403 -2 -743 -5 -757 -2
-13 -5 -240 -5 -505 l-1 -480 293 1 c261 1 304 3 398 23 544 115 922 469 1079
1014 88 303 111 659 66 1000 -29 224 -79 394 -165 572 -78 161 -144 258 -252
370 -208 218 -442 343 -783 418 -239 53 -357 58 -1285 55 l-835 -3 -3 -847 -2
-847 -33 -22 c-116 -81 -205 -180 -258 -289 -16 -33 -31 -60 -33 -60 -3 0 -21
30 -40 68 -46 86 -153 211 -243 284 -165 133 -317 205 -726 344 -400 136 -523
199 -662 339 -72 72 -131 168 -161 262 -21 69 -29 229 -15 305 27 141 132 296
247 363 197 115 533 122 761 16 197 -93 363 -277 502 -557 56 -114 77 -165
138 -338 29 -83 47 -103 56 -64 3 13 4 250 3 528 -2 465 -4 505 -19 508 -11 2
-23 -9 -35 -30 -28 -55 -93 -115 -137 -127 -85 -23 -140 -11 -334 74 -256 112
-467 145 -715 114z m2719 -2543 l0 -890 -195 2 -195 2 -3 885 -2 884 132 4
c73 2 162 3 198 3 l65 -1 0 -889z"/>
<path d="M2380 1763 c-54 -20 -89 -92 -70 -147 15 -46 28 -55 117 -85 90 -31
110 -53 73 -82 -26 -22 -70 -20 -124 7 -41 20 -53 18 -73 -12 -16 -25 -16 -27
3 -41 58 -45 175 -58 240 -27 56 27 80 98 53 157 -12 25 -71 57 -147 78 -24 7
-47 20 -53 30 -25 48 34 71 112 43 l51 -18 19 24 c26 35 25 38 -23 60 -41 19
-142 26 -178 13z"/>
<path d="M3087 1763 c-3 -5 -4 -96 -3 -203 l1 -195 43 -3 42 -3 0 80 0 81 100
0 100 0 0 35 0 34 -97 3 -98 3 -3 47 -3 47 113 3 113 3 0 35 0 35 -152 3 c-83
1 -154 -1 -156 -5z"/>
<path d="M3572 1758 c-18 -22 -171 -382 -166 -390 3 -5 23 -8 44 -8 35 0 39 3
50 35 18 56 28 60 117 57 l80 -3 19 -42 c16 -36 24 -42 53 -45 41 -4 57 9 41
34 -6 11 -44 98 -84 194 l-73 175 -35 3 c-20 2 -39 -3 -46 -10z"/>
<path d="M4011 1763 c-13 -2 -45 -26 -71 -52 -39 -39 -50 -58 -59 -102 -20
-95 25 -194 103 -230 76 -35 203 -16 245 35 13 15 12 20 -7 38 l-21 22 -44
-22 c-52 -26 -75 -27 -122 -8 -52 22 -77 69 -72 135 3 47 9 59 40 88 44 40 92
44 151 12 l39 -21 21 21 c25 25 15 48 -30 70 -30 15 -130 23 -173 14z"/>
<path d="M4315 1762 c-3 -3 -5 -18 -5 -34 0 -27 1 -28 54 -28 31 0 58 -5 62
-12 4 -6 8 -79 8 -162 l1 -151 38 -3 37 -3 0 155 c0 147 1 156 21 166 11 6 35
11 52 10 54 -3 57 -2 57 35 l0 35 -160 -1 c-88 -1 -162 -4 -165 -7z"/>
<path d="M4875 1765 c-5 -2 -23 -6 -39 -10 -38 -8 -100 -73 -116 -120 -7 -20
-10 -64 -8 -96 5 -71 40 -122 108 -156 93 -48 214 -14 270 73 25 40 30 58 30
110 0 53 -5 69 -32 110 -39 58 -103 94 -163 93 -22 0 -44 -2 -50 -4z m108 -76
c55 -30 79 -103 55 -174 -25 -76 -123 -109 -195 -65 -45 27 -56 53 -51 126 4
65 22 98 63 115 30 12 103 11 128 -2z"/>
<path d="M5241 1564 l-2 -195 38 3 38 3 5 60 c4 54 7 60 29 63 43 6 66 -7 96
-57 34 -56 59 -74 98 -69 l27 3 -40 58 c-38 55 -50 87 -31 87 4 0 21 12 37 26
23 23 28 35 28 78 1 36 -5 59 -19 78 -35 46 -75 58 -194 58 l-108 0 -2 -196z
m241 118 c17 -17 13 -89 -6 -108 -20 -19 -74 -28 -120 -20 l-36 7 0 71 0 70
75 -4 c41 -2 80 -9 87 -16z"/>
</g>
</svg>
